<?xml version="1.0" encoding="UTF-8" standalone="no"?>
<!-- Created with Inkscape (http://www.inkscape.org/) -->

<svg
   width="2000mm"
   height="2000mm"
   viewBox="0 0 2000 2000"
   version="1.1"
   id="svg1"
   inkscape:version="1.4 (e7c3feb1, 2024-10-09)"
   sodipodi:docname="soggynotesappheader.svg"
   inkscape:export-filename="soggynotes.png"
   inkscape:export-xdpi="96"
   inkscape:export-ydpi="96"
   xmlns:inkscape="http://www.inkscape.org/namespaces/inkscape"
   xmlns:sodipodi="http://sodipodi.sourceforge.net/DTD/sodipodi-0.dtd"
   xmlns:xlink="http://www.w3.org/1999/xlink"
   xmlns="http://www.w3.org/2000/svg"
   xmlns:svg="http://www.w3.org/2000/svg">
  <sodipodi:namedview
     id="namedview1"
     pagecolor="#ffffff"
     bordercolor="#000000"
     borderopacity="0.25"
     inkscape:showpageshadow="2"
     inkscape:pageopacity="0.0"
     inkscape:pagecheckerboard="0"
     inkscape:deskcolor="#d1d1d1"
     inkscape:document-units="mm"
     inkscape:zoom="0.06357423"
     inkscape:cx="4176.2205"
     inkscape:cy="4191.9501"
     inkscape:window-width="1456"
     inkscape:window-height="854"
     inkscape:window-x="12"
     inkscape:window-y="38"
     inkscape:window-maximized="0"
     inkscape:current-layer="layer1" />
  <defs
     id="defs1">
    <linearGradient
       id="linearGradient94"
       inkscape:collect="always">
      <stop
         style="stop-color:#0000ff;stop-opacity:0.98841702;"
         offset="0"
         id="stop94" />
      <stop
         style="stop-color:#0000ff;stop-opacity:0;"
         offset="1"
         id="stop95" />
    </linearGradient>
    <linearGradient
       id="linearGradient89"
       inkscape:collect="always">
      <stop
         style="stop-color:#000080;stop-opacity:0.98841702;"
         offset="0"
         id="stop89" />
      <stop
         style="stop-color:#000080;stop-opacity:0;"
         offset="1"
         id="stop90" />
    </linearGradient>
    <linearGradient
       id="linearGradient44"
       inkscape:collect="always">
      <stop
         style="stop-color:#000080;stop-opacity:0.98841702;"
         offset="0"
         id="stop44" />
      <stop
         style="stop-color:#000080;stop-opacity:0;"
         offset="1"
         id="stop45" />
    </linearGradient>
    <linearGradient
       id="linearGradient42"
       inkscape:collect="always">
      <stop
         style="stop-color:#0000ff;stop-opacity:0.98841702;"
         offset="0"
         id="stop42" />
      <stop
         style="stop-color:#0000ff;stop-opacity:0;"
         offset="1"
         id="stop43" />
    </linearGradient>
    <linearGradient
       id="linearGradient36"
       inkscape:collect="always">
      <stop
         style="stop-color:#000080;stop-opacity:0.98841702;"
         offset="0"
         id="stop36" />
      <stop
         style="stop-color:#000080;stop-opacity:0;"
         offset="1"
         id="stop37" />
    </linearGradient>
    <linearGradient
       id="linearGradient34"
       inkscape:collect="always">
      <stop
         style="stop-color:#0000ff;stop-opacity:0.98841702;"
         offset="0"
         id="stop34" />
      <stop
         style="stop-color:#0000ff;stop-opacity:0;"
         offset="1"
         id="stop35" />
    </linearGradient>
    <linearGradient
       id="linearGradient32"
       inkscape:collect="always">
      <stop
         style="stop-color:#0000ff;stop-opacity:0.98841702;"
         offset="0"
         id="stop32" />
      <stop
         style="stop-color:#0000ff;stop-opacity:0;"
         offset="1"
         id="stop33" />
    </linearGradient>
    <linearGradient
       id="linearGradient30"
       inkscape:collect="always">
      <stop
         style="stop-color:#000080;stop-opacity:0.98841702;"
         offset="0"
         id="stop30" />
      <stop
         style="stop-color:#000080;stop-opacity:0;"
         offset="1"
         id="stop31" />
    </linearGradient>
    <linearGradient
       id="linearGradient23"
       inkscape:collect="always">
      <stop
         style="stop-color:#000080;stop-opacity:0.98841702;"
         offset="0"
         id="stop23" />
      <stop
         style="stop-color:#000080;stop-opacity:0;"
         offset="1"
         id="stop24" />
    </linearGradient>
    <linearGradient
       id="linearGradient21"
       inkscape:collect="always">
      <stop
         style="stop-color:#0000ff;stop-opacity:0.98841702;"
         offset="0"
         id="stop21" />
      <stop
         style="stop-color:#0000ff;stop-opacity:0;"
         offset="1"
         id="stop22" />
    </linearGradient>
    <linearGradient
       id="linearGradient19"
       inkscape:collect="always">
      <stop
         style="stop-color:#0000ff;stop-opacity:0.98841702;"
         offset="0"
         id="stop19" />
      <stop
         style="stop-color:#0000ff;stop-opacity:0;"
         offset="1"
         id="stop20" />
    </linearGradient>
    <linearGradient
       inkscape:collect="always"
       xlink:href="#linearGradient19"
       id="linearGradient20"
       x1="656.65192"
       y1="1414.7137"
       x2="398.70648"
       y2="1431.2432"
       gradientUnits="userSpaceOnUse"
       gradientTransform="matrix(1.1488226,0.19039945,-0.15541618,1.1441543,197.8586,-648.50335)" />
    <linearGradient
       inkscape:collect="always"
       xlink:href="#linearGradient21"
       id="linearGradient22"
       x1="1764.7843"
       y1="1327.0704"
       x2="1436.8558"
       y2="1235.2443"
       gradientUnits="userSpaceOnUse"
       gradientTransform="matrix(1.1447416,0.27596266,-0.17812703,1.1717131,-200.25955,-757.90957)" />
    <linearGradient
       inkscape:collect="always"
       xlink:href="#linearGradient23"
       id="linearGradient24"
       x1="1346.9219"
       y1="1187.0026"
       x2="871.45471"
       y2="3734.8276"
       gradientUnits="userSpaceOnUse"
       gradientTransform="matrix(1.1569437,1.4488206e-8,5.3915211e-8,1.1703359,-287.85877,-674.38798)" />
    <linearGradient
       inkscape:collect="always"
       xlink:href="#linearGradient30"
       id="linearGradient31"
       x1="412.42206"
       y1="1655.5996"
       x2="717.97644"
       y2="1405.5134"
       gradientUnits="userSpaceOnUse"
       gradientTransform="matrix(1.1604817,0,0,1.1728359,100.4469,-722.52509)" />
    <linearGradient
       inkscape:collect="always"
       xlink:href="#linearGradient32"
       id="linearGradient33"
       x1="350.19351"
       y1="1767.5333"
       x2="323.62213"
       y2="1314.6344"
       gradientUnits="userSpaceOnUse"
       gradientTransform="matrix(1.1814939,0,0,1.6846219,69.66282,-1470.0737)" />
    <linearGradient
       inkscape:collect="always"
       xlink:href="#linearGradient34"
       id="linearGradient35"
       x1="1482.5135"
       y1="1407.7777"
       x2="2087.4937"
       y2="1407.7777"
       gradientUnits="userSpaceOnUse"
       gradientTransform="matrix(1.1037545,4.2359856e-8,7.7831438e-8,1.7835767,-256.64647,-1422.5136)" />
    <linearGradient
       inkscape:collect="always"
       xlink:href="#linearGradient36"
       id="linearGradient37"
       x1="422.36621"
       y1="1191.182"
       x2="2081.4666"
       y2="2221.3994"
       gradientUnits="userSpaceOnUse"
       gradientTransform="matrix(1.1562787,0.19039945,-0.15642488,1.1441543,192.88502,-648.50335)" />
    <linearGradient
       inkscape:collect="always"
       xlink:href="#linearGradient42"
       id="linearGradient43"
       x1="878.87079"
       y1="782.36255"
       x2="3198.7168"
       y2="787.91571"
       gradientUnits="userSpaceOnUse"
       gradientTransform="matrix(0.80256809,0,-2.6982472e-8,1.2257862,485.60896,-748.66384)" />
    <linearGradient
       inkscape:collect="always"
       xlink:href="#linearGradient44"
       id="linearGradient45"
       x1="1527.9891"
       y1="370.68387"
       x2="2196.1089"
       y2="233.41252"
       gradientUnits="userSpaceOnUse"
       gradientTransform="matrix(0.74319636,0.35499338,-0.31734727,1.1697806,540.73232,-739.87957)" />
    <linearGradient
       inkscape:collect="always"
       xlink:href="#linearGradient36"
       id="linearGradient86"
       gradientUnits="userSpaceOnUse"
       gradientTransform="matrix(1.1447416,0.27596266,-0.17812703,1.1717131,1119.2953,-742.26437)"
       x1="422.36621"
       y1="1191.182"
       x2="2081.4666"
       y2="2221.3994" />
    <linearGradient
       inkscape:collect="always"
       xlink:href="#linearGradient42"
       id="linearGradient87"
       gradientUnits="userSpaceOnUse"
       gradientTransform="matrix(0.40590954,0,0,0.67711475,692.18138,-215.2701)"
       x1="425.57904"
       y1="783.96057"
       x2="2863.4492"
       y2="801.05023" />
    <linearGradient
       inkscape:collect="always"
       xlink:href="#linearGradient44"
       id="linearGradient88"
       gradientUnits="userSpaceOnUse"
       gradientTransform="matrix(0.37587446,0.19618213,-0.16049961,0.6464629,706.62552,-204.26861)"
       x1="709.9751"
       y1="574.30701"
       x2="1855.6409"
       y2="286.22952" />
    <linearGradient
       inkscape:collect="always"
       xlink:href="#linearGradient89"
       id="linearGradient90"
       x1="1881.9474"
       y1="1533.6443"
       x2="1830.4852"
       y2="1470.5637"
       gradientUnits="userSpaceOnUse"
       gradientTransform="matrix(1.1310871,0,0,1.3026693,-291.7332,-471.87937)" />
    <linearGradient
       inkscape:collect="always"
       xlink:href="#linearGradient94"
       id="linearGradient95"
       x1="442.5181"
       y1="1346.9722"
       x2="552.95276"
       y2="1346.9722"
       gradientUnits="userSpaceOnUse"
       gradientTransform="matrix(1.1310871,0,0,1.3026693,-291.7332,-471.87937)" />
  </defs>
  <g
     inkscape:label="Layer 1"
     inkscape:groupmode="layer"
     id="layer1">
    <path
       style="fill:url(#linearGradient31);fill-opacity:0.988417;stroke:none;stroke-width:0.250274"
       id="path11"
       sodipodi:type="arc"
       sodipodi:cx="616.25299"
       sodipodi:cy="1378.4617"
       sodipodi:rx="352.57452"
       sodipodi:ry="336.24805"
       sodipodi:start="6.2629556"
       sodipodi:end="5.9289759"
       sodipodi:arc-type="arc"
       d="m 968.75537,1371.6599 a 352.57452,336.24805 0 0 1 -315.99726,341.2426 352.57452,336.24805 0 0 1 -382.9186,-271.8557 352.57452,336.24805 0 0 1 252.12801,-386.587 352.57452,336.24805 0 0 1 424.97252,207.3746"
       sodipodi:open="true"
       transform="matrix(0.98600581,0.16671093,-0.13198478,0.99125174,0,0)" />
    <path
       style="fill:url(#linearGradient20);fill-opacity:1;stroke:none;stroke-width:0.306735"
       d="m 657.06289,1274.291 c 0,0 14.4645,447.2999 88.08565,337.9437 73.62087,-109.3562 222.69068,-499.157 226.12068,-700.23634 3.18476,-186.71483 -175.31935,-737.55154 -175.31935,-737.55154 0,0 122.437,594.37577 22.43712,808.14903 -25.72227,54.98775 -183.30946,261.72425 -325.2751,217.21855 -281.10793,-88.126 -105.23907,413.1953 418.02239,-36.5238"
       id="path12"
       sodipodi:nodetypes="csscssc" />
    <path
       style="fill:#008080;fill-opacity:0.988417;stroke:none;stroke-width:0.215382"
       d="M 944.85596,403.15896 Z"
       id="path13" />
    <path
       style="fill:url(#linearGradient24);fill-opacity:1;stroke:none;stroke-width:0.249625"
       id="path11-7"
       sodipodi:type="arc"
       sodipodi:cx="1538.5559"
       sodipodi:cy="1111.4293"
       sodipodi:rx="336.14395"
       sodipodi:ry="335.53119"
       sodipodi:start="0"
       sodipodi:end="5.9289759"
       sodipodi:arc-type="arc"
       d="M 1874.6999,1111.4293 A 336.14395,335.53119 0 0 1 1568.2834,1445.6458 336.14395,335.53119 0 0 1 1207.67,1170.5433 336.14395,335.53119 0 0 1 1450.3036,787.6685 336.14395,335.53119 0 0 1 1853.8324,995.05068"
       sodipodi:open="true"
       transform="matrix(0.97185746,0.23556969,-0.14949497,0.98876249,0,0)" />
    <path
       style="fill:url(#linearGradient22);fill-opacity:1;stroke:none;stroke-width:0.311991"
       d="m 1255.4044,1373.9967 c 0,0 303.8539,344.3609 379.631,236.4214 75.7765,-107.9396 167.0203,-556.0224 160.8126,-763.52608 -5.7979,-193.81952 -92.3663,-666.27161 -92.3663,-666.27161 0,0 67.0127,605.5584 -60.9021,795.18044 -33.9183,50.28065 -217.9825,241.90685 -359.0267,186.12555 -279.2833,-110.4517 -43.6819,408.2432 488.3875,-20.4478"
       id="path12-2"
       sodipodi:nodetypes="csscssc" />
    <path
       style="fill:#008080;fill-opacity:0.988417;stroke:none;stroke-width:0.280694"
       d="M 1565.1831,767.11786 Z"
       id="path13-3"
       inkscape:transform-center-x="-244.34469"
       inkscape:transform-center-y="365.63563" />
    <rect
       style="fill:url(#linearGradient43);fill-opacity:0.988417;stroke:none;stroke-width:0.233002"
       id="rect13"
       width="930.13818"
       height="104.68095"
       x="803.83722"
       y="161.49625"
       transform="matrix(0.99990343,0.0138973,-0.07369147,0.99728109,0,0)"
       ry="16.646132"
       inkscape:highlight-color="#658ac4"
       inkscape:transform-center-x="102.89867"
       inkscape:transform-center-y="-91.630411" />
    <path
       style="fill:url(#linearGradient45);fill-opacity:0.988417;stroke:none;stroke-width:0.251796"
       d="m 803.51712,172.37222 57.31864,0.30911 52.37627,0.3964 106.91937,2.79527 38.6591,-0.0752 83.8712,1.04689 36.6599,-0.11121 56.3875,-0.74841 92.6837,3.23512 58.8882,1.26649 56.7033,-0.95096 124.3075,0.67749 78.3959,1.85205 43.7082,1.4802 25.5063,6.94376 -4.8081,1.05496 -123.7766,7.40319 -49.4499,-2.29422 -62.1429,-2.97934 -68.2408,-4.52323 -69.0603,1.72823 -74.9145,-3.48947 -69.0949,1.20565 -68.1557,-3.32039 -28.6756,2.02411 -62.5042,0.951 -51.12235,-5.28021 -93.57251,1.12738 -96.41949,-7.14076 z"
       id="path14"
       sodipodi:nodetypes="cccccccccccccccccccccccccccccc"
       inkscape:transform-center-x="100.62126"
       inkscape:transform-center-y="-127.38286" />
    <path
       style="fill:url(#linearGradient37);fill-opacity:0.988417;stroke:none;stroke-width:0.245752"
       d="m 638.12168,1715.1462 108.89384,-126.3359 68.68666,-154.8365 15.0925,-41.4156 20.71824,-55.0239 18.52415,-61.0766 14.12405,-42.2219 16.31029,-74.1193 8.45953,-34.9947 22.53928,-103.5638 16.35807,-99.84697 3.54128,-84.37092 -2.00616,-23.97466 -7.97117,-59.46498 -0.86629,-64.64961 13.8976,64.1169 7.15999,62.01407 2.58989,42.18269 6.76567,72.06745 -10.60915,77.12973 -15.57234,91.2905 -23.95581,83.3094 -32.04276,98.2871 -26.66509,80.0348 -55.03264,125.0065 -41.15841,92.5069 -23.65684,46.7155 -16.43697,11.6792 -97.60263,-29.8852 z"
       id="path14-8"
       sodipodi:nodetypes="cccccccccccccccccccccccccccccc" />
    <path
       style="fill:url(#linearGradient33);fill-opacity:0.988417;stroke:none;stroke-width:0.69438"
       id="path15"
       sodipodi:type="arc"
       sodipodi:cx="623.62231"
       sodipodi:cy="1387.4353"
       sodipodi:rx="335.74777"
       sodipodi:ry="316.18533"
       sodipodi:start="5.971377"
       sodipodi:end="5.9677361"
       sodipodi:arc-type="slice"
       d="m 943.18045,1290.4359 a 335.74777,316.18533 0 0 1 -216.26652,397.85 335.74777,316.18533 0 0 1 -422.66172,-203.3035 335.74777,316.18533 0 0 1 215.4971,-398.2201 335.74777,316.18533 0 0 1 423.05401,202.5785 l -319.18101,98.0945 z"
       transform="matrix(0.98654266,0.16350408,-0.13459894,0.99090016,0,0)" />
    <path
       style="fill:url(#linearGradient35);fill-opacity:0.988417;stroke:none;stroke-width:0.690568"
       id="path15-2"
       sodipodi:type="arc"
       sodipodi:cx="1536.4731"
       sodipodi:cy="1088.3663"
       sodipodi:rx="301.03345"
       sodipodi:ry="334.75812"
       sodipodi:start="0"
       sodipodi:end="5.9289759"
       sodipodi:open="true"
       sodipodi:arc-type="arc"
       d="m 1837.5066,1088.3663 a 301.03345,334.75812 0 0 1 -274.4111,333.4465 301.03345,334.75812 0 0 1 -322.947,-274.4687 301.03345,334.75812 0 0 1 217.2903,-381.99264 301.03345,334.75812 0 0 1 361.3799,206.90437"
       transform="matrix(0.97215078,0.23435626,-0.1502959,0.98864106,0,0)" />
    <path
       style="fill:#0000ff;fill-opacity:0.988417;stroke:none;stroke-width:0.0290122"
       d="m 1507.8708,1208.9765 c 0,0 -36.8006,15.3569 -40.6879,3.1408 -3.8877,-12.2157 -5.5668,-54.2538 0.7197,-71.1488 5.8677,-15.7687 26.5229,-9.2292 26.5229,-9.2292 0,0 -19.478,-8.2234 -13.1184,13.0113 1.6861,5.6303 15.5726,43.9639 29.8143,45.4509 28.2006,2.9444 -9.5669,34.8604 -45.8482,-23.6594"
       id="path12-2-7-7"
       sodipodi:nodetypes="csscssc" />
    <path
       style="fill:#008080;fill-opacity:0.988417;stroke:none;stroke-width:0.0290122"
       d="M 1470.3633,1127.2497 Z"
       id="path13-3-8-56" />
    <path
       style="fill:#008080;fill-opacity:0.988417;stroke:none;stroke-width:0.02201"
       d="M 1486.7721,1164.5219 Z"
       id="path13-3-8-9" />
    <path
       style="fill:#0000ff;fill-opacity:0.988417;stroke:none;stroke-width:0.0218795"
       d="m 1447.1054,1189.0606 -4.0017,0.1277 11.2527,0.3902 -11.1318,-0.1548 8.5974,-0.1059 1.0553,-0.7479 3.7586,-2.1956 3.2088,-3.2914 3.9924,-2.0859 2.5311,-3.3567 4.0391,-0.9711 0.6027,-2.8328 2.2134,-1.7179 3.1867,-3.0675 0.6886,-2.4631 -1.2696,4.8176 -2.8772,3.0644 0.185,2.5393 -4.769,1.3853 -1.3432,2.0615 -2.5617,2.3808 -4.4514,2.0378 -2.1537,3.1833 -5.3822,1.3408 -0.599,0.055 -0.5711,0.2089 -2.61,-0.555 -4.0138,-0.1699 1.9249,0.4847 z"
       id="path14-1-7-2"
       sodipodi:nodetypes="cccccccccccccccccccccccccccccc" />
    <path
       style="fill:#0000ff;fill-opacity:0.988417;stroke:none;stroke-width:0.0223662"
       id="path15-2-7-4"
       sodipodi:type="arc"
       sodipodi:cx="907.14398"
       sodipodi:cy="1612.5874"
       sodipodi:rx="11.952326"
       sodipodi:ry="8.8439274"
       sodipodi:start="6.2587151"
       sodipodi:end="5.6946124"
       sodipodi:open="true"
       sodipodi:arc-type="arc"
       d="m 919.09273,1612.371 a 11.952326,8.8439274 0 0 1 -9.9797,8.9395 11.952326,8.8439274 0 0 1 -13.36426,-6.0545 11.952326,8.8439274 0 0 1 6.22278,-10.6415 11.952326,8.8439274 0 0 1 15.11359,3.063"
       transform="matrix(0.94372382,-0.33073457,0.36213435,0.93212591,0,0)" />
    <path
       style="fill:#008080;fill-opacity:0.988417;stroke:none;stroke-width:0.039752"
       d="M 1399.5753,916.10889 Z"
       id="path13-3-8-9-2" />
    <path
       style="fill:url(#linearGradient86);fill-opacity:0.988417;stroke:none;stroke-width:0.249154"
       d="m 1514.5476,1730.9451 81.8588,-97.5601 100.1221,-180.8554 19.2153,-83.2104 6.7034,-28.1174 15.5442,-74.0032 14.1057,-45.3955 4.8205,-71.2561 8.3117,-57.6862 10.5457,-95.10885 12.3803,-85.97058 -3.3802,-76.56613 -1.2904,-39.29067 -1.8448,-40.06503 2.923,-53.11421 8.27,75.91166 3.8002,64.69333 0.8813,56.48864 -2.1817,45.79186 -7.0403,75.52108 -12.0447,88.9418 -10.761,70.2806 -18.7506,94.3257 -19.7103,86.5741 -18.3568,71.1645 -55.0047,146.1702 -33.876,65.1818 -16.5596,10.9442 -96.3537,-37.5694 z"
       id="path14-8-3"
       sodipodi:nodetypes="cccccccccccccccccccccccccccccc" />
    <rect
       style="fill:url(#linearGradient87);fill-opacity:0.988417;stroke:none;stroke-width:0.123155"
       id="rect13-5"
       width="470.42987"
       height="57.824928"
       x="853.12939"
       y="287.49521"
       transform="matrix(0.9998847,0.01518526,-0.06746969,0.99772132,0,0)"
       ry="9.1951923"
       inkscape:highlight-color="#658ac4"
       inkscape:transform-center-x="52.041357"
       inkscape:transform-center-y="-50.638325" />
    <path
       style="fill:url(#linearGradient88);fill-opacity:0.988417;stroke:none;stroke-width:0.133119"
       d="m 856.1567,300.74073 27.40266,-1.33672 19.51732,0.53776 45.95729,1.19273 18.53704,0.7496 43.48249,0.46204 18.541,-0.0615 28.5184,-0.41365 46.8749,1.78783 40.401,0.62858 18.0601,-0.45423 63.7021,1.75064 35.2688,-0.5113 23.2143,0.35763 11.6387,1.67778 -21.752,4.06814 -30.2724,-0.91783 -29.7326,-1.60708 -42.9007,-0.24611 -39.0134,0.0193 -23.3766,-0.35186 -38.3712,0.23868 -39.7786,-0.47661 -33.27403,-2.05503 -13.10777,0.52345 -29.27826,-0.79485 -30.61348,-1.44417 -29.75458,-0.42603 -61.48149,-2.59678 z"
       id="path14-7"
       sodipodi:nodetypes="cccccccccccccccccccccccccccccc"
       inkscape:transform-center-x="50.889663"
       inkscape:transform-center-y="-70.396428" />
    <path
       style="fill:url(#linearGradient90);fill-opacity:0.988417;stroke:none;stroke-width:0.321165"
       id="path88"
       sodipodi:type="arc"
       sodipodi:cx="1826.8352"
       sodipodi:cy="1514.9958"
       sodipodi:rx="54.137207"
       sodipodi:ry="66.506271"
       sodipodi:start="0"
       sodipodi:end="5.9289759"
       sodipodi:open="true"
       sodipodi:arc-type="arc"
       d="m 1880.9724,1514.9958 a 54.137207,66.506271 0 0 1 -49.3495,66.2457 54.137207,66.506271 0 0 1 -58.0781,-54.5286 54.137207,66.506271 0 0 1 39.077,-75.8903 54.137207,66.506271 0 0 1 64.9898,41.1056" />
    <path
       style="fill:url(#linearGradient95);fill-opacity:0.988417;stroke:none;stroke-width:0.091428"
       d="m 266.23529,1275.4781 c 4.45242,-17.5565 103.14811,107.4246 15.44056,85.5329 -40.78191,-10.1786 -70.11864,-40.7583 -72.55398,-67.3712 -2.91615,-31.8694 14.34184,-35.9095 21.55277,-42.0391 13.4916,-11.4702 19.57985,-12.7736 57.11414,-30.7437 31.68762,-15.1705 12.12571,-3.2336 36.77067,-15.2801 28.16448,-13.767 -17.02667,15.7876 -24.48106,22.6256 -31.43049,28.8336 -39.6895,70.3281 -33.8431,47.2756 z"
       id="path93"
       sodipodi:nodetypes="ssssssss" />
    <path
       style="fill:#1c1cff;fill-opacity:0.988417;stroke:none;stroke-width:0.0797726"
       d="m 1180.0402,1271.2588 c 55.9158,-36.3647 89.4181,37.1018 1.4022,57.7504 -40.9256,9.6016 -65.3248,-2.3176 -62.1328,-22.794 3.8224,-24.5218 22.9496,-35.3415 31.9045,-43.4582 16.7548,-15.1866 23.4759,-18.9046 67.0667,-49.871 36.8008,-26.1424 13.5251,-7.9222 42.2007,-28.455 32.7705,-23.4649 -21.4291,20.2277 -30.7948,29.0246 -39.4897,37.0892 -76.9421,75.5544 -49.6465,57.8032 z"
       id="path93-5"
       sodipodi:nodetypes="ssssssss" />
  </g>
</svg>
