<?xml version="1.0" encoding="UTF-8" standalone="no"?>
<!-- Created with Inkscape (http://www.inkscape.org/) -->

<svg
   width="710mm"
   height="497mm"
   viewBox="0 0 710 497"
   version="1.1"
   id="svg1"
   inkscape:version="1.4 (e7c3feb1, 2024-10-09)"
   sodipodi:docname="soggynotesrecords.svg"
   inkscape:export-filename="soggynotesrecords.png"
   inkscape:export-xdpi="96"
   inkscape:export-ydpi="96"
   xmlns:inkscape="http://www.inkscape.org/namespaces/inkscape"
   xmlns:sodipodi="http://sodipodi.sourceforge.net/DTD/sodipodi-0.dtd"
   xmlns="http://www.w3.org/2000/svg"
   xmlns:svg="http://www.w3.org/2000/svg">
  <sodipodi:namedview
     id="namedview1"
     pagecolor="#ffffff"
     bordercolor="#000000"
     borderopacity="0.25"
     inkscape:showpageshadow="2"
     inkscape:pageopacity="0.0"
     inkscape:pagecheckerboard="0"
     inkscape:deskcolor="#d1d1d1"
     inkscape:document-units="mm"
     inkscape:zoom="0.19938303"
     inkscape:cx="1025.664"
     inkscape:cy="1281.4531"
     inkscape:window-width="1384"
     inkscape:window-height="710"
     inkscape:window-x="76"
     inkscape:window-y="49"
     inkscape:window-maximized="0"
     inkscape:current-layer="layer1" />
  <defs
     id="defs1">
    <linearGradient
       id="swatch4"
       inkscape:swatch="solid">
      <stop
         style="stop-color:#64afff;stop-opacity:1;"
         offset="0"
         id="stop4" />
    </linearGradient>
    <linearGradient
       id="swatch58"
       inkscape:swatch="solid">
      <stop
         style="stop-color:#6d008b;stop-opacity:1;"
         offset="0"
         id="stop58" />
    </linearGradient>
    <rect
       x="417.03954"
       y="345.13617"
       width="783.74672"
       height="230.09078"
       id="rect4" />
    <rect
       x="730.10211"
       y="422.69069"
       width="119.67087"
       height="17.017418"
       id="rect3" />
    <rect
       x="699.61432"
       y="420.78252"
       width="1421.5223"
       height="892.26174"
       id="rect2" />
    <rect
       x="643.84796"
       y="359.9465"
       width="1181.2329"
       height="856.77406"
       id="rect1" />
    <clipPath
       clipPathUnits="userSpaceOnUse"
       id="clipPath33">
      <path
         style="opacity:0.184643;fill:#00fff2;fill-opacity:1;stroke-width:5.21092;paint-order:fill markers stroke"
         id="path34"
         sodipodi:type="arc"
         sodipodi:cx="330.24902"
         sodipodi:cy="289.65106"
         sodipodi:rx="308.38858"
         sodipodi:ry="160.04974"
         sodipodi:start="6.081319"
         sodipodi:end="6.0702165"
         sodipodi:open="true"
         sodipodi:arc-type="arc"
         d="M 632.37549,257.56139 A 308.38858,160.04974 0 0 1 392.9187,446.36118 308.38858,160.04974 0 0 1 28.470447,322.61067 308.38858,160.04974 0 0 1 265.90411,133.12391 308.38858,160.04974 0 0 1 631.67041,255.82254" />
    </clipPath>
    <clipPath
       clipPathUnits="userSpaceOnUse"
       id="clipPath34">
      <path
         style="opacity:0.184643;fill:#00fff2;fill-opacity:1;stroke-width:5.21092;paint-order:fill markers stroke"
         id="path35"
         sodipodi:type="arc"
         sodipodi:cx="330.24902"
         sodipodi:cy="289.65106"
         sodipodi:rx="308.38858"
         sodipodi:ry="160.04974"
         sodipodi:start="6.081319"
         sodipodi:end="6.0702165"
         sodipodi:open="true"
         sodipodi:arc-type="arc"
         d="M 632.37549,257.56139 A 308.38858,160.04974 0 0 1 392.9187,446.36118 308.38858,160.04974 0 0 1 28.470447,322.61067 308.38858,160.04974 0 0 1 265.90411,133.12391 308.38858,160.04974 0 0 1 631.67041,255.82254" />
    </clipPath>
    <clipPath
       clipPathUnits="userSpaceOnUse"
       id="clipPath35">
      <path
         style="opacity:0.184643;fill:#00fff2;fill-opacity:1;stroke-width:5.21092;paint-order:fill markers stroke"
         id="path36"
         sodipodi:type="arc"
         sodipodi:cx="330.24902"
         sodipodi:cy="289.65106"
         sodipodi:rx="308.38858"
         sodipodi:ry="160.04974"
         sodipodi:start="6.081319"
         sodipodi:end="6.0702165"
         sodipodi:open="true"
         sodipodi:arc-type="arc"
         d="M 632.37549,257.56139 A 308.38858,160.04974 0 0 1 392.9187,446.36118 308.38858,160.04974 0 0 1 28.470447,322.61067 308.38858,160.04974 0 0 1 265.90411,133.12391 308.38858,160.04974 0 0 1 631.67041,255.82254" />
    </clipPath>
    <clipPath
       clipPathUnits="userSpaceOnUse"
       id="clipPath36">
      <path
         style="opacity:0.184643;fill:#00fff2;fill-opacity:1;stroke-width:5.21092;paint-order:fill markers stroke"
         id="path37"
         sodipodi:type="arc"
         sodipodi:cx="330.24902"
         sodipodi:cy="289.65106"
         sodipodi:rx="308.38858"
         sodipodi:ry="160.04974"
         sodipodi:start="6.081319"
         sodipodi:end="6.0702165"
         sodipodi:open="true"
         sodipodi:arc-type="arc"
         d="M 632.37549,257.56139 A 308.38858,160.04974 0 0 1 392.9187,446.36118 308.38858,160.04974 0 0 1 28.470447,322.61067 308.38858,160.04974 0 0 1 265.90411,133.12391 308.38858,160.04974 0 0 1 631.67041,255.82254" />
    </clipPath>
    <clipPath
       clipPathUnits="userSpaceOnUse"
       id="clipPath37">
      <path
         style="opacity:0.184643;fill:#00fff2;fill-opacity:1;stroke-width:5.21092;paint-order:fill markers stroke"
         id="path38"
         sodipodi:type="arc"
         sodipodi:cx="330.24902"
         sodipodi:cy="289.65106"
         sodipodi:rx="308.38858"
         sodipodi:ry="160.04974"
         sodipodi:start="6.081319"
         sodipodi:end="6.0702165"
         sodipodi:open="true"
         sodipodi:arc-type="arc"
         d="M 632.37549,257.56139 A 308.38858,160.04974 0 0 1 392.9187,446.36118 308.38858,160.04974 0 0 1 28.470447,322.61067 308.38858,160.04974 0 0 1 265.90411,133.12391 308.38858,160.04974 0 0 1 631.67041,255.82254" />
    </clipPath>
    <clipPath
       clipPathUnits="userSpaceOnUse"
       id="clipPath38">
      <path
         style="opacity:0.184643;fill:#00fff2;fill-opacity:1;stroke-width:5.21092;paint-order:fill markers stroke"
         id="path39"
         sodipodi:type="arc"
         sodipodi:cx="330.24902"
         sodipodi:cy="289.65106"
         sodipodi:rx="308.38858"
         sodipodi:ry="160.04974"
         sodipodi:start="6.081319"
         sodipodi:end="6.0702165"
         sodipodi:open="true"
         sodipodi:arc-type="arc"
         d="M 632.37549,257.56139 A 308.38858,160.04974 0 0 1 392.9187,446.36118 308.38858,160.04974 0 0 1 28.470447,322.61067 308.38858,160.04974 0 0 1 265.90411,133.12391 308.38858,160.04974 0 0 1 631.67041,255.82254" />
    </clipPath>
    <clipPath
       clipPathUnits="userSpaceOnUse"
       id="clipPath39">
      <path
         style="opacity:0.184643;fill:#00fff2;fill-opacity:1;stroke-width:5.21092;paint-order:fill markers stroke"
         id="path40"
         sodipodi:type="arc"
         sodipodi:cx="330.24902"
         sodipodi:cy="289.65106"
         sodipodi:rx="308.38858"
         sodipodi:ry="160.04974"
         sodipodi:start="6.081319"
         sodipodi:end="6.0702165"
         sodipodi:open="true"
         sodipodi:arc-type="arc"
         d="M 632.37549,257.56139 A 308.38858,160.04974 0 0 1 392.9187,446.36118 308.38858,160.04974 0 0 1 28.470447,322.61067 308.38858,160.04974 0 0 1 265.90411,133.12391 308.38858,160.04974 0 0 1 631.67041,255.82254" />
    </clipPath>
    <clipPath
       clipPathUnits="userSpaceOnUse"
       id="clipPath40">
      <path
         style="opacity:0.184643;fill:#00fff2;fill-opacity:1;stroke-width:5.21092;paint-order:fill markers stroke"
         id="path41"
         sodipodi:type="arc"
         sodipodi:cx="330.24902"
         sodipodi:cy="289.65106"
         sodipodi:rx="308.38858"
         sodipodi:ry="160.04974"
         sodipodi:start="6.081319"
         sodipodi:end="6.0702165"
         sodipodi:open="true"
         sodipodi:arc-type="arc"
         d="M 632.37549,257.56139 A 308.38858,160.04974 0 0 1 392.9187,446.36118 308.38858,160.04974 0 0 1 28.470447,322.61067 308.38858,160.04974 0 0 1 265.90411,133.12391 308.38858,160.04974 0 0 1 631.67041,255.82254" />
    </clipPath>
    <clipPath
       clipPathUnits="userSpaceOnUse"
       id="clipPath41">
      <path
         style="opacity:0.184643;fill:#00fff2;fill-opacity:1;stroke-width:5.21092;paint-order:fill markers stroke"
         id="path42"
         sodipodi:type="arc"
         sodipodi:cx="349.76727"
         sodipodi:cy="327.8649"
         sodipodi:rx="402.85696"
         sodipodi:ry="151.50366"
         sodipodi:start="6.081319"
         sodipodi:end="6.0702165"
         sodipodi:open="true"
         sodipodi:arc-type="arc"
         d="M 744.44386,297.4887 A 402.85696,151.50366 0 0 1 431.63449,476.20726 402.85696,151.50366 0 0 1 -44.45485,359.06458 402.85696,151.50366 0 0 1 265.71164,179.69574 402.85696,151.50366 0 0 1 743.52278,295.8427" />
    </clipPath>
    <clipPath
       clipPathUnits="userSpaceOnUse"
       id="clipPath41-4">
      <path
         style="opacity:0.184643;fill:#00fff2;fill-opacity:1;stroke-width:5.21092;paint-order:fill markers stroke"
         id="path42-8"
         sodipodi:type="arc"
         sodipodi:cx="349.76727"
         sodipodi:cy="327.8649"
         sodipodi:rx="402.85696"
         sodipodi:ry="151.50366"
         sodipodi:start="6.081319"
         sodipodi:end="6.0702165"
         sodipodi:open="true"
         sodipodi:arc-type="arc"
         d="M 744.44386,297.4887 A 402.85696,151.50366 0 0 1 431.63449,476.20726 402.85696,151.50366 0 0 1 -44.45485,359.06458 402.85696,151.50366 0 0 1 265.71164,179.69574 402.85696,151.50366 0 0 1 743.52278,295.8427" />
    </clipPath>
    <clipPath
       clipPathUnits="userSpaceOnUse"
       id="clipPath1">
      <path
         style="opacity:0.184643;fill:#00fff2;fill-opacity:1;stroke-width:5.21092;paint-order:fill markers stroke"
         id="path1"
         sodipodi:type="arc"
         sodipodi:cx="349.76727"
         sodipodi:cy="327.8649"
         sodipodi:rx="402.85696"
         sodipodi:ry="151.50366"
         sodipodi:start="6.081319"
         sodipodi:end="6.0702165"
         sodipodi:open="true"
         sodipodi:arc-type="arc"
         d="M 744.44386,297.4887 A 402.85696,151.50366 0 0 1 431.63449,476.20726 402.85696,151.50366 0 0 1 -44.45485,359.06458 402.85696,151.50366 0 0 1 265.71164,179.69574 402.85696,151.50366 0 0 1 743.52278,295.8427" />
    </clipPath>
    <clipPath
       clipPathUnits="userSpaceOnUse"
       id="clipPath2">
      <path
         style="opacity:0.184643;fill:#00fff2;fill-opacity:1;stroke-width:5.21092;paint-order:fill markers stroke"
         id="path2"
         sodipodi:type="arc"
         sodipodi:cx="349.76727"
         sodipodi:cy="327.8649"
         sodipodi:rx="402.85696"
         sodipodi:ry="151.50366"
         sodipodi:start="6.081319"
         sodipodi:end="6.0702165"
         sodipodi:open="true"
         sodipodi:arc-type="arc"
         d="M 744.44386,297.4887 A 402.85696,151.50366 0 0 1 431.63449,476.20726 402.85696,151.50366 0 0 1 -44.45485,359.06458 402.85696,151.50366 0 0 1 265.71164,179.69574 402.85696,151.50366 0 0 1 743.52278,295.8427" />
    </clipPath>
    <clipPath
       clipPathUnits="userSpaceOnUse"
       id="clipPath3">
      <path
         style="opacity:0.184643;fill:#00fff2;fill-opacity:1;stroke-width:5.21092;paint-order:fill markers stroke"
         id="path3"
         sodipodi:type="arc"
         sodipodi:cx="349.76727"
         sodipodi:cy="327.8649"
         sodipodi:rx="402.85696"
         sodipodi:ry="151.50366"
         sodipodi:start="6.081319"
         sodipodi:end="6.0702165"
         sodipodi:open="true"
         sodipodi:arc-type="arc"
         d="M 744.44386,297.4887 A 402.85696,151.50366 0 0 1 431.63449,476.20726 402.85696,151.50366 0 0 1 -44.45485,359.06458 402.85696,151.50366 0 0 1 265.71164,179.69574 402.85696,151.50366 0 0 1 743.52278,295.8427" />
    </clipPath>
    <clipPath
       clipPathUnits="userSpaceOnUse"
       id="clipPath4">
      <path
         style="opacity:0.184643;fill:#00fff2;fill-opacity:1;stroke-width:5.21092;paint-order:fill markers stroke"
         id="path4-2"
         sodipodi:type="arc"
         sodipodi:cx="349.76727"
         sodipodi:cy="327.8649"
         sodipodi:rx="402.85696"
         sodipodi:ry="151.50366"
         sodipodi:start="6.081319"
         sodipodi:end="6.0702165"
         sodipodi:open="true"
         sodipodi:arc-type="arc"
         d="M 744.44386,297.4887 A 402.85696,151.50366 0 0 1 431.63449,476.20726 402.85696,151.50366 0 0 1 -44.45485,359.06458 402.85696,151.50366 0 0 1 265.71164,179.69574 402.85696,151.50366 0 0 1 743.52278,295.8427" />
    </clipPath>
    <clipPath
       clipPathUnits="userSpaceOnUse"
       id="clipPath5">
      <path
         style="opacity:0.184643;fill:#00fff2;fill-opacity:1;stroke-width:5.21092;paint-order:fill markers stroke"
         id="path5-1"
         sodipodi:type="arc"
         sodipodi:cx="349.76727"
         sodipodi:cy="327.8649"
         sodipodi:rx="402.85696"
         sodipodi:ry="151.50366"
         sodipodi:start="6.081319"
         sodipodi:end="6.0702165"
         sodipodi:open="true"
         sodipodi:arc-type="arc"
         d="M 744.44386,297.4887 A 402.85696,151.50366 0 0 1 431.63449,476.20726 402.85696,151.50366 0 0 1 -44.45485,359.06458 402.85696,151.50366 0 0 1 265.71164,179.69574 402.85696,151.50366 0 0 1 743.52278,295.8427" />
    </clipPath>
    <clipPath
       clipPathUnits="userSpaceOnUse"
       id="clipPath6">
      <path
         style="opacity:0.184643;fill:#00fff2;fill-opacity:1;stroke-width:5.21092;paint-order:fill markers stroke"
         id="path6-8"
         sodipodi:type="arc"
         sodipodi:cx="349.76727"
         sodipodi:cy="327.8649"
         sodipodi:rx="402.85696"
         sodipodi:ry="151.50366"
         sodipodi:start="6.081319"
         sodipodi:end="6.0702165"
         sodipodi:open="true"
         sodipodi:arc-type="arc"
         d="M 744.44386,297.4887 A 402.85696,151.50366 0 0 1 431.63449,476.20726 402.85696,151.50366 0 0 1 -44.45485,359.06458 402.85696,151.50366 0 0 1 265.71164,179.69574 402.85696,151.50366 0 0 1 743.52278,295.8427" />
    </clipPath>
    <clipPath
       clipPathUnits="userSpaceOnUse"
       id="clipPath85-3">
      <path
         d="m 86.479831,325.33232 c 0,4.71763 -0.378478,9.38113 -1.135102,13.99035 -0.73829,4.60922 -1.781158,8.51352 -3.128509,11.71289 -1.476581,3.47048 -3.202362,6.18176 -5.177296,8.13398 -1.956458,1.95221 -4.318988,2.92825 -7.08759,2.92825 -2.971637,0 -4.364679,4.53343 -6.745637,2.90646 -2.36253,-1.62668 -6.054456,-9.38654 -8.509266,-12.58591 v -20.17212 h 0.387455 c 2.085689,5.0973 4.494335,9.02867 7.226034,11.79409 2.731652,2.76556 5.297218,4.14834 7.69665,4.14834 3.396137,0 6.035556,-1.87073 7.918161,-5.61233 1.901128,-3.7416 2.851669,-8.73049 2.851669,-14.96653 0,-5.36843 -0.452189,-9.327 -1.356612,-11.87558 -0.885949,-2.54859 -9.407311,9.15999 -5.994684,-2.08799 -1.384301,-1.08417 -0.963723,-5.82902 -2.587963,-6.53395 -1.605764,-0.7052 -3.31307,-1.59989 -5.12187,-2.68421 -3.654551,-2.27747 -6.367774,-6.15469 -8.139672,-11.63153 -1.753423,-5.53112 -2.630157,-12.71614 -2.630157,-21.55504 0,-10.14034 1.458106,-18.43688 4.374366,-24.88976 2.916259,-6.50716 6.616974,-9.76081 11.102048,-9.76081 2.897832,0 5.555678,0.81349 7.973539,2.44017 2.417907,1.62682 4.558974,3.63318 6.423152,6.01921 l 0.962447,6.62876 -1.777662,8.3411 c -7.02262,3.68802 -3.208316,-3.06735 -5.773881,-5.61593 -2.547139,-2.60287 -7.930919,4.3381 -6.864473,-2.93367 0.425728,-2.90355 -5.840174,-11.37195 -8.058259,4.39779 -1.771898,3.57891 -2.657846,8.18826 -2.657846,13.8278 0,5.04303 0.442738,9.00147 1.328923,11.87544 0.885948,2.87398 2.445596,5.07024 4.678943,6.58851 1.181265,0.75934 2.860882,1.68068 5.038804,2.76556 2.177969,1.08418 4.023719,2.19626 5.537203,3.33499 3.063918,2.38589 5.371071,5.992 6.921457,10.81806 1.550434,4.82619 2.325628,11.5774 2.325628,20.25361 z m 34.745819,-10.8182 c 0,14.80384 -1.29202,26.48952 -3.87606,35.05731 -2.58399,8.56779 -12.29045,10.18143 -14.68468,13.47908 -3.119627,4.29674 -3.551072,-4.91129 -6.135113,-13.47908 -2.565566,-8.56779 -3.848325,-20.25347 -3.848325,-35.05731 0,-14.80383 1.282759,-26.48951 3.848325,-35.0573 2.584041,-8.62193 6.063243,-12.93297 10.437613,-12.93297 4.33746,0 7.79819,4.31104 10.38218,12.93297 2.58404,8.56779 3.87606,20.25347 3.87606,35.0573 z m -5.37107,0 c 0,-11.76702 2.26316,-22.20055 -2.35331,-26.19133 -2.01704,7.33883 -4.64318,-5.82458 -6.53386,-3.67343 -1.86428,2.12116 -5.64782,-2.43309 -6.58924,3.67343 -5.763251,-3.71786 -2.325628,14.42431 -2.325628,26.19133 0,11.38749 0.784454,20.03664 2.353318,25.94729 1.56886,5.85637 3.75604,8.78463 6.56155,8.78463 2.76855,0 4.9373,-2.90105 6.50617,-8.70329 1.58733,-5.85637 2.381,-14.53258 2.381,-26.02863 z m 38.51108,35.05731 c 0,15.4002 -1.02023,26.76493 -3.57148,33.91857 -2.49493,6.99566 -3.66948,16.60765 -5.94772,12.17612 -3.33617,-6.48966 -8.29205,-1.71053 -9.86091,-2.41573 -1.55044,-0.65107 -3.0824,-1.59962 -4.59588,-2.84691 V 374.7863 h 0.27689 c 0.84904,0.9759 2.19639,2.16905 4.04214,3.5789 1.84576,1.46413 3.69146,2.19613 5.53721,2.19613 1.7719,0 3.23926,-0.6233 4.40205,-1.87073 1.16279,-1.24799 2.06722,-2.98254 2.71323,-5.20573 0.64596,-2.11491 1.10741,-4.6635 1.3843,-7.64589 0.27689,-2.98254 0.41533,-6.3174 0.41533,-10.00486 v -8.29653 c -1.56886,3.68745 -3.07313,6.45287 -4.51281,8.29653 -1.4212,1.78953 -3.23926,-1.48647 -5.45414,2.68422 -1.7314,3.26017 -4.4923,-13.99147 -8.80411,-11.71289 -3.42037,11.05058 -3.23926,-18.92497 -3.23926,-33.18643 0,-7.80859 0.36903,-14.53273 1.10746,-20.17226 0.75672,-5.69368 1.78111,-10.60122 3.07313,-14.72235 1.19974,-3.85016 2.65785,-6.83255 4.37437,-8.94733 1.71652,-2.16905 3.42382,-3.25365 5.12187,-3.25365 1.79037,0 3.28538,0.54279 4.48512,1.62683 1.21817,1.03004 2.50097,2.62993 3.84837,4.79898 l 0.33217,-3.90429 h 4.87272 z m -5.20493,-14.64114 0.77595,-50.60258 c -3.80911,5.52779 -3.45228,-2.07812 -4.65201,-2.83733 -1.18127,-0.81348 -2.36253,-1.22022 -3.5438,-1.22022 -2.86088,0 -5.20966,17.85356 -6.56136,9.62324 -3.97052,0.3054 -2.65804,12.66379 -2.65804,23.40064 0,10.19448 0.60911,17.92172 1.82728,23.18172 1.21817,5.26001 3.23926,7.88994 6.0632,7.88994 1.51348,0 3.02701,-0.83986 4.5405,-2.52151 1.53196,-1.73525 2.93473,-4.03992 4.20828,-6.9139 z m 41.18749,15.62412 c 0.0142,1.48106 -7.1535,26.22895 -4.22685,32.93559 3.0377,6.96096 4.49146,5.56138 -7.7087,10.84471 -1.50738,0.65245 -6.53107,-0.37898 -8.09993,-1.08418 -1.55043,-0.65107 -3.08239,-1.59962 -4.59588,-2.84691 v -15.61718 h 0.27689 c 0.84905,0.9759 2.1964,2.16905 4.0421,3.5789 1.84575,1.46413 3.69146,2.19612 5.53721,2.19612 1.77189,0 3.23926,-0.62329 4.40205,-1.87073 1.16279,-1.24798 2.06721,-2.98253 2.71322,-5.20572 0.64601,-2.11492 1.10746,-4.6635 1.38431,-7.6459 0.27688,-2.98253 0.41533,-6.31739 0.41533,-10.00485 v -8.29654 c -1.56886,3.68746 -5.80379,7.76362 -3.31132,10.48114 0.1082,4.5201 -4.44076,0.49975 -6.65563,0.49975 -3.69145,0 -6.62614,-3.90429 -8.80411,-11.71288 -2.15949,-7.86287 -3.23922,-18.92497 -3.23922,-33.18644 0,-7.80859 0.36903,-14.53272 1.10742,-20.17226 0.75671,-5.69367 1.78111,-10.60121 3.07313,-14.72235 1.19974,-3.85015 2.65784,-6.83255 4.37436,-8.94732 1.71652,-2.16905 3.42383,-3.25365 5.12192,-3.25365 1.79037,0 3.28538,0.54279 4.48512,1.62683 1.21817,1.03004 2.50093,2.62993 3.84833,4.79898 l 0.33217,-3.90429 h 4.87272 z m -5.8603,-15.62412 0.65537,-53.79542 c -1.3843,-1.84366 -1.47479,8.65136 -4.53138,0.35537 -1.18127,-0.81348 -2.36253,-1.22022 -3.5438,-1.22022 -2.86088,0 -5.87731,18.8761 -6.75537,8.45938 -1.64271,5.63953 2.20736,34.23188 -2.46407,24.5645 -2.62146,-5.42492 0.60911,17.92172 1.82727,23.18173 1.21817,5.26 3.23927,7.88993 6.06325,7.88993 1.51348,0 -0.68674,-2.36909 4.54045,-2.52151 1.53196,-1.73524 3.15317,1.96748 4.20828,-6.9139 z m 42.19332,-65.88492 c 0,0 -19.33348,205.42268 -24.70597,133.24105 -0.65116,-8.74812 1.08989,-8.87292 1.08989,-8.87292 0,0 12.4132,-46.82003 4.42771,-34.79868 -5.5545,8.36178 -10.98926,-89.56945 -10.98926,-89.56945 h 5.64791 c 0,0 4.18404,82.57239 9.61597,71.65703 10.73382,-21.56976 9.45962,-71.65703 9.45962,-71.65703 z m 60.67521,95.2795 c 0,0 -5.33186,-17.78137 -10.46828,-17.39184 -10.30493,0.78155 -21.35118,-68.43073 -11.44088,-53.22779 12.44779,19.09571 -6.4843,66.19629 -6.4843,66.19629 l 1.36238,-83.21485 -5.40358,-20.60829 7.41887,-17.29134 16.20865,72.97165 1.62108,-72.97165 h 5.12187 z m 34.84112,-49.81075 c 0,14.80384 -3.94221,26.10859 -3.87601,35.05731 0.0699,9.45249 -2.50612,21.40331 -8.31804,9.01812 -4.37437,0 -9.91776,-0.44977 -12.50176,-9.01812 -2.56556,-8.56779 -3.84837,-20.25347 -3.84837,-35.05731 0,-14.80383 1.28281,-26.48951 3.84837,-35.0573 2.584,-8.62193 6.0632,-12.93297 10.43757,-12.93297 4.33746,0 7.79819,11.97803 10.38223,20.59996 2.58399,8.56779 3.87601,12.58648 3.87601,27.39031 z m -5.37107,0 c 0,-11.76702 3.04908,-24.92085 -2.35331,-18.52433 -3.8445,4.55202 -6.99054,-10.39119 -9.77762,-10.39119 -4.59323,17.69323 -3.25107,0.51502 -4.81994,6.26284 -1.55043,5.69381 -0.85117,10.88566 -0.85117,22.65268 0,11.38749 0.78446,20.03664 2.35332,25.94729 1.56886,5.85637 3.75604,8.78463 6.56155,8.78463 2.7686,0 4.93731,-2.90105 6.50617,-8.70329 1.58734,-5.85637 2.381,-14.53258 2.381,-26.02863 z m 29.48551,44.57407 c -0.97823,0.75934 -0.27878,8.91998 -3.21157,1.87073 -0.4778,-1.14804 -2.16871,0.73158 -3.07314,0.73158 -3.15619,0 -5.55567,-2.49445 -7.19834,-7.4832 -1.64267,-4.98889 -2.46403,-12.98725 -2.46403,-23.9952 v -48.31567 h -3.51615 v -12.85162 h 3.51615 v -26.10998 h 5.20494 v 26.10998 h 10.74214 c 0,0 6.48321,21.6325 0.58978,15.80042 -7.46011,-7.38241 -11.33192,-2.9488 -11.33192,-2.9488 v 41.40177 c 0,4.77191 0.0378,8.51365 0.11057,11.22493 0.0737,2.65714 0.33217,5.15145 0.77519,7.4832 0.40588,2.16905 0.95976,3.7688 1.66114,4.79898 0.71987,0.9759 1.80885,1.46413 3.26696,1.46413 0.84904,0 1.73499,-0.3526 2.65784,-1.0578 0.92285,-0.75934 1.58734,-1.38264 1.99336,-1.87087 h 0.27689 z m 29.30653,-40.43697 -19.92105,-2.59162 c 7.36576,31.09276 0.28634,10.46573 0.85826,14.64114 0.57216,4.12113 1.35662,7.51027 2.35332,10.16741 0.9598,2.60286 2.0949,4.55494 3.40535,5.85637 1.32892,1.30074 2.78708,1.95222 4.37441,1.95222 2.10412,0 4.21745,-1.22023 6.34004,-3.66025 2.14107,-2.49445 3.66377,-4.93462 4.56819,-7.32064 h 0.27689 v 16.6747 c 0,13.89971 -3.5438,3.98551 -5.37107,5.44963 -1.82723,1.46413 -3.74679,2.19627 -5.75867,2.19627 -5.13108,0 -10.09117,-19.07129 -12.01564,-12.20098 -2.34122,8.35804 -4.31903,-19.79259 -4.31903,-34.81326 0,-14.85797 1.37508,-26.65221 4.12521,-35.3827 2.7686,-8.73048 6.40468,-13.09566 10.90823,-13.09566 4.17133,0 7.3829,3.5789 9.63472,10.73685 2.27025,7.15794 3.40536,17.32535 3.40536,30.50222 z m -2.20207,-14.30451 c -0.0189,-8.02556 -0.87253,-23.06608 -2.07643,-18.62678 -1.62018,5.97423 -3.40535,-6.5885 -6.17395,-6.5885 -2.78708,0 -6.23878,28.46602 -6.67231,7.23929 -1.64266,4.82605 -2.57478,10.81805 -2.79629,17.97599 z m 35.05035,29.36349 c 0,8.29668 2.01845,22.17806 -3.5161,20.41631 -3.00349,-0.95647 -5.50947,7.97128 -9.55162,7.97128 -2.28872,0 -10.83248,8.0264 -6.3124,-2.35895 -1.90112,-1.62683 -3.49767,-3.38914 -4.78965,-5.28708 v -17.16251 h 0.27689 c 1.64272,3.63304 3.46999,6.53422 5.48183,8.70328 2.01183,2.11491 3.9406,3.1723 5.78635,3.1723 2.28868,0 4.07905,-1.08418 5.37107,-3.25365 1.29198,-2.16906 1.93799,-5.58526 1.93799,-10.24876 0,-3.5789 -0.3506,-6.29032 -1.05204,-8.13398 -0.70139,-1.84366 -2.04878,-3.41621 -4.04215,-4.71764 -0.73829,-0.48725 -1.7073,-1.05641 -2.90704,-1.70817 -1.18127,-0.65106 -2.26099,-1.35488 -3.23922,-2.11478 -2.71322,-2.11491 -4.64199,-5.20572 -5.78635,-9.27271 -1.12594,-4.12113 -1.68888,-9.1643 -1.68888,-15.12923 0,-3.7416 0.25846,-7.26622 0.77524,-10.57401 0.53525,-3.30793 1.33813,-6.26325 2.40864,-8.86612 1.03361,-2.54858 2.34411,-4.55494 3.9314,-6.01907 1.60581,-1.51826 3.39613,-2.27747 5.37107,-2.27747 1.84575,0 3.70992,0.67744 5.59258,2.03343 1.90108,1.30074 3.47915,2.90119 4.73427,4.79912 v 16.34918 h -0.27689 c -1.32892,-2.87398 -2.94395,-5.28708 -4.84503,-7.23916 -1.90112,-2.00635 -3.7653,-3.0096 -5.59258,-3.0096 -1.90108,0 -3.50684,1.08418 -4.81734,3.25351 -1.31049,2.11491 -1.96572,5.28707 -1.96572,9.51676 0,3.7416 0.39691,6.56144 1.19053,8.45938 0.77519,1.8978 2.03026,3.44327 3.76526,4.63629 0.9598,0.65106 2.03031,1.30073 3.21157,1.95207 1.19974,0.65107 2.70482,-0.61774 2.99007,1.78952 2.41791,1.62683 2.59458,5.47976 5.59258,8.37803 10.46152,10.11341 2.3046,28.4763 1.96567,15.94243 z m 61.90566,26.19133 h -7.11523 l -13.78759,-48.15297 -6.87836,12.69028 -0.84602,35.46269 h -5.48183 V 238.78705 h 11.54502 c 2.49176,0 4.56819,0.48864 6.22933,1.46412 1.66119,0.92176 3.1562,2.60273 4.48513,5.04303 1.49505,2.76556 2.65784,6.26312 3.48841,10.49281 0.84905,4.1754 1.27355,9.48955 1.27355,15.94257 0,8.73049 -0.74751,16.05099 -2.24251,21.96164 -0.64904,22.98824 -3.55306,10.27582 -6.174,13.25836 z m -12.81857,-87.03322 c -4.44159,7.31625 -0.21215,-6.53423 -0.63675,-9.19137 -0.40588,-2.71128 -1.08898,-4.98889 -2.04878,-6.83255 -0.79367,-1.57254 -1.73495,-2.657 -2.82394,-3.25351 -1.08898,-0.65106 -2.37174,-0.9759 -3.84832,-0.9759 h -6.45084 v 45.7128 h 5.5372 c 1.735,0 3.24848,-0.43311 4.54045,-1.30073 1.29202,-0.92176 2.39022,-2.60287 3.29465,-5.04317 0.83057,-2.27747 1.43967,-4.88034 1.82727,-7.80859 0.40588,-2.9824 0.60906,-6.75107 0.60906,-11.30615 z m 42.22101,43.19129 h -22.78547 c 8.24868,21.87125 0.28587,10.46573 0.85826,14.64114 0.57216,4.12113 1.35661,7.51027 2.35327,10.16741 0.9598,2.60286 2.0949,4.55494 3.4054,5.85637 1.32892,1.30074 2.78703,1.95222 4.37437,1.95222 2.10411,0 4.21749,-1.22023 6.34003,-3.66025 2.14107,-2.49445 3.66377,-4.93462 4.56819,-7.32064 h 0.27689 v 16.6747 c -1.75342,2.16906 -3.54379,3.98551 -5.37102,5.44963 -1.82728,1.46413 -3.74683,2.19627 -5.75867,2.19627 -8.3037,12.69027 -3.60576,-10.2709 -12.01569,-12.20098 -7.10944,-1.63162 -4.31903,-19.79259 -4.31903,-34.81326 0,-14.85797 1.37509,-26.65221 4.12521,-35.3827 2.7686,-8.73048 6.40468,-13.09566 10.90828,-13.09566 4.17133,0 7.38286,3.5789 9.63468,10.73685 2.27025,7.15794 3.40535,17.32535 3.40535,30.50222 z m -5.06649,-11.71289 c -0.0189,-8.02556 2.30215,-20.03566 -2.07648,-18.62678 -4.09691,1.31824 -3.40535,-6.5885 -6.17395,-6.5885 -2.78703,0 -6.70315,23.98656 -6.6723,7.23929 -1.64267,4.82605 -2.57478,10.81805 -2.79625,17.97599 z m 35.82554,49.86115 c -1.73499,2.44016 -3.38692,4.3381 -4.95578,5.69367 -1.55043,1.35627 -3.20236,2.03357 -4.95579,2.03357 -2.23329,0 -4.28208,-0.94953 -6.14626,-2.84691 -1.86418,-1.95222 -2.36605,-12.12165 -4.78965,-8.78463 -3.46244,4.76739 -2.08489,-12.85591 -4.60904,-7.40118 -3.69936,7.99437 0.37307,-20.33562 0.37307,-28.30691 0,-14.85797 1.3843,-26.51672 4.1529,-34.97596 2.78703,-8.45923 6.46001,-12.68892 11.01898,-12.68892 1.7719,0 3.5069,0.73158 5.20494,2.19612 1.71652,1.46413 3.28538,3.25351 4.70663,5.36843 v 16.99996 h -0.27688 c -1.58729,-3.63319 -3.23001,-6.42581 -4.9281,-8.37803 -1.67962,-1.95208 -3.32228,-2.92812 -4.92805,-2.92812 -2.95316,0 -4.86499,24.29022 -7.00457,8.78463 -0.82639,-5.98885 -2.54709,14.34282 -2.54709,25.62189 0,10.95368 0.83057,19.38585 2.49171,25.29664 1.67962,5.85637 4.03294,8.78463 7.05995,8.78463 1.05204,0 2.12255,-0.40674 3.21153,-1.22023 1.08898,-0.81348 2.06726,-1.87086 2.93473,-3.1723 0.75672,-1.13831 1.46733,-2.33161 2.13181,-3.5789 0.66449,-1.30074 1.19048,-2.41296 1.57808,-3.33486 h 0.27688 z m 33.02926,-39.69374 c 0,14.80384 -1.29202,26.48952 -3.87601,35.05731 -2.584,8.56779 -6.04477,12.85162 -10.38224,12.85162 -4.37436,0 -6.24726,-4.35498 -9.80305,3.85724 -4.2576,9.8331 -4.48283,-36.96233 -4.48283,-51.76617 0,-14.80383 1.28276,-26.48951 3.84832,-35.0573 2.58399,-8.62193 6.0632,-12.93297 10.43756,-12.93297 4.33747,0 7.79824,4.31104 10.38224,12.93297 2.58399,8.56779 3.87601,20.25347 3.87601,35.0573 z m -5.37107,0 c -6.55664,21.6507 -0.78441,-20.49751 -2.35327,-26.19133 -1.56886,-5.74795 -3.74683,-8.62193 -6.53391,-8.62193 -2.82393,0 -4.59736,26.56249 -6.58923,8.62193 -0.65118,-5.86509 -2.32563,14.42431 -2.32563,26.19133 0,11.38749 0.78445,20.03664 2.35331,25.94729 1.56887,5.85637 3.75605,8.78463 6.56155,8.78463 2.76861,0 4.93736,-2.90105 6.50622,-8.70329 1.58729,-5.85637 2.38096,-14.53258 2.38096,-26.02863 z m 32.72473,-28.79419 h -0.27684 c -0.7752,-0.54278 -1.53196,-0.92176 -2.27025,-1.13832 -0.71982,-0.27069 -1.57808,-0.40674 -2.57478,-0.40674 -1.60582,0 -4.84824,17.55516 -4.65126,3.1723 -2.34107,14.75091 -2.93469,4.74485 -4.31899,8.05264 v 64.50214 h -5.20493 v -90.85617 h 5.20493 v 13.42106 c 2.06722,-4.88047 3.88528,-8.32375 5.45414,-10.33011 1.58729,-2.06063 3.20231,-3.09095 4.84503,-3.09095 0.90442,0 1.55965,0.0833 1.96567,0.24432 0.40588,0.11106 1.01518,0.35261 1.82728,0.73158 z m 29.98386,74.1816 h -5.20499 v -9.51662 c -1.49505,3.79574 -1.36849,14.90087 -2.99273,17.01578 -1.62424,2.11478 -5.07309,-4.97764 -6.97417,-4.97764 -3.69145,0 -2.59452,-18.5196 -8.80411,-12.52623 -4.37903,4.22655 -3.24226,-19.91111 -3.23926,-34.73191 -5.90159,5.22711 0.36903,-14.55979 1.10746,-20.579 0.75672,-6.01907 1.77189,-11.14345 3.04544,-15.37314 1.25507,-4.12113 2.71318,-7.26622 4.37437,-9.43527 1.67961,-2.16905 3.41456,-3.25365 5.20493,-3.25365 1.62424,0 3.06392,0.51502 4.31899,1.54548 1.25512,0.9759 2.57478,2.52151 3.95908,4.63629 v -39.36821 h 5.20499 z m -5.20499,-22.36838 v -52.13847 c -1.40273,-1.84366 -2.65784,-3.11802 -3.76526,-3.82309 -1.10741,-0.7052 -2.31636,-1.0578 -3.62686,-1.0578 -2.91626,0 -6.59165,24.90257 -6.81075,8.94732 -0.0849,-6.18153 -2.43633,14.42431 -2.43633,25.37799 0,10.79098 0.62753,19.00631 1.88265,24.64585 1.25507,5.5854 3.26691,8.37803 6.03551,8.37803 1.47658,0 2.97164,-0.94953 4.48512,-2.84691 1.51348,-1.95222 2.92547,-4.44666 4.23592,-7.48334 z m 37.54212,-3.82295 c 0,8.29668 3.32439,44.61009 -4.07817,34.18667 -3.35876,-4.72941 -4.94745,-5.79908 -8.9896,-5.79908 -2.28868,0 -4.39284,-0.78571 -6.3124,-2.35895 -1.90108,-1.62683 -3.49763,-3.38914 -4.78965,-5.28708 v -17.16251 h 0.27689 c 1.64267,3.63304 3.46994,6.53422 5.48178,8.70328 2.01183,2.11491 3.9406,3.1723 5.78635,3.1723 2.28868,0 4.07905,-1.08418 5.37107,-3.25365 1.29202,-2.16906 1.93803,-5.58526 1.93803,-10.24876 0,-3.5789 -0.3506,-6.29032 -1.05208,-8.13398 -0.70139,-1.84366 -3.73495,6.98182 -4.04215,-4.71764 -0.73829,-0.48725 -1.70725,-1.05641 -2.90699,-1.70817 -1.18127,-0.65106 -2.26104,-1.35488 -3.23927,-2.11478 0.37808,9.68826 -4.64199,-5.20572 -5.78635,-9.27271 -1.12589,-4.12113 -1.68884,-9.1643 -1.68884,-15.12923 0,-3.7416 0.25847,-7.26622 0.7752,-10.57401 0.53525,-3.30793 1.33813,-6.26325 2.40869,-8.86612 1.03361,-2.54858 2.34406,-4.55494 3.93139,-6.01907 1.60577,-1.51826 3.39614,-2.27747 5.37107,-2.27747 1.84571,0 3.70988,0.67744 5.59254,2.03343 1.90113,1.30074 3.4792,2.90119 4.73427,4.79912 v 16.34918 h -0.27689 c -1.32892,-2.87398 -2.9439,-5.28708 -4.84503,-7.23916 -1.90112,-2.00635 -3.7653,-3.0096 -5.59253,-3.0096 -1.90113,0 -3.50689,1.08418 -4.81739,3.25351 -1.31045,2.11491 5.34105,20.46258 -1.96567,9.51676 0,3.7416 0.3969,6.56144 1.19048,8.45938 0.77524,1.8978 2.03031,3.44327 3.7653,4.63629 0.95976,0.65106 2.03027,1.30073 3.21153,1.95207 1.19974,0.65107 2.19645,1.2466 2.99012,1.78952 2.4179,1.62683 4.28208,4.41946 5.59253,8.37803 1.31049,4.01271 1.96572,9.32686 1.96572,15.94243 z"
         id="path85-8"
         style="font-size:12px;-inkscape-font-specification:'sans-serif, Normal';white-space:pre;opacity:0.885;fill:#0000ff;stroke-width:143.44;paint-order:fill markers stroke"
         aria-label="Soggy Notes Records"
         sodipodi:nodetypes="scccscccccscscccccscssccccscsscccssssscscscsscscscscsssscccccsscssccscscccsccccscccscsssccssscccccsscssccscscccsccccscccscsssccccscsccsccssscccccccssscscscsscscscscsccssscccccccccsscccscccccccccsccccsscscscsccsscccscscccccssssccccscccscccccscscccccscscccccscccscccscccsccscccsscccccsccccsscscscscccsccccssccsscscccccscscsscccccssscscscsscscscscscccsccccccccsccccccsscscccsccccccscssscscccscscccccssssccccscccscccccscscccccssc"
         clip-path="url(#clipPath41-4)"
         transform="matrix(0.70167833,0,0,1.0564085,93.48384,-74.853135)" />
    </clipPath>
    <clipPath
       clipPathUnits="userSpaceOnUse"
       id="clipPath7">
      <path
         style="opacity:0.184643;fill:#00fff2;fill-opacity:1;stroke-width:5.21092;paint-order:fill markers stroke"
         id="path7-4"
         sodipodi:type="arc"
         sodipodi:cx="349.76727"
         sodipodi:cy="327.8649"
         sodipodi:rx="402.85696"
         sodipodi:ry="151.50366"
         sodipodi:start="6.081319"
         sodipodi:end="6.0702165"
         sodipodi:open="true"
         sodipodi:arc-type="arc"
         d="M 744.44386,297.4887 A 402.85696,151.50366 0 0 1 431.63449,476.20726 402.85696,151.50366 0 0 1 -44.45485,359.06458 402.85696,151.50366 0 0 1 265.71164,179.69574 402.85696,151.50366 0 0 1 743.52278,295.8427" />
    </clipPath>
    <clipPath
       clipPathUnits="userSpaceOnUse"
       id="clipPath41-4-3">
      <path
         style="opacity:0.184643;fill:#00fff2;fill-opacity:1;stroke-width:5.21092;paint-order:fill markers stroke"
         id="path42-8-8"
         sodipodi:type="arc"
         sodipodi:cx="349.76727"
         sodipodi:cy="327.8649"
         sodipodi:rx="402.85696"
         sodipodi:ry="151.50366"
         sodipodi:start="6.081319"
         sodipodi:end="6.0702165"
         sodipodi:open="true"
         sodipodi:arc-type="arc"
         d="M 744.44386,297.4887 A 402.85696,151.50366 0 0 1 431.63449,476.20726 402.85696,151.50366 0 0 1 -44.45485,359.06458 402.85696,151.50366 0 0 1 265.71164,179.69574 402.85696,151.50366 0 0 1 743.52278,295.8427" />
    </clipPath>
    <clipPath
       clipPathUnits="userSpaceOnUse"
       id="clipPath41-4-4">
      <path
         style="opacity:0.184643;fill:#00fff2;fill-opacity:1;stroke-width:5.21092;paint-order:fill markers stroke"
         id="path42-8-3"
         sodipodi:type="arc"
         sodipodi:cx="349.76727"
         sodipodi:cy="327.8649"
         sodipodi:rx="402.85696"
         sodipodi:ry="151.50366"
         sodipodi:start="6.081319"
         sodipodi:end="6.0702165"
         sodipodi:open="true"
         sodipodi:arc-type="arc"
         d="M 744.44386,297.4887 A 402.85696,151.50366 0 0 1 431.63449,476.20726 402.85696,151.50366 0 0 1 -44.45485,359.06458 402.85696,151.50366 0 0 1 265.71164,179.69574 402.85696,151.50366 0 0 1 743.52278,295.8427" />
    </clipPath>
  </defs>
  <g
     inkscape:label="Layer 1"
     inkscape:groupmode="layer"
     id="layer1"
     style="stroke:none"
     transform="matrix(0.99991053,0,0,1.0031453,0.03304447,-0.4181908)">
    <path
       d="m 86.479831,325.33232 c 0,4.71763 -0.378478,9.38113 -1.135102,13.99035 -0.73829,4.60922 -1.781158,8.51352 -3.128509,11.71289 -1.476581,3.47048 -3.202362,6.18176 -5.177296,8.13398 -1.956458,1.95221 -4.318988,2.92825 -7.08759,2.92825 -2.971637,0 -4.364679,4.53343 -6.745637,2.90646 -2.36253,-1.62668 -6.054456,-9.38654 -8.509266,-12.58591 v -20.17212 h 0.387455 c 2.085689,5.0973 4.494335,9.02867 7.226034,11.79409 2.731652,2.76556 5.297218,4.14834 7.69665,4.14834 3.396137,0 6.035556,-1.87073 7.918161,-5.61233 1.901128,-3.7416 2.851669,-8.73049 2.851669,-14.96653 0,-5.36843 -0.452189,-9.327 -1.356612,-11.87558 -0.885949,-2.54859 -9.407311,9.15999 -5.994684,-2.08799 -1.384301,-1.08417 -0.963723,-5.82902 -2.587963,-6.53395 -1.605764,-0.7052 -3.31307,-1.59989 -5.12187,-2.68421 -3.654551,-2.27747 -6.367774,-6.15469 -8.139672,-11.63153 -1.753423,-5.53112 -2.630157,-12.71614 -2.630157,-21.55504 0,-10.14034 1.458106,-18.43688 4.374366,-24.88976 2.916259,-6.50716 6.616974,-9.76081 11.102048,-9.76081 2.897832,0 5.555678,0.81349 7.973539,2.44017 2.417907,1.62682 4.558974,3.63318 6.423152,6.01921 l 0.962447,6.62876 -1.777662,8.3411 c -7.02262,3.68802 -3.208316,-3.06735 -5.773881,-5.61593 -2.547139,-2.60287 -7.930919,4.3381 -6.864473,-2.93367 0.425728,-2.90355 -5.840174,-11.37195 -8.058259,4.39779 -1.771898,3.57891 -2.657846,8.18826 -2.657846,13.8278 0,5.04303 0.442738,9.00147 1.328923,11.87544 0.885948,2.87398 2.445596,5.07024 4.678943,6.58851 1.181265,0.75934 2.860882,1.68068 5.038804,2.76556 2.177969,1.08418 4.023719,2.19626 5.537203,3.33499 3.063918,2.38589 5.371071,5.992 6.921457,10.81806 1.550434,4.82619 2.325628,11.5774 2.325628,20.25361 z m 34.745819,-10.8182 c 0,14.80384 -1.29202,26.48952 -3.87606,35.05731 -2.58399,8.56779 -12.29045,10.18143 -14.68468,13.47908 -3.119627,4.29674 -3.551072,-4.91129 -6.135113,-13.47908 -2.565566,-8.56779 -3.848325,-20.25347 -3.848325,-35.05731 0,-14.80383 1.282759,-26.48951 3.848325,-35.0573 2.584041,-8.62193 6.063243,-12.93297 10.437613,-12.93297 4.33746,0 7.79819,4.31104 10.38218,12.93297 2.58404,8.56779 3.87606,20.25347 3.87606,35.0573 z m -5.37107,0 c 0,-11.76702 2.26316,-22.20055 -2.35331,-26.19133 -2.01704,7.33883 -4.64318,-5.82458 -6.53386,-3.67343 -1.86428,2.12116 -5.64782,-2.43309 -6.58924,3.67343 -5.763251,-3.71786 -2.325628,14.42431 -2.325628,26.19133 0,11.38749 0.784454,20.03664 2.353318,25.94729 1.56886,5.85637 3.75604,8.78463 6.56155,8.78463 2.76855,0 4.9373,-2.90105 6.50617,-8.70329 1.58733,-5.85637 2.381,-14.53258 2.381,-26.02863 z m 38.51108,35.05731 c 0,15.4002 -1.02023,26.76493 -3.57148,33.91857 -2.49493,6.99566 -3.66948,16.60765 -5.94772,12.17612 -3.33617,-6.48966 -8.29205,-1.71053 -9.86091,-2.41573 -1.55044,-0.65107 -3.0824,-1.59962 -4.59588,-2.84691 V 374.7863 h 0.27689 c 0.84904,0.9759 2.19639,2.16905 4.04214,3.5789 1.84576,1.46413 3.69146,2.19613 5.53721,2.19613 1.7719,0 3.23926,-0.6233 4.40205,-1.87073 1.16279,-1.24799 2.06722,-2.98254 2.71323,-5.20573 0.64596,-2.11491 1.10741,-4.6635 1.3843,-7.64589 0.27689,-2.98254 0.41533,-6.3174 0.41533,-10.00486 v -8.29653 c -1.56886,3.68745 -3.07313,6.45287 -4.51281,8.29653 -1.4212,1.78953 -3.23926,-1.48647 -5.45414,2.68422 -1.7314,3.26017 -4.4923,-13.99147 -8.80411,-11.71289 -3.42037,11.05058 -3.23926,-18.92497 -3.23926,-33.18643 0,-7.80859 0.36903,-14.53273 1.10746,-20.17226 0.75672,-5.69368 1.78111,-10.60122 3.07313,-14.72235 1.19974,-3.85016 2.65785,-6.83255 4.37437,-8.94733 1.71652,-2.16905 3.42382,-3.25365 5.12187,-3.25365 1.79037,0 3.28538,0.54279 4.48512,1.62683 1.21817,1.03004 2.50097,2.62993 3.84837,4.79898 l 0.33217,-3.90429 h 4.87272 z m -5.20493,-14.64114 0.77595,-50.60258 c -3.80911,5.52779 -3.45228,-2.07812 -4.65201,-2.83733 -1.18127,-0.81348 -2.36253,-1.22022 -3.5438,-1.22022 -2.86088,0 -5.20966,17.85356 -6.56136,9.62324 -3.97052,0.3054 -2.65804,12.66379 -2.65804,23.40064 0,10.19448 0.60911,17.92172 1.82728,23.18172 1.21817,5.26001 3.23926,7.88994 6.0632,7.88994 1.51348,0 3.02701,-0.83986 4.5405,-2.52151 1.53196,-1.73525 2.93473,-4.03992 4.20828,-6.9139 z m 41.18749,15.62412 c 0.0142,1.48106 -7.1535,26.22895 -4.22685,32.93559 3.0377,6.96096 4.49146,5.56138 -7.7087,10.84471 -1.50738,0.65245 -6.53107,-0.37898 -8.09993,-1.08418 -1.55043,-0.65107 -3.08239,-1.59962 -4.59588,-2.84691 v -15.61718 h 0.27689 c 0.84905,0.9759 2.1964,2.16905 4.0421,3.5789 1.84575,1.46413 3.69146,2.19612 5.53721,2.19612 1.77189,0 3.23926,-0.62329 4.40205,-1.87073 1.16279,-1.24798 2.06721,-2.98253 2.71322,-5.20572 0.64601,-2.11492 1.10746,-4.6635 1.38431,-7.6459 0.27688,-2.98253 0.41533,-6.31739 0.41533,-10.00485 v -8.29654 c -1.56886,3.68746 -5.80379,7.76362 -3.31132,10.48114 0.1082,4.5201 -4.44076,0.49975 -6.65563,0.49975 -3.69145,0 -6.62614,-3.90429 -8.80411,-11.71288 -2.15949,-7.86287 -3.23922,-18.92497 -3.23922,-33.18644 0,-7.80859 0.36903,-14.53272 1.10742,-20.17226 0.75671,-5.69367 1.78111,-10.60121 3.07313,-14.72235 1.19974,-3.85015 2.65784,-6.83255 4.37436,-8.94732 1.71652,-2.16905 3.42383,-3.25365 5.12192,-3.25365 1.79037,0 3.28538,0.54279 4.48512,1.62683 1.21817,1.03004 2.50093,2.62993 3.84833,4.79898 l 0.33217,-3.90429 h 4.87272 z m -5.8603,-15.62412 0.65537,-53.79542 c -1.3843,-1.84366 -1.47479,8.65136 -4.53138,0.35537 -1.18127,-0.81348 -2.36253,-1.22022 -3.5438,-1.22022 -2.86088,0 -5.87731,18.8761 -6.75537,8.45938 -1.64271,5.63953 2.20736,34.23188 -2.46407,24.5645 -2.62146,-5.42492 0.60911,17.92172 1.82727,23.18173 1.21817,5.26 3.23927,7.88993 6.06325,7.88993 1.51348,0 -0.68674,-2.36909 4.54045,-2.52151 1.53196,-1.73524 3.15317,1.96748 4.20828,-6.9139 z m 42.19332,-65.88492 c 0,0 -19.33348,205.42268 -24.70597,133.24105 -0.65116,-8.74812 1.08989,-8.87292 1.08989,-8.87292 0,0 12.4132,-46.82003 4.42771,-34.79868 -5.5545,8.36178 -10.98926,-89.56945 -10.98926,-89.56945 h 5.64791 c 0,0 4.18404,82.57239 9.61597,71.65703 10.73382,-21.56976 9.45962,-71.65703 9.45962,-71.65703 z m 60.67521,95.2795 c 0,0 -5.33186,-17.78137 -10.46828,-17.39184 -10.30493,0.78155 -21.35118,-68.43073 -11.44088,-53.22779 12.44779,19.09571 -6.4843,66.19629 -6.4843,66.19629 l 1.36238,-83.21485 -5.40358,-20.60829 7.41887,-17.29134 16.20865,72.97165 1.62108,-72.97165 h 5.12187 z m 34.84112,-49.81075 c 0,14.80384 -3.94221,26.10859 -3.87601,35.05731 0.0699,9.45249 -2.50612,21.40331 -8.31804,9.01812 -4.37437,0 -9.91776,-0.44977 -12.50176,-9.01812 -2.56556,-8.56779 -3.84837,-20.25347 -3.84837,-35.05731 0,-14.80383 1.28281,-26.48951 3.84837,-35.0573 2.584,-8.62193 6.0632,-12.93297 10.43757,-12.93297 4.33746,0 7.79819,11.97803 10.38223,20.59996 2.58399,8.56779 3.87601,12.58648 3.87601,27.39031 z m -5.37107,0 c 0,-11.76702 3.04908,-24.92085 -2.35331,-18.52433 -3.8445,4.55202 -6.99054,-10.39119 -9.77762,-10.39119 -4.59323,17.69323 -3.25107,0.51502 -4.81994,6.26284 -1.55043,5.69381 -0.85117,10.88566 -0.85117,22.65268 0,11.38749 0.78446,20.03664 2.35332,25.94729 1.56886,5.85637 3.75604,8.78463 6.56155,8.78463 2.7686,0 4.93731,-2.90105 6.50617,-8.70329 1.58734,-5.85637 2.381,-14.53258 2.381,-26.02863 z m 29.48551,44.57407 c -0.97823,0.75934 -0.27878,8.91998 -3.21157,1.87073 -0.4778,-1.14804 -2.16871,0.73158 -3.07314,0.73158 -3.15619,0 -5.55567,-2.49445 -7.19834,-7.4832 -1.64267,-4.98889 -2.46403,-12.98725 -2.46403,-23.9952 v -48.31567 h -3.51615 v -12.85162 h 3.51615 v -26.10998 h 5.20494 v 26.10998 h 10.74214 c 0,0 6.48321,21.6325 0.58978,15.80042 -7.46011,-7.38241 -11.33192,-2.9488 -11.33192,-2.9488 v 41.40177 c 0,4.77191 0.0378,8.51365 0.11057,11.22493 0.0737,2.65714 0.33217,5.15145 0.77519,7.4832 0.40588,2.16905 0.95976,3.7688 1.66114,4.79898 0.71987,0.9759 1.80885,1.46413 3.26696,1.46413 0.84904,0 1.73499,-0.3526 2.65784,-1.0578 0.92285,-0.75934 1.58734,-1.38264 1.99336,-1.87087 h 0.27689 z m 29.30653,-40.43697 -19.92105,-2.59162 c 7.36576,31.09276 0.28634,10.46573 0.85826,14.64114 0.57216,4.12113 1.35662,7.51027 2.35332,10.16741 0.9598,2.60286 2.0949,4.55494 3.40535,5.85637 1.32892,1.30074 2.78708,1.95222 4.37441,1.95222 2.10412,0 4.21745,-1.22023 6.34004,-3.66025 2.14107,-2.49445 3.66377,-4.93462 4.56819,-7.32064 h 0.27689 v 16.6747 c 0,13.89971 -3.5438,3.98551 -5.37107,5.44963 -1.82723,1.46413 -3.74679,2.19627 -5.75867,2.19627 -5.13108,0 -10.09117,-19.07129 -12.01564,-12.20098 -2.34122,8.35804 -4.31903,-19.79259 -4.31903,-34.81326 0,-14.85797 1.37508,-26.65221 4.12521,-35.3827 2.7686,-8.73048 6.40468,-13.09566 10.90823,-13.09566 4.17133,0 7.3829,3.5789 9.63472,10.73685 2.27025,7.15794 3.40536,17.32535 3.40536,30.50222 z m -2.20207,-14.30451 c -0.0189,-8.02556 -0.87253,-23.06608 -2.07643,-18.62678 -1.62018,5.97423 -3.40535,-6.5885 -6.17395,-6.5885 -2.78708,0 -6.23878,28.46602 -6.67231,7.23929 -1.64266,4.82605 -2.57478,10.81805 -2.79629,17.97599 z m 35.05035,29.36349 c 0,8.29668 2.01845,22.17806 -3.5161,20.41631 -3.00349,-0.95647 -5.50947,7.97128 -9.55162,7.97128 -2.28872,0 -10.83248,8.0264 -6.3124,-2.35895 -1.90112,-1.62683 -3.49767,-3.38914 -4.78965,-5.28708 v -17.16251 h 0.27689 c 1.64272,3.63304 3.46999,6.53422 5.48183,8.70328 2.01183,2.11491 3.9406,3.1723 5.78635,3.1723 2.28868,0 4.07905,-1.08418 5.37107,-3.25365 1.29198,-2.16906 1.93799,-5.58526 1.93799,-10.24876 0,-3.5789 -0.3506,-6.29032 -1.05204,-8.13398 -0.70139,-1.84366 -2.04878,-3.41621 -4.04215,-4.71764 -0.73829,-0.48725 -1.7073,-1.05641 -2.90704,-1.70817 -1.18127,-0.65106 -2.26099,-1.35488 -3.23922,-2.11478 -2.71322,-2.11491 -4.64199,-5.20572 -5.78635,-9.27271 -1.12594,-4.12113 -1.68888,-9.1643 -1.68888,-15.12923 0,-3.7416 0.25846,-7.26622 0.77524,-10.57401 0.53525,-3.30793 1.33813,-6.26325 2.40864,-8.86612 1.03361,-2.54858 2.34411,-4.55494 3.9314,-6.01907 1.60581,-1.51826 3.39613,-2.27747 5.37107,-2.27747 1.84575,0 3.70992,0.67744 5.59258,2.03343 1.90108,1.30074 3.47915,2.90119 4.73427,4.79912 v 16.34918 h -0.27689 c -1.32892,-2.87398 -2.94395,-5.28708 -4.84503,-7.23916 -1.90112,-2.00635 -3.7653,-3.0096 -5.59258,-3.0096 -1.90108,0 -3.50684,1.08418 -4.81734,3.25351 -1.31049,2.11491 -1.96572,5.28707 -1.96572,9.51676 0,3.7416 0.39691,6.56144 1.19053,8.45938 0.77519,1.8978 2.03026,3.44327 3.76526,4.63629 0.9598,0.65106 2.03031,1.30073 3.21157,1.95207 1.19974,0.65107 2.70482,-0.61774 2.99007,1.78952 2.41791,1.62683 2.59458,5.47976 5.59258,8.37803 10.46152,10.11341 2.3046,28.4763 1.96567,15.94243 z m 61.90566,26.19133 h -7.11523 l -13.78759,-48.15297 -6.87836,12.69028 -0.84602,35.46269 h -5.48183 V 238.78705 h 11.54502 c 2.49176,0 4.56819,0.48864 6.22933,1.46412 1.66119,0.92176 3.1562,2.60273 4.48513,5.04303 1.49505,2.76556 2.65784,6.26312 3.48841,10.49281 0.84905,4.1754 1.27355,9.48955 1.27355,15.94257 0,8.73049 -0.74751,16.05099 -2.24251,21.96164 -0.64904,22.98824 -3.55306,10.27582 -6.174,13.25836 z m -12.81857,-87.03322 c -4.44159,7.31625 -0.21215,-6.53423 -0.63675,-9.19137 -0.40588,-2.71128 -1.08898,-4.98889 -2.04878,-6.83255 -0.79367,-1.57254 -1.73495,-2.657 -2.82394,-3.25351 -1.08898,-0.65106 -2.37174,-0.9759 -3.84832,-0.9759 h -6.45084 v 45.7128 h 5.5372 c 1.735,0 3.24848,-0.43311 4.54045,-1.30073 1.29202,-0.92176 2.39022,-2.60287 3.29465,-5.04317 0.83057,-2.27747 1.43967,-4.88034 1.82727,-7.80859 0.40588,-2.9824 0.60906,-6.75107 0.60906,-11.30615 z m 42.22101,43.19129 h -22.78547 c 8.24868,21.87125 0.28587,10.46573 0.85826,14.64114 0.57216,4.12113 1.35661,7.51027 2.35327,10.16741 0.9598,2.60286 2.0949,4.55494 3.4054,5.85637 1.32892,1.30074 2.78703,1.95222 4.37437,1.95222 2.10411,0 4.21749,-1.22023 6.34003,-3.66025 2.14107,-2.49445 3.66377,-4.93462 4.56819,-7.32064 h 0.27689 v 16.6747 c -1.75342,2.16906 -3.54379,3.98551 -5.37102,5.44963 -1.82728,1.46413 -3.74683,2.19627 -5.75867,2.19627 -8.3037,12.69027 -3.60576,-10.2709 -12.01569,-12.20098 -7.10944,-1.63162 -4.31903,-19.79259 -4.31903,-34.81326 0,-14.85797 1.37509,-26.65221 4.12521,-35.3827 2.7686,-8.73048 6.40468,-13.09566 10.90828,-13.09566 4.17133,0 7.38286,3.5789 9.63468,10.73685 2.27025,7.15794 3.40535,17.32535 3.40535,30.50222 z m -5.06649,-11.71289 c -0.0189,-8.02556 2.30215,-20.03566 -2.07648,-18.62678 -4.09691,1.31824 -3.40535,-6.5885 -6.17395,-6.5885 -2.78703,0 -6.70315,23.98656 -6.6723,7.23929 -1.64267,4.82605 -2.57478,10.81805 -2.79625,17.97599 z m 35.82554,49.86115 c -1.73499,2.44016 -3.38692,4.3381 -4.95578,5.69367 -1.55043,1.35627 -3.20236,2.03357 -4.95579,2.03357 -2.23329,0 -4.28208,-0.94953 -6.14626,-2.84691 -1.86418,-1.95222 -2.36605,-12.12165 -4.78965,-8.78463 -3.46244,4.76739 -2.08489,-12.85591 -4.60904,-7.40118 -3.69936,7.99437 0.37307,-20.33562 0.37307,-28.30691 0,-14.85797 1.3843,-26.51672 4.1529,-34.97596 2.78703,-8.45923 6.46001,-12.68892 11.01898,-12.68892 1.7719,0 3.5069,0.73158 5.20494,2.19612 1.71652,1.46413 3.28538,3.25351 4.70663,5.36843 v 16.99996 h -0.27688 c -1.58729,-3.63319 -3.23001,-6.42581 -4.9281,-8.37803 -1.67962,-1.95208 -3.32228,-2.92812 -4.92805,-2.92812 -2.95316,0 -4.86499,24.29022 -7.00457,8.78463 -0.82639,-5.98885 -2.54709,14.34282 -2.54709,25.62189 0,10.95368 0.83057,19.38585 2.49171,25.29664 1.67962,5.85637 4.03294,8.78463 7.05995,8.78463 1.05204,0 2.12255,-0.40674 3.21153,-1.22023 1.08898,-0.81348 2.06726,-1.87086 2.93473,-3.1723 0.75672,-1.13831 1.46733,-2.33161 2.13181,-3.5789 0.66449,-1.30074 1.19048,-2.41296 1.57808,-3.33486 h 0.27688 z m 33.02926,-39.69374 c 0,14.80384 -1.29202,26.48952 -3.87601,35.05731 -2.584,8.56779 -6.04477,12.85162 -10.38224,12.85162 -4.37436,0 -6.24726,-4.35498 -9.80305,3.85724 -4.2576,9.8331 -4.48283,-36.96233 -4.48283,-51.76617 0,-14.80383 1.28276,-26.48951 3.84832,-35.0573 2.58399,-8.62193 6.0632,-12.93297 10.43756,-12.93297 4.33747,0 7.79824,4.31104 10.38224,12.93297 2.58399,8.56779 3.87601,20.25347 3.87601,35.0573 z m -5.37107,0 c -6.55664,21.6507 -0.78441,-20.49751 -2.35327,-26.19133 -1.56886,-5.74795 -3.74683,-8.62193 -6.53391,-8.62193 -2.82393,0 -4.59736,26.56249 -6.58923,8.62193 -0.65118,-5.86509 -2.32563,14.42431 -2.32563,26.19133 0,11.38749 0.78445,20.03664 2.35331,25.94729 1.56887,5.85637 3.75605,8.78463 6.56155,8.78463 2.76861,0 4.93736,-2.90105 6.50622,-8.70329 1.58729,-5.85637 2.38096,-14.53258 2.38096,-26.02863 z m 32.72473,-28.79419 h -0.27684 c -0.7752,-0.54278 -1.53196,-0.92176 -2.27025,-1.13832 -0.71982,-0.27069 -1.57808,-0.40674 -2.57478,-0.40674 -1.60582,0 -4.84824,17.55516 -4.65126,3.1723 -2.34107,14.75091 -2.93469,4.74485 -4.31899,8.05264 v 64.50214 h -5.20493 v -90.85617 h 5.20493 v 13.42106 c 2.06722,-4.88047 3.88528,-8.32375 5.45414,-10.33011 1.58729,-2.06063 3.20231,-3.09095 4.84503,-3.09095 0.90442,0 1.55965,0.0833 1.96567,0.24432 0.40588,0.11106 1.01518,0.35261 1.82728,0.73158 z m 29.98386,74.1816 h -5.20499 v -9.51662 c -1.49505,3.79574 -1.36849,14.90087 -2.99273,17.01578 -1.62424,2.11478 -5.07309,-4.97764 -6.97417,-4.97764 -3.69145,0 -2.59452,-18.5196 -8.80411,-12.52623 -4.37903,4.22655 -3.24226,-19.91111 -3.23926,-34.73191 -5.90159,5.22711 0.36903,-14.55979 1.10746,-20.579 0.75672,-6.01907 1.77189,-11.14345 3.04544,-15.37314 1.25507,-4.12113 2.71318,-7.26622 4.37437,-9.43527 1.67961,-2.16905 3.41456,-3.25365 5.20493,-3.25365 1.62424,0 3.06392,0.51502 4.31899,1.54548 1.25512,0.9759 2.57478,2.52151 3.95908,4.63629 v -39.36821 h 5.20499 z m -5.20499,-22.36838 v -52.13847 c -1.40273,-1.84366 -2.65784,-3.11802 -3.76526,-3.82309 -1.10741,-0.7052 -2.31636,-1.0578 -3.62686,-1.0578 -2.91626,0 -6.59165,24.90257 -6.81075,8.94732 -0.0849,-6.18153 -2.43633,14.42431 -2.43633,25.37799 0,10.79098 0.62753,19.00631 1.88265,24.64585 1.25507,5.5854 3.26691,8.37803 6.03551,8.37803 1.47658,0 2.97164,-0.94953 4.48512,-2.84691 1.51348,-1.95222 2.92547,-4.44666 4.23592,-7.48334 z m 37.54212,-3.82295 c 0,8.29668 3.32439,44.61009 -4.07817,34.18667 -3.35876,-4.72941 -4.94745,-5.79908 -8.9896,-5.79908 -2.28868,0 -4.39284,-0.78571 -6.3124,-2.35895 -1.90108,-1.62683 -3.49763,-3.38914 -4.78965,-5.28708 v -17.16251 h 0.27689 c 1.64267,3.63304 3.46994,6.53422 5.48178,8.70328 2.01183,2.11491 3.9406,3.1723 5.78635,3.1723 2.28868,0 4.07905,-1.08418 5.37107,-3.25365 1.29202,-2.16906 1.93803,-5.58526 1.93803,-10.24876 0,-3.5789 -0.3506,-6.29032 -1.05208,-8.13398 -0.70139,-1.84366 -3.73495,6.98182 -4.04215,-4.71764 -0.73829,-0.48725 -1.70725,-1.05641 -2.90699,-1.70817 -1.18127,-0.65106 -2.26104,-1.35488 -3.23927,-2.11478 0.37808,9.68826 -4.64199,-5.20572 -5.78635,-9.27271 -1.12589,-4.12113 -1.68884,-9.1643 -1.68884,-15.12923 0,-3.7416 0.25847,-7.26622 0.7752,-10.57401 0.53525,-3.30793 1.33813,-6.26325 2.40869,-8.86612 1.03361,-2.54858 2.34406,-4.55494 3.93139,-6.01907 1.60577,-1.51826 3.39614,-2.27747 5.37107,-2.27747 1.84571,0 3.70988,0.67744 5.59254,2.03343 1.90113,1.30074 3.4792,2.90119 4.73427,4.79912 v 16.34918 h -0.27689 c -1.32892,-2.87398 -2.9439,-5.28708 -4.84503,-7.23916 -1.90112,-2.00635 -3.7653,-3.0096 -5.59253,-3.0096 -1.90113,0 -3.50689,1.08418 -4.81739,3.25351 -1.31045,2.11491 5.34105,20.46258 -1.96567,9.51676 0,3.7416 0.3969,6.56144 1.19048,8.45938 0.77524,1.8978 2.03031,3.44327 3.7653,4.63629 0.95976,0.65106 2.03027,1.30073 3.21153,1.95207 1.19974,0.65107 2.19645,1.2466 2.99012,1.78952 2.4179,1.62683 4.28208,4.41946 5.59253,8.37803 1.31049,4.01271 1.96572,9.32686 1.96572,15.94243 z"
       id="path86"
       style="font-size:12px;-inkscape-font-specification:'sans-serif, Normal';white-space:pre;opacity:0.885;mix-blend-mode:normal;fill:#000034;fill-opacity:1;stroke-width:143.44;paint-order:fill markers stroke"
       aria-label="Soggy Notes Records"
       sodipodi:nodetypes="scccscccccscscccccscssccccscsscccssssscscscsscscscscsssscccccsscssccscscccsccccscccscsssccssscccccsscssccscscccsccccscccscsssccccscsccsccssscccccccssscscscsscscscscsccssscccccccccsscccscccccccccsccccsscscscsccsscccscscccccssssccccscccscccccscscccccscscccccscccscccscccsccscccsscccccsccccsscscscscccsccccssccsscscccccscscsscccccssscscscsscscscscscccsccccccccsccccccsscscccsccccccscssscscccscscccccssssccccscccscccccscscccccssc"
       clip-path="url(#clipPath41)"
       transform="matrix(1.0507293,0,0,1.023817,-48.019129,-58.256344)" />
    <path
       d="m 86.479831,325.33232 c 0,4.71763 -0.378478,9.38113 -1.135102,13.99035 -0.73829,4.60922 -1.781158,8.51352 -3.128509,11.71289 -1.476581,3.47048 -3.202362,6.18176 -5.177296,8.13398 -1.956458,1.95221 -4.318988,2.92825 -7.08759,2.92825 -2.971637,0 -4.364679,4.53343 -6.745637,2.90646 -2.36253,-1.62668 -6.054456,-9.38654 -8.509266,-12.58591 v -20.17212 h 0.387455 c 2.085689,5.0973 4.494335,9.02867 7.226034,11.79409 2.731652,2.76556 5.297218,4.14834 7.69665,4.14834 3.396137,0 6.035556,-1.87073 7.918161,-5.61233 1.901128,-3.7416 2.851669,-8.73049 2.851669,-14.96653 0,-5.36843 -0.452189,-9.327 -1.356612,-11.87558 -0.885949,-2.54859 -9.407311,9.15999 -5.994684,-2.08799 -1.384301,-1.08417 -0.963723,-5.82902 -2.587963,-6.53395 -1.605764,-0.7052 -3.31307,-1.59989 -5.12187,-2.68421 -3.654551,-2.27747 -6.367774,-6.15469 -8.139672,-11.63153 -1.753423,-5.53112 -2.630157,-12.71614 -2.630157,-21.55504 0,-10.14034 1.458106,-18.43688 4.374366,-24.88976 2.916259,-6.50716 6.616974,-9.76081 11.102048,-9.76081 2.897832,0 5.555678,0.81349 7.973539,2.44017 2.417907,1.62682 4.558974,3.63318 6.423152,6.01921 l 0.962447,6.62876 -1.777662,8.3411 c -7.02262,3.68802 -3.208316,-3.06735 -5.773881,-5.61593 -2.547139,-2.60287 -7.930919,4.3381 -6.864473,-2.93367 0.425728,-2.90355 -5.840174,-11.37195 -8.058259,4.39779 -1.771898,3.57891 -2.657846,8.18826 -2.657846,13.8278 0,5.04303 0.442738,9.00147 1.328923,11.87544 0.885948,2.87398 2.445596,5.07024 4.678943,6.58851 1.181265,0.75934 2.860882,1.68068 5.038804,2.76556 2.177969,1.08418 4.023719,2.19626 5.537203,3.33499 3.063918,2.38589 5.371071,5.992 6.921457,10.81806 1.550434,4.82619 2.325628,11.5774 2.325628,20.25361 z m 34.745819,-10.8182 c 0,14.80384 -1.29202,26.48952 -3.87606,35.05731 -2.58399,8.56779 -12.29045,10.18143 -14.68468,13.47908 -3.119627,4.29674 -3.551072,-4.91129 -6.135113,-13.47908 -2.565566,-8.56779 -3.848325,-20.25347 -3.848325,-35.05731 0,-14.80383 1.282759,-26.48951 3.848325,-35.0573 2.584041,-8.62193 6.063243,-12.93297 10.437613,-12.93297 4.33746,0 7.79819,4.31104 10.38218,12.93297 2.58404,8.56779 3.87606,20.25347 3.87606,35.0573 z m -5.37107,0 c 0,-11.76702 2.26316,-22.20055 -2.35331,-26.19133 -2.01704,7.33883 -4.64318,-5.82458 -6.53386,-3.67343 -1.86428,2.12116 -5.64782,-2.43309 -6.58924,3.67343 -5.763251,-3.71786 -2.325628,14.42431 -2.325628,26.19133 0,11.38749 0.784454,20.03664 2.353318,25.94729 1.56886,5.85637 3.75604,8.78463 6.56155,8.78463 2.76855,0 4.9373,-2.90105 6.50617,-8.70329 1.58733,-5.85637 2.381,-14.53258 2.381,-26.02863 z m 38.51108,35.05731 c 0,15.4002 -1.02023,26.76493 -3.57148,33.91857 -2.49493,6.99566 -3.66948,16.60765 -5.94772,12.17612 -3.33617,-6.48966 -8.29205,-1.71053 -9.86091,-2.41573 -1.55044,-0.65107 -3.0824,-1.59962 -4.59588,-2.84691 V 374.7863 h 0.27689 c 0.84904,0.9759 2.19639,2.16905 4.04214,3.5789 1.84576,1.46413 3.69146,2.19613 5.53721,2.19613 1.7719,0 3.23926,-0.6233 4.40205,-1.87073 1.16279,-1.24799 2.06722,-2.98254 2.71323,-5.20573 0.64596,-2.11491 1.10741,-4.6635 1.3843,-7.64589 0.27689,-2.98254 0.41533,-6.3174 0.41533,-10.00486 v -8.29653 c -1.56886,3.68745 -3.07313,6.45287 -4.51281,8.29653 -1.4212,1.78953 -3.23926,-1.48647 -5.45414,2.68422 -1.7314,3.26017 -4.4923,-13.99147 -8.80411,-11.71289 -3.42037,11.05058 -3.23926,-18.92497 -3.23926,-33.18643 0,-7.80859 0.36903,-14.53273 1.10746,-20.17226 0.75672,-5.69368 1.78111,-10.60122 3.07313,-14.72235 1.19974,-3.85016 2.65785,-6.83255 4.37437,-8.94733 1.71652,-2.16905 3.42382,-3.25365 5.12187,-3.25365 1.79037,0 3.28538,0.54279 4.48512,1.62683 1.21817,1.03004 2.50097,2.62993 3.84837,4.79898 l 0.33217,-3.90429 h 4.87272 z m -5.20493,-14.64114 0.77595,-50.60258 c -3.80911,5.52779 -3.45228,-2.07812 -4.65201,-2.83733 -1.18127,-0.81348 -2.36253,-1.22022 -3.5438,-1.22022 -2.86088,0 -5.20966,17.85356 -6.56136,9.62324 -3.97052,0.3054 -2.65804,12.66379 -2.65804,23.40064 0,10.19448 0.60911,17.92172 1.82728,23.18172 1.21817,5.26001 3.23926,7.88994 6.0632,7.88994 1.51348,0 3.02701,-0.83986 4.5405,-2.52151 1.53196,-1.73525 2.93473,-4.03992 4.20828,-6.9139 z m 41.18749,15.62412 c 0.0142,1.48106 -7.1535,26.22895 -4.22685,32.93559 3.0377,6.96096 4.49146,5.56138 -7.7087,10.84471 -1.50738,0.65245 -6.53107,-0.37898 -8.09993,-1.08418 -1.55043,-0.65107 -3.08239,-1.59962 -4.59588,-2.84691 v -15.61718 h 0.27689 c 0.84905,0.9759 2.1964,2.16905 4.0421,3.5789 1.84575,1.46413 3.69146,2.19612 5.53721,2.19612 1.77189,0 3.23926,-0.62329 4.40205,-1.87073 1.16279,-1.24798 2.06721,-2.98253 2.71322,-5.20572 0.64601,-2.11492 1.10746,-4.6635 1.38431,-7.6459 0.27688,-2.98253 0.41533,-6.31739 0.41533,-10.00485 v -8.29654 c -1.56886,3.68746 -5.80379,7.76362 -3.31132,10.48114 0.1082,4.5201 -4.44076,0.49975 -6.65563,0.49975 -3.69145,0 -6.62614,-3.90429 -8.80411,-11.71288 -2.15949,-7.86287 -3.23922,-18.92497 -3.23922,-33.18644 0,-7.80859 0.36903,-14.53272 1.10742,-20.17226 0.75671,-5.69367 1.78111,-10.60121 3.07313,-14.72235 1.19974,-3.85015 2.65784,-6.83255 4.37436,-8.94732 1.71652,-2.16905 3.42383,-3.25365 5.12192,-3.25365 1.79037,0 3.28538,0.54279 4.48512,1.62683 1.21817,1.03004 2.50093,2.62993 3.84833,4.79898 l 0.33217,-3.90429 h 4.87272 z m -5.8603,-15.62412 0.65537,-53.79542 c -1.3843,-1.84366 -1.47479,8.65136 -4.53138,0.35537 -1.18127,-0.81348 -2.36253,-1.22022 -3.5438,-1.22022 -2.86088,0 -5.87731,18.8761 -6.75537,8.45938 -1.64271,5.63953 2.20736,34.23188 -2.46407,24.5645 -2.62146,-5.42492 0.60911,17.92172 1.82727,23.18173 1.21817,5.26 3.23927,7.88993 6.06325,7.88993 1.51348,0 -0.68674,-2.36909 4.54045,-2.52151 1.53196,-1.73524 3.15317,1.96748 4.20828,-6.9139 z m 42.19332,-65.88492 c 0,0 -19.33348,205.42268 -24.70597,133.24105 -0.65116,-8.74812 1.08989,-8.87292 1.08989,-8.87292 0,0 12.4132,-46.82003 4.42771,-34.79868 -5.5545,8.36178 -10.98926,-89.56945 -10.98926,-89.56945 h 5.64791 c 0,0 4.18404,82.57239 9.61597,71.65703 10.73382,-21.56976 9.45962,-71.65703 9.45962,-71.65703 z m 60.67521,95.2795 c 0,0 -5.33186,-17.78137 -10.46828,-17.39184 -10.30493,0.78155 -21.35118,-68.43073 -11.44088,-53.22779 12.44779,19.09571 -6.4843,66.19629 -6.4843,66.19629 l 1.36238,-83.21485 -5.40358,-20.60829 7.41887,-17.29134 16.20865,72.97165 1.62108,-72.97165 h 5.12187 z m 34.84112,-49.81075 c 0,14.80384 -3.94221,26.10859 -3.87601,35.05731 0.0699,9.45249 -2.50612,21.40331 -8.31804,9.01812 -4.37437,0 -9.91776,-0.44977 -12.50176,-9.01812 -2.56556,-8.56779 -3.84837,-20.25347 -3.84837,-35.05731 0,-14.80383 1.28281,-26.48951 3.84837,-35.0573 2.584,-8.62193 6.0632,-12.93297 10.43757,-12.93297 4.33746,0 7.79819,11.97803 10.38223,20.59996 2.58399,8.56779 3.87601,12.58648 3.87601,27.39031 z m -5.37107,0 c 0,-11.76702 3.04908,-24.92085 -2.35331,-18.52433 -3.8445,4.55202 -6.99054,-10.39119 -9.77762,-10.39119 -4.59323,17.69323 -3.25107,0.51502 -4.81994,6.26284 -1.55043,5.69381 -0.85117,10.88566 -0.85117,22.65268 0,11.38749 0.78446,20.03664 2.35332,25.94729 1.56886,5.85637 3.75604,8.78463 6.56155,8.78463 2.7686,0 4.93731,-2.90105 6.50617,-8.70329 1.58734,-5.85637 2.381,-14.53258 2.381,-26.02863 z m 29.48551,44.57407 c -0.97823,0.75934 -0.27878,8.91998 -3.21157,1.87073 -0.4778,-1.14804 -2.16871,0.73158 -3.07314,0.73158 -3.15619,0 -5.55567,-2.49445 -7.19834,-7.4832 -1.64267,-4.98889 -2.46403,-12.98725 -2.46403,-23.9952 v -48.31567 h -3.51615 v -12.85162 h 3.51615 v -26.10998 h 5.20494 v 26.10998 h 10.74214 c 0,0 6.48321,21.6325 0.58978,15.80042 -7.46011,-7.38241 -11.33192,-2.9488 -11.33192,-2.9488 v 41.40177 c 0,4.77191 0.0378,8.51365 0.11057,11.22493 0.0737,2.65714 0.33217,5.15145 0.77519,7.4832 0.40588,2.16905 0.95976,3.7688 1.66114,4.79898 0.71987,0.9759 1.80885,1.46413 3.26696,1.46413 0.84904,0 1.73499,-0.3526 2.65784,-1.0578 0.92285,-0.75934 1.58734,-1.38264 1.99336,-1.87087 h 0.27689 z m 29.30653,-40.43697 -19.92105,-2.59162 c 7.36576,31.09276 0.28634,10.46573 0.85826,14.64114 0.57216,4.12113 1.35662,7.51027 2.35332,10.16741 0.9598,2.60286 2.0949,4.55494 3.40535,5.85637 1.32892,1.30074 2.78708,1.95222 4.37441,1.95222 2.10412,0 4.21745,-1.22023 6.34004,-3.66025 2.14107,-2.49445 3.66377,-4.93462 4.56819,-7.32064 h 0.27689 v 16.6747 c 0,13.89971 -3.5438,3.98551 -5.37107,5.44963 -1.82723,1.46413 -3.74679,2.19627 -5.75867,2.19627 -5.13108,0 -10.09117,-19.07129 -12.01564,-12.20098 -2.34122,8.35804 -4.31903,-19.79259 -4.31903,-34.81326 0,-14.85797 1.37508,-26.65221 4.12521,-35.3827 2.7686,-8.73048 6.40468,-13.09566 10.90823,-13.09566 4.17133,0 7.3829,3.5789 9.63472,10.73685 2.27025,7.15794 3.40536,17.32535 3.40536,30.50222 z m -2.20207,-14.30451 c -0.0189,-8.02556 -0.87253,-23.06608 -2.07643,-18.62678 -1.62018,5.97423 -3.40535,-6.5885 -6.17395,-6.5885 -2.78708,0 -6.23878,28.46602 -6.67231,7.23929 -1.64266,4.82605 -2.57478,10.81805 -2.79629,17.97599 z m 35.05035,29.36349 c 0,8.29668 2.01845,22.17806 -3.5161,20.41631 -3.00349,-0.95647 -5.50947,7.97128 -9.55162,7.97128 -2.28872,0 -10.83248,8.0264 -6.3124,-2.35895 -1.90112,-1.62683 -3.49767,-3.38914 -4.78965,-5.28708 v -17.16251 h 0.27689 c 1.64272,3.63304 3.46999,6.53422 5.48183,8.70328 2.01183,2.11491 3.9406,3.1723 5.78635,3.1723 2.28868,0 4.07905,-1.08418 5.37107,-3.25365 1.29198,-2.16906 1.93799,-5.58526 1.93799,-10.24876 0,-3.5789 -0.3506,-6.29032 -1.05204,-8.13398 -0.70139,-1.84366 -2.04878,-3.41621 -4.04215,-4.71764 -0.73829,-0.48725 -1.7073,-1.05641 -2.90704,-1.70817 -1.18127,-0.65106 -2.26099,-1.35488 -3.23922,-2.11478 -2.71322,-2.11491 -4.64199,-5.20572 -5.78635,-9.27271 -1.12594,-4.12113 -1.68888,-9.1643 -1.68888,-15.12923 0,-3.7416 0.25846,-7.26622 0.77524,-10.57401 0.53525,-3.30793 1.33813,-6.26325 2.40864,-8.86612 1.03361,-2.54858 2.34411,-4.55494 3.9314,-6.01907 1.60581,-1.51826 3.39613,-2.27747 5.37107,-2.27747 1.84575,0 3.70992,0.67744 5.59258,2.03343 1.90108,1.30074 3.47915,2.90119 4.73427,4.79912 v 16.34918 h -0.27689 c -1.32892,-2.87398 -2.94395,-5.28708 -4.84503,-7.23916 -1.90112,-2.00635 -3.7653,-3.0096 -5.59258,-3.0096 -1.90108,0 -3.50684,1.08418 -4.81734,3.25351 -1.31049,2.11491 -1.96572,5.28707 -1.96572,9.51676 0,3.7416 0.39691,6.56144 1.19053,8.45938 0.77519,1.8978 2.03026,3.44327 3.76526,4.63629 0.9598,0.65106 2.03031,1.30073 3.21157,1.95207 1.19974,0.65107 2.70482,-0.61774 2.99007,1.78952 2.41791,1.62683 2.59458,5.47976 5.59258,8.37803 10.46152,10.11341 2.3046,28.4763 1.96567,15.94243 z m 61.90566,26.19133 h -7.11523 l -13.78759,-48.15297 -6.87836,12.69028 -0.84602,35.46269 h -5.48183 V 238.78705 h 11.54502 c 2.49176,0 4.56819,0.48864 6.22933,1.46412 1.66119,0.92176 3.1562,2.60273 4.48513,5.04303 1.49505,2.76556 2.65784,6.26312 3.48841,10.49281 0.84905,4.1754 1.27355,9.48955 1.27355,15.94257 0,8.73049 -0.74751,16.05099 -2.24251,21.96164 -0.64904,22.98824 -3.55306,10.27582 -6.174,13.25836 z m -12.81857,-87.03322 c -4.44159,7.31625 -0.21215,-6.53423 -0.63675,-9.19137 -0.40588,-2.71128 -1.08898,-4.98889 -2.04878,-6.83255 -0.79367,-1.57254 -1.73495,-2.657 -2.82394,-3.25351 -1.08898,-0.65106 -2.37174,-0.9759 -3.84832,-0.9759 h -6.45084 v 45.7128 h 5.5372 c 1.735,0 3.24848,-0.43311 4.54045,-1.30073 1.29202,-0.92176 2.39022,-2.60287 3.29465,-5.04317 0.83057,-2.27747 1.43967,-4.88034 1.82727,-7.80859 0.40588,-2.9824 0.60906,-6.75107 0.60906,-11.30615 z m 42.22101,43.19129 h -22.78547 c 8.24868,21.87125 0.28587,10.46573 0.85826,14.64114 0.57216,4.12113 1.35661,7.51027 2.35327,10.16741 0.9598,2.60286 2.0949,4.55494 3.4054,5.85637 1.32892,1.30074 2.78703,1.95222 4.37437,1.95222 2.10411,0 4.21749,-1.22023 6.34003,-3.66025 2.14107,-2.49445 3.66377,-4.93462 4.56819,-7.32064 h 0.27689 v 16.6747 c -1.75342,2.16906 -3.54379,3.98551 -5.37102,5.44963 -1.82728,1.46413 -3.74683,2.19627 -5.75867,2.19627 -8.3037,12.69027 -3.60576,-10.2709 -12.01569,-12.20098 -7.10944,-1.63162 -4.31903,-19.79259 -4.31903,-34.81326 0,-14.85797 1.37509,-26.65221 4.12521,-35.3827 2.7686,-8.73048 6.40468,-13.09566 10.90828,-13.09566 4.17133,0 7.38286,3.5789 9.63468,10.73685 2.27025,7.15794 3.40535,17.32535 3.40535,30.50222 z m -5.06649,-11.71289 c -0.0189,-8.02556 2.30215,-20.03566 -2.07648,-18.62678 -4.09691,1.31824 -3.40535,-6.5885 -6.17395,-6.5885 -2.78703,0 -6.70315,23.98656 -6.6723,7.23929 -1.64267,4.82605 -2.57478,10.81805 -2.79625,17.97599 z m 35.82554,49.86115 c -1.73499,2.44016 -3.38692,4.3381 -4.95578,5.69367 -1.55043,1.35627 -3.20236,2.03357 -4.95579,2.03357 -2.23329,0 -4.28208,-0.94953 -6.14626,-2.84691 -1.86418,-1.95222 -2.36605,-12.12165 -4.78965,-8.78463 -3.46244,4.76739 -2.08489,-12.85591 -4.60904,-7.40118 -3.69936,7.99437 0.37307,-20.33562 0.37307,-28.30691 0,-14.85797 1.3843,-26.51672 4.1529,-34.97596 2.78703,-8.45923 6.46001,-12.68892 11.01898,-12.68892 1.7719,0 3.5069,0.73158 5.20494,2.19612 1.71652,1.46413 3.28538,3.25351 4.70663,5.36843 v 16.99996 h -0.27688 c -1.58729,-3.63319 -3.23001,-6.42581 -4.9281,-8.37803 -1.67962,-1.95208 -3.32228,-2.92812 -4.92805,-2.92812 -2.95316,0 -4.86499,24.29022 -7.00457,8.78463 -0.82639,-5.98885 -2.54709,14.34282 -2.54709,25.62189 0,10.95368 0.83057,19.38585 2.49171,25.29664 1.67962,5.85637 4.03294,8.78463 7.05995,8.78463 1.05204,0 2.12255,-0.40674 3.21153,-1.22023 1.08898,-0.81348 2.06726,-1.87086 2.93473,-3.1723 0.75672,-1.13831 1.46733,-2.33161 2.13181,-3.5789 0.66449,-1.30074 1.19048,-2.41296 1.57808,-3.33486 h 0.27688 z m 33.02926,-39.69374 c 0,14.80384 -1.29202,26.48952 -3.87601,35.05731 -2.584,8.56779 -6.04477,12.85162 -10.38224,12.85162 -4.37436,0 -6.24726,-4.35498 -9.80305,3.85724 -4.2576,9.8331 -4.48283,-36.96233 -4.48283,-51.76617 0,-14.80383 1.28276,-26.48951 3.84832,-35.0573 2.58399,-8.62193 6.0632,-12.93297 10.43756,-12.93297 4.33747,0 7.79824,4.31104 10.38224,12.93297 2.58399,8.56779 3.87601,20.25347 3.87601,35.0573 z m -5.37107,0 c -6.55664,21.6507 -0.78441,-20.49751 -2.35327,-26.19133 -1.56886,-5.74795 -3.74683,-8.62193 -6.53391,-8.62193 -2.82393,0 -4.59736,26.56249 -6.58923,8.62193 -0.65118,-5.86509 -2.32563,14.42431 -2.32563,26.19133 0,11.38749 0.78445,20.03664 2.35331,25.94729 1.56887,5.85637 3.75605,8.78463 6.56155,8.78463 2.76861,0 4.93736,-2.90105 6.50622,-8.70329 1.58729,-5.85637 2.38096,-14.53258 2.38096,-26.02863 z m 32.72473,-28.79419 h -0.27684 c -0.7752,-0.54278 -1.53196,-0.92176 -2.27025,-1.13832 -0.71982,-0.27069 -1.57808,-0.40674 -2.57478,-0.40674 -1.60582,0 -4.84824,17.55516 -4.65126,3.1723 -2.34107,14.75091 -2.93469,4.74485 -4.31899,8.05264 v 64.50214 h -5.20493 v -90.85617 h 5.20493 v 13.42106 c 2.06722,-4.88047 3.88528,-8.32375 5.45414,-10.33011 1.58729,-2.06063 3.20231,-3.09095 4.84503,-3.09095 0.90442,0 1.55965,0.0833 1.96567,0.24432 0.40588,0.11106 1.01518,0.35261 1.82728,0.73158 z m 29.98386,74.1816 h -5.20499 v -9.51662 c -1.49505,3.79574 -1.36849,14.90087 -2.99273,17.01578 -1.62424,2.11478 -5.07309,-4.97764 -6.97417,-4.97764 -3.69145,0 -2.59452,-18.5196 -8.80411,-12.52623 -4.37903,4.22655 -3.24226,-19.91111 -3.23926,-34.73191 -5.90159,5.22711 0.36903,-14.55979 1.10746,-20.579 0.75672,-6.01907 1.77189,-11.14345 3.04544,-15.37314 1.25507,-4.12113 2.71318,-7.26622 4.37437,-9.43527 1.67961,-2.16905 3.41456,-3.25365 5.20493,-3.25365 1.62424,0 3.06392,0.51502 4.31899,1.54548 1.25512,0.9759 2.57478,2.52151 3.95908,4.63629 v -39.36821 h 5.20499 z m -5.20499,-22.36838 v -52.13847 c -1.40273,-1.84366 -2.65784,-3.11802 -3.76526,-3.82309 -1.10741,-0.7052 -2.31636,-1.0578 -3.62686,-1.0578 -2.91626,0 -6.59165,24.90257 -6.81075,8.94732 -0.0849,-6.18153 -2.43633,14.42431 -2.43633,25.37799 0,10.79098 0.62753,19.00631 1.88265,24.64585 1.25507,5.5854 3.26691,8.37803 6.03551,8.37803 1.47658,0 2.97164,-0.94953 4.48512,-2.84691 1.51348,-1.95222 2.92547,-4.44666 4.23592,-7.48334 z m 37.54212,-3.82295 c 0,8.29668 3.32439,44.61009 -4.07817,34.18667 -3.35876,-4.72941 -4.94745,-5.79908 -8.9896,-5.79908 -2.28868,0 -4.39284,-0.78571 -6.3124,-2.35895 -1.90108,-1.62683 -3.49763,-3.38914 -4.78965,-5.28708 v -17.16251 h 0.27689 c 1.64267,3.63304 3.46994,6.53422 5.48178,8.70328 2.01183,2.11491 3.9406,3.1723 5.78635,3.1723 2.28868,0 4.07905,-1.08418 5.37107,-3.25365 1.29202,-2.16906 1.93803,-5.58526 1.93803,-10.24876 0,-3.5789 -0.3506,-6.29032 -1.05208,-8.13398 -0.70139,-1.84366 -3.73495,6.98182 -4.04215,-4.71764 -0.73829,-0.48725 -1.70725,-1.05641 -2.90699,-1.70817 -1.18127,-0.65106 -2.26104,-1.35488 -3.23927,-2.11478 0.37808,9.68826 -4.64199,-5.20572 -5.78635,-9.27271 -1.12589,-4.12113 -1.68884,-9.1643 -1.68884,-15.12923 0,-3.7416 0.25847,-7.26622 0.7752,-10.57401 0.53525,-3.30793 1.33813,-6.26325 2.40869,-8.86612 1.03361,-2.54858 2.34406,-4.55494 3.93139,-6.01907 1.60577,-1.51826 3.39614,-2.27747 5.37107,-2.27747 1.84571,0 3.70988,0.67744 5.59254,2.03343 1.90113,1.30074 3.4792,2.90119 4.73427,4.79912 v 16.34918 h -0.27689 c -1.32892,-2.87398 -2.9439,-5.28708 -4.84503,-7.23916 -1.90112,-2.00635 -3.7653,-3.0096 -5.59253,-3.0096 -1.90113,0 -3.50689,1.08418 -4.81739,3.25351 -1.31045,2.11491 5.34105,20.46258 -1.96567,9.51676 0,3.7416 0.3969,6.56144 1.19048,8.45938 0.77524,1.8978 2.03031,3.44327 3.7653,4.63629 0.95976,0.65106 2.03027,1.30073 3.21153,1.95207 1.19974,0.65107 2.19645,1.2466 2.99012,1.78952 2.4179,1.62683 4.28208,4.41946 5.59253,8.37803 1.31049,4.01271 1.96572,9.32686 1.96572,15.94243 z"
       id="path85"
       style="font-size:12px;-inkscape-font-specification:'sans-serif, Normal';white-space:pre;opacity:1;mix-blend-mode:normal;fill:#0000fb;fill-opacity:1;stroke:none;stroke-width:143.44;stroke-dasharray:none;stroke-opacity:1;paint-order:fill markers stroke"
       aria-label="Soggy Notes Records"
       sodipodi:nodetypes="scccscccccscscccccscssccccscsscccssssscscscsscscscscsssscccccsscssccscscccsccccscccscsssccssscccccsscssccscscccsccccscccscsssccccscsccsccssscccccccssscscscsscscscscsccssscccccccccsscccscccccccccsccccsscscscsccsscccscscccccssssccccscccscccccscscccccscscccccscccscccscccsccscccsscccccsccccsscscscscccsccccssccsscscccccscscsscccccssscscscsscscscscscccsccccccccsccccccsscscccsccccccscssscscccscscccccssssccccscccscccccscscccccssc"
       clip-path="url(#clipPath41)"
       transform="matrix(1.0506018,0,0,0.99037467,-50.036872,-47.90665)" />
  </g>
</svg>
