<?xml version="1.0" encoding="UTF-8" standalone="no"?>
<!-- Created with Inkscape (http://www.inkscape.org/) -->

<svg
   width="681mm"
   height="239mm"
   viewBox="0 0 681 239"
   version="1.1"
   id="svg1"
   inkscape:version="1.4 (e7c3feb1, 2024-10-09)"
   sodipodi:docname="soggynotesrecords.svg"
   inkscape:export-filename="soggynotesrecords.png"
   inkscape:export-xdpi="96"
   inkscape:export-ydpi="96"
   xmlns:inkscape="http://www.inkscape.org/namespaces/inkscape"
   xmlns:sodipodi="http://sodipodi.sourceforge.net/DTD/sodipodi-0.dtd"
   xmlns="http://www.w3.org/2000/svg"
   xmlns:svg="http://www.w3.org/2000/svg">
  <sodipodi:namedview
     id="namedview1"
     pagecolor="#ffffff"
     bordercolor="#000000"
     borderopacity="0.25"
     inkscape:showpageshadow="2"
     inkscape:pageopacity="0.0"
     inkscape:pagecheckerboard="0"
     inkscape:deskcolor="#d1d1d1"
     inkscape:document-units="mm"
     inkscape:zoom="0.24561599"
     inkscape:cx="1357.8106"
     inkscape:cy="600.53094"
     inkscape:window-width="1384"
     inkscape:window-height="710"
     inkscape:window-x="76"
     inkscape:window-y="38"
     inkscape:window-maximized="0"
     inkscape:current-layer="layer1" />
  <defs
     id="defs1">
    <rect
       x="320.99021"
       y="90.278496"
       width="90.278496"
       height="65.201136"
       id="rect6" />
    <rect
       x="215.6653"
       y="90.278496"
       width="2598.0145"
       height="1088.3574"
       id="rect5" />
    <linearGradient
       id="swatch4"
       inkscape:swatch="solid">
      <stop
         style="stop-color:#64afff;stop-opacity:1;"
         offset="0"
         id="stop4" />
    </linearGradient>
    <linearGradient
       id="swatch58"
       inkscape:swatch="solid">
      <stop
         style="stop-color:#6d008b;stop-opacity:1;"
         offset="0"
         id="stop58" />
    </linearGradient>
    <rect
       x="417.03955"
       y="345.13617"
       width="783.7467"
       height="230.09077"
       id="rect4" />
    <rect
       x="730.10211"
       y="422.6907"
       width="119.67087"
       height="17.017418"
       id="rect3" />
    <rect
       x="699.61432"
       y="420.78253"
       width="1421.5223"
       height="892.26172"
       id="rect2" />
    <rect
       x="643.84796"
       y="359.9465"
       width="1181.2329"
       height="856.77405"
       id="rect1" />
    <clipPath
       clipPathUnits="userSpaceOnUse"
       id="clipPath33">
      <path
         style="opacity:0.184643;fill:#00fff2;fill-opacity:1;stroke-width:5.21092;paint-order:fill markers stroke"
         id="path34"
         sodipodi:type="arc"
         sodipodi:cx="330.24902"
         sodipodi:cy="289.65106"
         sodipodi:rx="308.38858"
         sodipodi:ry="160.04974"
         sodipodi:start="6.081319"
         sodipodi:end="6.0702165"
         sodipodi:open="true"
         sodipodi:arc-type="arc"
         d="M 632.37549,257.56139 A 308.38858,160.04974 0 0 1 392.9187,446.36118 308.38858,160.04974 0 0 1 28.470447,322.61067 308.38858,160.04974 0 0 1 265.90411,133.12391 308.38858,160.04974 0 0 1 631.67041,255.82254" />
    </clipPath>
    <clipPath
       clipPathUnits="userSpaceOnUse"
       id="clipPath34">
      <path
         style="opacity:0.184643;fill:#00fff2;fill-opacity:1;stroke-width:5.21092;paint-order:fill markers stroke"
         id="path35"
         sodipodi:type="arc"
         sodipodi:cx="330.24902"
         sodipodi:cy="289.65106"
         sodipodi:rx="308.38858"
         sodipodi:ry="160.04974"
         sodipodi:start="6.081319"
         sodipodi:end="6.0702165"
         sodipodi:open="true"
         sodipodi:arc-type="arc"
         d="M 632.37549,257.56139 A 308.38858,160.04974 0 0 1 392.9187,446.36118 308.38858,160.04974 0 0 1 28.470447,322.61067 308.38858,160.04974 0 0 1 265.90411,133.12391 308.38858,160.04974 0 0 1 631.67041,255.82254" />
    </clipPath>
    <clipPath
       clipPathUnits="userSpaceOnUse"
       id="clipPath35">
      <path
         style="opacity:0.184643;fill:#00fff2;fill-opacity:1;stroke-width:5.21092;paint-order:fill markers stroke"
         id="path36"
         sodipodi:type="arc"
         sodipodi:cx="330.24902"
         sodipodi:cy="289.65106"
         sodipodi:rx="308.38858"
         sodipodi:ry="160.04974"
         sodipodi:start="6.081319"
         sodipodi:end="6.0702165"
         sodipodi:open="true"
         sodipodi:arc-type="arc"
         d="M 632.37549,257.56139 A 308.38858,160.04974 0 0 1 392.9187,446.36118 308.38858,160.04974 0 0 1 28.470447,322.61067 308.38858,160.04974 0 0 1 265.90411,133.12391 308.38858,160.04974 0 0 1 631.67041,255.82254" />
    </clipPath>
    <clipPath
       clipPathUnits="userSpaceOnUse"
       id="clipPath36">
      <path
         style="opacity:0.184643;fill:#00fff2;fill-opacity:1;stroke-width:5.21092;paint-order:fill markers stroke"
         id="path37"
         sodipodi:type="arc"
         sodipodi:cx="330.24902"
         sodipodi:cy="289.65106"
         sodipodi:rx="308.38858"
         sodipodi:ry="160.04974"
         sodipodi:start="6.081319"
         sodipodi:end="6.0702165"
         sodipodi:open="true"
         sodipodi:arc-type="arc"
         d="M 632.37549,257.56139 A 308.38858,160.04974 0 0 1 392.9187,446.36118 308.38858,160.04974 0 0 1 28.470447,322.61067 308.38858,160.04974 0 0 1 265.90411,133.12391 308.38858,160.04974 0 0 1 631.67041,255.82254" />
    </clipPath>
    <clipPath
       clipPathUnits="userSpaceOnUse"
       id="clipPath37">
      <path
         style="opacity:0.184643;fill:#00fff2;fill-opacity:1;stroke-width:5.21092;paint-order:fill markers stroke"
         id="path38"
         sodipodi:type="arc"
         sodipodi:cx="330.24902"
         sodipodi:cy="289.65106"
         sodipodi:rx="308.38858"
         sodipodi:ry="160.04974"
         sodipodi:start="6.081319"
         sodipodi:end="6.0702165"
         sodipodi:open="true"
         sodipodi:arc-type="arc"
         d="M 632.37549,257.56139 A 308.38858,160.04974 0 0 1 392.9187,446.36118 308.38858,160.04974 0 0 1 28.470447,322.61067 308.38858,160.04974 0 0 1 265.90411,133.12391 308.38858,160.04974 0 0 1 631.67041,255.82254" />
    </clipPath>
    <clipPath
       clipPathUnits="userSpaceOnUse"
       id="clipPath38">
      <path
         style="opacity:0.184643;fill:#00fff2;fill-opacity:1;stroke-width:5.21092;paint-order:fill markers stroke"
         id="path39"
         sodipodi:type="arc"
         sodipodi:cx="330.24902"
         sodipodi:cy="289.65106"
         sodipodi:rx="308.38858"
         sodipodi:ry="160.04974"
         sodipodi:start="6.081319"
         sodipodi:end="6.0702165"
         sodipodi:open="true"
         sodipodi:arc-type="arc"
         d="M 632.37549,257.56139 A 308.38858,160.04974 0 0 1 392.9187,446.36118 308.38858,160.04974 0 0 1 28.470447,322.61067 308.38858,160.04974 0 0 1 265.90411,133.12391 308.38858,160.04974 0 0 1 631.67041,255.82254" />
    </clipPath>
    <clipPath
       clipPathUnits="userSpaceOnUse"
       id="clipPath39">
      <path
         style="opacity:0.184643;fill:#00fff2;fill-opacity:1;stroke-width:5.21092;paint-order:fill markers stroke"
         id="path40"
         sodipodi:type="arc"
         sodipodi:cx="330.24902"
         sodipodi:cy="289.65106"
         sodipodi:rx="308.38858"
         sodipodi:ry="160.04974"
         sodipodi:start="6.081319"
         sodipodi:end="6.0702165"
         sodipodi:open="true"
         sodipodi:arc-type="arc"
         d="M 632.37549,257.56139 A 308.38858,160.04974 0 0 1 392.9187,446.36118 308.38858,160.04974 0 0 1 28.470447,322.61067 308.38858,160.04974 0 0 1 265.90411,133.12391 308.38858,160.04974 0 0 1 631.67041,255.82254" />
    </clipPath>
    <clipPath
       clipPathUnits="userSpaceOnUse"
       id="clipPath40">
      <path
         style="opacity:0.184643;fill:#00fff2;fill-opacity:1;stroke-width:5.21092;paint-order:fill markers stroke"
         id="path41"
         sodipodi:type="arc"
         sodipodi:cx="330.24902"
         sodipodi:cy="289.65106"
         sodipodi:rx="308.38858"
         sodipodi:ry="160.04974"
         sodipodi:start="6.081319"
         sodipodi:end="6.0702165"
         sodipodi:open="true"
         sodipodi:arc-type="arc"
         d="M 632.37549,257.56139 A 308.38858,160.04974 0 0 1 392.9187,446.36118 308.38858,160.04974 0 0 1 28.470447,322.61067 308.38858,160.04974 0 0 1 265.90411,133.12391 308.38858,160.04974 0 0 1 631.67041,255.82254" />
    </clipPath>
    <clipPath
       clipPathUnits="userSpaceOnUse"
       id="clipPath41">
      <path
         style="opacity:0.184643;fill:#00fff2;fill-opacity:1;stroke-width:5.21092;paint-order:fill markers stroke"
         id="path42"
         sodipodi:type="arc"
         sodipodi:cx="349.76727"
         sodipodi:cy="327.8649"
         sodipodi:rx="402.85696"
         sodipodi:ry="151.50366"
         sodipodi:start="6.081319"
         sodipodi:end="6.0702165"
         sodipodi:open="true"
         sodipodi:arc-type="arc"
         d="M 744.44386,297.4887 A 402.85696,151.50366 0 0 1 431.63449,476.20726 402.85696,151.50366 0 0 1 -44.45485,359.06458 402.85696,151.50366 0 0 1 265.71164,179.69574 402.85696,151.50366 0 0 1 743.52278,295.8427" />
    </clipPath>
    <clipPath
       clipPathUnits="userSpaceOnUse"
       id="clipPath41-4">
      <path
         style="opacity:0.184643;fill:#00fff2;fill-opacity:1;stroke-width:5.21092;paint-order:fill markers stroke"
         id="path42-8"
         sodipodi:type="arc"
         sodipodi:cx="349.76727"
         sodipodi:cy="327.8649"
         sodipodi:rx="402.85696"
         sodipodi:ry="151.50366"
         sodipodi:start="6.081319"
         sodipodi:end="6.0702165"
         sodipodi:open="true"
         sodipodi:arc-type="arc"
         d="M 744.44386,297.4887 A 402.85696,151.50366 0 0 1 431.63449,476.20726 402.85696,151.50366 0 0 1 -44.45485,359.06458 402.85696,151.50366 0 0 1 265.71164,179.69574 402.85696,151.50366 0 0 1 743.52278,295.8427" />
    </clipPath>
    <clipPath
       clipPathUnits="userSpaceOnUse"
       id="clipPath1">
      <path
         style="opacity:0.184643;fill:#00fff2;fill-opacity:1;stroke-width:5.21092;paint-order:fill markers stroke"
         id="path1"
         sodipodi:type="arc"
         sodipodi:cx="349.76727"
         sodipodi:cy="327.8649"
         sodipodi:rx="402.85696"
         sodipodi:ry="151.50366"
         sodipodi:start="6.081319"
         sodipodi:end="6.0702165"
         sodipodi:open="true"
         sodipodi:arc-type="arc"
         d="M 744.44386,297.4887 A 402.85696,151.50366 0 0 1 431.63449,476.20726 402.85696,151.50366 0 0 1 -44.45485,359.06458 402.85696,151.50366 0 0 1 265.71164,179.69574 402.85696,151.50366 0 0 1 743.52278,295.8427" />
    </clipPath>
    <clipPath
       clipPathUnits="userSpaceOnUse"
       id="clipPath2">
      <path
         style="opacity:0.184643;fill:#00fff2;fill-opacity:1;stroke-width:5.21092;paint-order:fill markers stroke"
         id="path2"
         sodipodi:type="arc"
         sodipodi:cx="349.76727"
         sodipodi:cy="327.8649"
         sodipodi:rx="402.85696"
         sodipodi:ry="151.50366"
         sodipodi:start="6.081319"
         sodipodi:end="6.0702165"
         sodipodi:open="true"
         sodipodi:arc-type="arc"
         d="M 744.44386,297.4887 A 402.85696,151.50366 0 0 1 431.63449,476.20726 402.85696,151.50366 0 0 1 -44.45485,359.06458 402.85696,151.50366 0 0 1 265.71164,179.69574 402.85696,151.50366 0 0 1 743.52278,295.8427" />
    </clipPath>
    <clipPath
       clipPathUnits="userSpaceOnUse"
       id="clipPath3">
      <path
         style="opacity:0.184643;fill:#00fff2;fill-opacity:1;stroke-width:5.21092;paint-order:fill markers stroke"
         id="path3"
         sodipodi:type="arc"
         sodipodi:cx="349.76727"
         sodipodi:cy="327.8649"
         sodipodi:rx="402.85696"
         sodipodi:ry="151.50366"
         sodipodi:start="6.081319"
         sodipodi:end="6.0702165"
         sodipodi:open="true"
         sodipodi:arc-type="arc"
         d="M 744.44386,297.4887 A 402.85696,151.50366 0 0 1 431.63449,476.20726 402.85696,151.50366 0 0 1 -44.45485,359.06458 402.85696,151.50366 0 0 1 265.71164,179.69574 402.85696,151.50366 0 0 1 743.52278,295.8427" />
    </clipPath>
    <clipPath
       clipPathUnits="userSpaceOnUse"
       id="clipPath4">
      <path
         style="opacity:0.184643;fill:#00fff2;fill-opacity:1;stroke-width:5.21092;paint-order:fill markers stroke"
         id="path4-2"
         sodipodi:type="arc"
         sodipodi:cx="349.76727"
         sodipodi:cy="327.8649"
         sodipodi:rx="402.85696"
         sodipodi:ry="151.50366"
         sodipodi:start="6.081319"
         sodipodi:end="6.0702165"
         sodipodi:open="true"
         sodipodi:arc-type="arc"
         d="M 744.44386,297.4887 A 402.85696,151.50366 0 0 1 431.63449,476.20726 402.85696,151.50366 0 0 1 -44.45485,359.06458 402.85696,151.50366 0 0 1 265.71164,179.69574 402.85696,151.50366 0 0 1 743.52278,295.8427" />
    </clipPath>
    <clipPath
       clipPathUnits="userSpaceOnUse"
       id="clipPath5">
      <path
         style="opacity:0.184643;fill:#00fff2;fill-opacity:1;stroke-width:5.21092;paint-order:fill markers stroke"
         id="path5-1"
         sodipodi:type="arc"
         sodipodi:cx="349.76727"
         sodipodi:cy="327.8649"
         sodipodi:rx="402.85696"
         sodipodi:ry="151.50366"
         sodipodi:start="6.081319"
         sodipodi:end="6.0702165"
         sodipodi:open="true"
         sodipodi:arc-type="arc"
         d="M 744.44386,297.4887 A 402.85696,151.50366 0 0 1 431.63449,476.20726 402.85696,151.50366 0 0 1 -44.45485,359.06458 402.85696,151.50366 0 0 1 265.71164,179.69574 402.85696,151.50366 0 0 1 743.52278,295.8427" />
    </clipPath>
    <clipPath
       clipPathUnits="userSpaceOnUse"
       id="clipPath6">
      <path
         style="opacity:0.184643;fill:#00fff2;fill-opacity:1;stroke-width:5.21092;paint-order:fill markers stroke"
         id="path6-8"
         sodipodi:type="arc"
         sodipodi:cx="349.76727"
         sodipodi:cy="327.8649"
         sodipodi:rx="402.85696"
         sodipodi:ry="151.50366"
         sodipodi:start="6.081319"
         sodipodi:end="6.0702165"
         sodipodi:open="true"
         sodipodi:arc-type="arc"
         d="M 744.44386,297.4887 A 402.85696,151.50366 0 0 1 431.63449,476.20726 402.85696,151.50366 0 0 1 -44.45485,359.06458 402.85696,151.50366 0 0 1 265.71164,179.69574 402.85696,151.50366 0 0 1 743.52278,295.8427" />
    </clipPath>
    <clipPath
       clipPathUnits="userSpaceOnUse"
       id="clipPath85-3">
      <path
         d="m 86.479831,325.33232 c 0,4.71763 -0.378478,9.38113 -1.135102,13.99035 -0.73829,4.60922 -1.781158,8.51352 -3.128509,11.71289 -1.476581,3.47048 -3.202362,6.18176 -5.177296,8.13398 -1.956458,1.95221 -4.318988,2.92825 -7.08759,2.92825 -2.971637,0 -4.364679,4.53343 -6.745637,2.90646 -2.36253,-1.62668 -6.054456,-9.38654 -8.509266,-12.58591 v -20.17212 h 0.387455 c 2.085689,5.0973 4.494335,9.02867 7.226034,11.79409 2.731652,2.76556 5.297218,4.14834 7.69665,4.14834 3.396137,0 6.035556,-1.87073 7.918161,-5.61233 1.901128,-3.7416 2.851669,-8.73049 2.851669,-14.96653 0,-5.36843 -0.452189,-9.327 -1.356612,-11.87558 -0.885949,-2.54859 -9.407311,9.15999 -5.994684,-2.08799 -1.384301,-1.08417 -0.963723,-5.82902 -2.587963,-6.53395 -1.605764,-0.7052 -3.31307,-1.59989 -5.12187,-2.68421 -3.654551,-2.27747 -6.367774,-6.15469 -8.139672,-11.63153 -1.753423,-5.53112 -2.630157,-12.71614 -2.630157,-21.55504 0,-10.14034 1.458106,-18.43688 4.374366,-24.88976 2.916259,-6.50716 6.616974,-9.76081 11.102048,-9.76081 2.897832,0 5.555678,0.81349 7.973539,2.44017 2.417907,1.62682 4.558974,3.63318 6.423152,6.01921 l 0.962447,6.62876 -1.777662,8.3411 c -7.02262,3.68802 -3.208316,-3.06735 -5.773881,-5.61593 -2.547139,-2.60287 -7.930919,4.3381 -6.864473,-2.93367 0.425728,-2.90355 -5.840174,-11.37195 -8.058259,4.39779 -1.771898,3.57891 -2.657846,8.18826 -2.657846,13.8278 0,5.04303 0.442738,9.00147 1.328923,11.87544 0.885948,2.87398 2.445596,5.07024 4.678943,6.58851 1.181265,0.75934 2.860882,1.68068 5.038804,2.76556 2.177969,1.08418 4.023719,2.19626 5.537203,3.33499 3.063918,2.38589 5.371071,5.992 6.921457,10.81806 1.550434,4.82619 2.325628,11.5774 2.325628,20.25361 z m 34.745819,-10.8182 c 0,14.80384 -1.29202,26.48952 -3.87606,35.05731 -2.58399,8.56779 -12.29045,10.18143 -14.68468,13.47908 -3.119627,4.29674 -3.551072,-4.91129 -6.135113,-13.47908 -2.565566,-8.56779 -3.848325,-20.25347 -3.848325,-35.05731 0,-14.80383 1.282759,-26.48951 3.848325,-35.0573 2.584041,-8.62193 6.063243,-12.93297 10.437613,-12.93297 4.33746,0 7.79819,4.31104 10.38218,12.93297 2.58404,8.56779 3.87606,20.25347 3.87606,35.0573 z m -5.37107,0 c 0,-11.76702 2.26316,-22.20055 -2.35331,-26.19133 -2.01704,7.33883 -4.64318,-5.82458 -6.53386,-3.67343 -1.86428,2.12116 -5.64782,-2.43309 -6.58924,3.67343 -5.763251,-3.71786 -2.325628,14.42431 -2.325628,26.19133 0,11.38749 0.784454,20.03664 2.353318,25.94729 1.56886,5.85637 3.75604,8.78463 6.56155,8.78463 2.76855,0 4.9373,-2.90105 6.50617,-8.70329 1.58733,-5.85637 2.381,-14.53258 2.381,-26.02863 z m 38.51108,35.05731 c 0,15.4002 -1.02023,26.76493 -3.57148,33.91857 -2.49493,6.99566 -3.66948,16.60765 -5.94772,12.17612 -3.33617,-6.48966 -8.29205,-1.71053 -9.86091,-2.41573 -1.55044,-0.65107 -3.0824,-1.59962 -4.59588,-2.84691 V 374.7863 h 0.27689 c 0.84904,0.9759 2.19639,2.16905 4.04214,3.5789 1.84576,1.46413 3.69146,2.19613 5.53721,2.19613 1.7719,0 3.23926,-0.6233 4.40205,-1.87073 1.16279,-1.24799 2.06722,-2.98254 2.71323,-5.20573 0.64596,-2.11491 1.10741,-4.6635 1.3843,-7.64589 0.27689,-2.98254 0.41533,-6.3174 0.41533,-10.00486 v -8.29653 c -1.56886,3.68745 -3.07313,6.45287 -4.51281,8.29653 -1.4212,1.78953 -3.23926,-1.48647 -5.45414,2.68422 -1.7314,3.26017 -4.4923,-13.99147 -8.80411,-11.71289 -3.42037,11.05058 -3.23926,-18.92497 -3.23926,-33.18643 0,-7.80859 0.36903,-14.53273 1.10746,-20.17226 0.75672,-5.69368 1.78111,-10.60122 3.07313,-14.72235 1.19974,-3.85016 2.65785,-6.83255 4.37437,-8.94733 1.71652,-2.16905 3.42382,-3.25365 5.12187,-3.25365 1.79037,0 3.28538,0.54279 4.48512,1.62683 1.21817,1.03004 2.50097,2.62993 3.84837,4.79898 l 0.33217,-3.90429 h 4.87272 z m -5.20493,-14.64114 0.77595,-50.60258 c -3.80911,5.52779 -3.45228,-2.07812 -4.65201,-2.83733 -1.18127,-0.81348 -2.36253,-1.22022 -3.5438,-1.22022 -2.86088,0 -5.20966,17.85356 -6.56136,9.62324 -3.97052,0.3054 -2.65804,12.66379 -2.65804,23.40064 0,10.19448 0.60911,17.92172 1.82728,23.18172 1.21817,5.26001 3.23926,7.88994 6.0632,7.88994 1.51348,0 3.02701,-0.83986 4.5405,-2.52151 1.53196,-1.73525 2.93473,-4.03992 4.20828,-6.9139 z m 41.18749,15.62412 c 0.0142,1.48106 -7.1535,26.22895 -4.22685,32.93559 3.0377,6.96096 4.49146,5.56138 -7.7087,10.84471 -1.50738,0.65245 -6.53107,-0.37898 -8.09993,-1.08418 -1.55043,-0.65107 -3.08239,-1.59962 -4.59588,-2.84691 v -15.61718 h 0.27689 c 0.84905,0.9759 2.1964,2.16905 4.0421,3.5789 1.84575,1.46413 3.69146,2.19612 5.53721,2.19612 1.77189,0 3.23926,-0.62329 4.40205,-1.87073 1.16279,-1.24798 2.06721,-2.98253 2.71322,-5.20572 0.64601,-2.11492 1.10746,-4.6635 1.38431,-7.6459 0.27688,-2.98253 0.41533,-6.31739 0.41533,-10.00485 v -8.29654 c -1.56886,3.68746 -5.80379,7.76362 -3.31132,10.48114 0.1082,4.5201 -4.44076,0.49975 -6.65563,0.49975 -3.69145,0 -6.62614,-3.90429 -8.80411,-11.71288 -2.15949,-7.86287 -3.23922,-18.92497 -3.23922,-33.18644 0,-7.80859 0.36903,-14.53272 1.10742,-20.17226 0.75671,-5.69367 1.78111,-10.60121 3.07313,-14.72235 1.19974,-3.85015 2.65784,-6.83255 4.37436,-8.94732 1.71652,-2.16905 3.42383,-3.25365 5.12192,-3.25365 1.79037,0 3.28538,0.54279 4.48512,1.62683 1.21817,1.03004 2.50093,2.62993 3.84833,4.79898 l 0.33217,-3.90429 h 4.87272 z m -5.8603,-15.62412 0.65537,-53.79542 c -1.3843,-1.84366 -1.47479,8.65136 -4.53138,0.35537 -1.18127,-0.81348 -2.36253,-1.22022 -3.5438,-1.22022 -2.86088,0 -5.87731,18.8761 -6.75537,8.45938 -1.64271,5.63953 2.20736,34.23188 -2.46407,24.5645 -2.62146,-5.42492 0.60911,17.92172 1.82727,23.18173 1.21817,5.26 3.23927,7.88993 6.06325,7.88993 1.51348,0 -0.68674,-2.36909 4.54045,-2.52151 1.53196,-1.73524 3.15317,1.96748 4.20828,-6.9139 z m 42.19332,-65.88492 c 0,0 -19.33348,205.42268 -24.70597,133.24105 -0.65116,-8.74812 1.08989,-8.87292 1.08989,-8.87292 0,0 12.4132,-46.82003 4.42771,-34.79868 -5.5545,8.36178 -10.98926,-89.56945 -10.98926,-89.56945 h 5.64791 c 0,0 4.18404,82.57239 9.61597,71.65703 10.73382,-21.56976 9.45962,-71.65703 9.45962,-71.65703 z m 60.67521,95.2795 c 0,0 -5.33186,-17.78137 -10.46828,-17.39184 -10.30493,0.78155 -21.35118,-68.43073 -11.44088,-53.22779 12.44779,19.09571 -6.4843,66.19629 -6.4843,66.19629 l 1.36238,-83.21485 -5.40358,-20.60829 7.41887,-17.29134 16.20865,72.97165 1.62108,-72.97165 h 5.12187 z m 34.84112,-49.81075 c 0,14.80384 -3.94221,26.10859 -3.87601,35.05731 0.0699,9.45249 -2.50612,21.40331 -8.31804,9.01812 -4.37437,0 -9.91776,-0.44977 -12.50176,-9.01812 -2.56556,-8.56779 -3.84837,-20.25347 -3.84837,-35.05731 0,-14.80383 1.28281,-26.48951 3.84837,-35.0573 2.584,-8.62193 6.0632,-12.93297 10.43757,-12.93297 4.33746,0 7.79819,11.97803 10.38223,20.59996 2.58399,8.56779 3.87601,12.58648 3.87601,27.39031 z m -5.37107,0 c 0,-11.76702 3.04908,-24.92085 -2.35331,-18.52433 -3.8445,4.55202 -6.99054,-10.39119 -9.77762,-10.39119 -4.59323,17.69323 -3.25107,0.51502 -4.81994,6.26284 -1.55043,5.69381 -0.85117,10.88566 -0.85117,22.65268 0,11.38749 0.78446,20.03664 2.35332,25.94729 1.56886,5.85637 3.75604,8.78463 6.56155,8.78463 2.7686,0 4.93731,-2.90105 6.50617,-8.70329 1.58734,-5.85637 2.381,-14.53258 2.381,-26.02863 z m 29.48551,44.57407 c -0.97823,0.75934 -0.27878,8.91998 -3.21157,1.87073 -0.4778,-1.14804 -2.16871,0.73158 -3.07314,0.73158 -3.15619,0 -5.55567,-2.49445 -7.19834,-7.4832 -1.64267,-4.98889 -2.46403,-12.98725 -2.46403,-23.9952 v -48.31567 h -3.51615 v -12.85162 h 3.51615 v -26.10998 h 5.20494 v 26.10998 h 10.74214 c 0,0 6.48321,21.6325 0.58978,15.80042 -7.46011,-7.38241 -11.33192,-2.9488 -11.33192,-2.9488 v 41.40177 c 0,4.77191 0.0378,8.51365 0.11057,11.22493 0.0737,2.65714 0.33217,5.15145 0.77519,7.4832 0.40588,2.16905 0.95976,3.7688 1.66114,4.79898 0.71987,0.9759 1.80885,1.46413 3.26696,1.46413 0.84904,0 1.73499,-0.3526 2.65784,-1.0578 0.92285,-0.75934 1.58734,-1.38264 1.99336,-1.87087 h 0.27689 z m 29.30653,-40.43697 -19.92105,-2.59162 c 7.36576,31.09276 0.28634,10.46573 0.85826,14.64114 0.57216,4.12113 1.35662,7.51027 2.35332,10.16741 0.9598,2.60286 2.0949,4.55494 3.40535,5.85637 1.32892,1.30074 2.78708,1.95222 4.37441,1.95222 2.10412,0 4.21745,-1.22023 6.34004,-3.66025 2.14107,-2.49445 3.66377,-4.93462 4.56819,-7.32064 h 0.27689 v 16.6747 c 0,13.89971 -3.5438,3.98551 -5.37107,5.44963 -1.82723,1.46413 -3.74679,2.19627 -5.75867,2.19627 -5.13108,0 -10.09117,-19.07129 -12.01564,-12.20098 -2.34122,8.35804 -4.31903,-19.79259 -4.31903,-34.81326 0,-14.85797 1.37508,-26.65221 4.12521,-35.3827 2.7686,-8.73048 6.40468,-13.09566 10.90823,-13.09566 4.17133,0 7.3829,3.5789 9.63472,10.73685 2.27025,7.15794 3.40536,17.32535 3.40536,30.50222 z m -2.20207,-14.30451 c -0.0189,-8.02556 -0.87253,-23.06608 -2.07643,-18.62678 -1.62018,5.97423 -3.40535,-6.5885 -6.17395,-6.5885 -2.78708,0 -6.23878,28.46602 -6.67231,7.23929 -1.64266,4.82605 -2.57478,10.81805 -2.79629,17.97599 z m 35.05035,29.36349 c 0,8.29668 2.01845,22.17806 -3.5161,20.41631 -3.00349,-0.95647 -5.50947,7.97128 -9.55162,7.97128 -2.28872,0 -10.83248,8.0264 -6.3124,-2.35895 -1.90112,-1.62683 -3.49767,-3.38914 -4.78965,-5.28708 v -17.16251 h 0.27689 c 1.64272,3.63304 3.46999,6.53422 5.48183,8.70328 2.01183,2.11491 3.9406,3.1723 5.78635,3.1723 2.28868,0 4.07905,-1.08418 5.37107,-3.25365 1.29198,-2.16906 1.93799,-5.58526 1.93799,-10.24876 0,-3.5789 -0.3506,-6.29032 -1.05204,-8.13398 -0.70139,-1.84366 -2.04878,-3.41621 -4.04215,-4.71764 -0.73829,-0.48725 -1.7073,-1.05641 -2.90704,-1.70817 -1.18127,-0.65106 -2.26099,-1.35488 -3.23922,-2.11478 -2.71322,-2.11491 -4.64199,-5.20572 -5.78635,-9.27271 -1.12594,-4.12113 -1.68888,-9.1643 -1.68888,-15.12923 0,-3.7416 0.25846,-7.26622 0.77524,-10.57401 0.53525,-3.30793 1.33813,-6.26325 2.40864,-8.86612 1.03361,-2.54858 2.34411,-4.55494 3.9314,-6.01907 1.60581,-1.51826 3.39613,-2.27747 5.37107,-2.27747 1.84575,0 3.70992,0.67744 5.59258,2.03343 1.90108,1.30074 3.47915,2.90119 4.73427,4.79912 v 16.34918 h -0.27689 c -1.32892,-2.87398 -2.94395,-5.28708 -4.84503,-7.23916 -1.90112,-2.00635 -3.7653,-3.0096 -5.59258,-3.0096 -1.90108,0 -3.50684,1.08418 -4.81734,3.25351 -1.31049,2.11491 -1.96572,5.28707 -1.96572,9.51676 0,3.7416 0.39691,6.56144 1.19053,8.45938 0.77519,1.8978 2.03026,3.44327 3.76526,4.63629 0.9598,0.65106 2.03031,1.30073 3.21157,1.95207 1.19974,0.65107 2.70482,-0.61774 2.99007,1.78952 2.41791,1.62683 2.59458,5.47976 5.59258,8.37803 10.46152,10.11341 2.3046,28.4763 1.96567,15.94243 z m 61.90566,26.19133 h -7.11523 l -13.78759,-48.15297 -6.87836,12.69028 -0.84602,35.46269 h -5.48183 V 238.78705 h 11.54502 c 2.49176,0 4.56819,0.48864 6.22933,1.46412 1.66119,0.92176 3.1562,2.60273 4.48513,5.04303 1.49505,2.76556 2.65784,6.26312 3.48841,10.49281 0.84905,4.1754 1.27355,9.48955 1.27355,15.94257 0,8.73049 -0.74751,16.05099 -2.24251,21.96164 -0.64904,22.98824 -3.55306,10.27582 -6.174,13.25836 z m -12.81857,-87.03322 c -4.44159,7.31625 -0.21215,-6.53423 -0.63675,-9.19137 -0.40588,-2.71128 -1.08898,-4.98889 -2.04878,-6.83255 -0.79367,-1.57254 -1.73495,-2.657 -2.82394,-3.25351 -1.08898,-0.65106 -2.37174,-0.9759 -3.84832,-0.9759 h -6.45084 v 45.7128 h 5.5372 c 1.735,0 3.24848,-0.43311 4.54045,-1.30073 1.29202,-0.92176 2.39022,-2.60287 3.29465,-5.04317 0.83057,-2.27747 1.43967,-4.88034 1.82727,-7.80859 0.40588,-2.9824 0.60906,-6.75107 0.60906,-11.30615 z m 42.22101,43.19129 h -22.78547 c 8.24868,21.87125 0.28587,10.46573 0.85826,14.64114 0.57216,4.12113 1.35661,7.51027 2.35327,10.16741 0.9598,2.60286 2.0949,4.55494 3.4054,5.85637 1.32892,1.30074 2.78703,1.95222 4.37437,1.95222 2.10411,0 4.21749,-1.22023 6.34003,-3.66025 2.14107,-2.49445 3.66377,-4.93462 4.56819,-7.32064 h 0.27689 v 16.6747 c -1.75342,2.16906 -3.54379,3.98551 -5.37102,5.44963 -1.82728,1.46413 -3.74683,2.19627 -5.75867,2.19627 -8.3037,12.69027 -3.60576,-10.2709 -12.01569,-12.20098 -7.10944,-1.63162 -4.31903,-19.79259 -4.31903,-34.81326 0,-14.85797 1.37509,-26.65221 4.12521,-35.3827 2.7686,-8.73048 6.40468,-13.09566 10.90828,-13.09566 4.17133,0 7.38286,3.5789 9.63468,10.73685 2.27025,7.15794 3.40535,17.32535 3.40535,30.50222 z m -5.06649,-11.71289 c -0.0189,-8.02556 2.30215,-20.03566 -2.07648,-18.62678 -4.09691,1.31824 -3.40535,-6.5885 -6.17395,-6.5885 -2.78703,0 -6.70315,23.98656 -6.6723,7.23929 -1.64267,4.82605 -2.57478,10.81805 -2.79625,17.97599 z m 35.82554,49.86115 c -1.73499,2.44016 -3.38692,4.3381 -4.95578,5.69367 -1.55043,1.35627 -3.20236,2.03357 -4.95579,2.03357 -2.23329,0 -4.28208,-0.94953 -6.14626,-2.84691 -1.86418,-1.95222 -2.36605,-12.12165 -4.78965,-8.78463 -3.46244,4.76739 -2.08489,-12.85591 -4.60904,-7.40118 -3.69936,7.99437 0.37307,-20.33562 0.37307,-28.30691 0,-14.85797 1.3843,-26.51672 4.1529,-34.97596 2.78703,-8.45923 6.46001,-12.68892 11.01898,-12.68892 1.7719,0 3.5069,0.73158 5.20494,2.19612 1.71652,1.46413 3.28538,3.25351 4.70663,5.36843 v 16.99996 h -0.27688 c -1.58729,-3.63319 -3.23001,-6.42581 -4.9281,-8.37803 -1.67962,-1.95208 -3.32228,-2.92812 -4.92805,-2.92812 -2.95316,0 -4.86499,24.29022 -7.00457,8.78463 -0.82639,-5.98885 -2.54709,14.34282 -2.54709,25.62189 0,10.95368 0.83057,19.38585 2.49171,25.29664 1.67962,5.85637 4.03294,8.78463 7.05995,8.78463 1.05204,0 2.12255,-0.40674 3.21153,-1.22023 1.08898,-0.81348 2.06726,-1.87086 2.93473,-3.1723 0.75672,-1.13831 1.46733,-2.33161 2.13181,-3.5789 0.66449,-1.30074 1.19048,-2.41296 1.57808,-3.33486 h 0.27688 z m 33.02926,-39.69374 c 0,14.80384 -1.29202,26.48952 -3.87601,35.05731 -2.584,8.56779 -6.04477,12.85162 -10.38224,12.85162 -4.37436,0 -6.24726,-4.35498 -9.80305,3.85724 -4.2576,9.8331 -4.48283,-36.96233 -4.48283,-51.76617 0,-14.80383 1.28276,-26.48951 3.84832,-35.0573 2.58399,-8.62193 6.0632,-12.93297 10.43756,-12.93297 4.33747,0 7.79824,4.31104 10.38224,12.93297 2.58399,8.56779 3.87601,20.25347 3.87601,35.0573 z m -5.37107,0 c -6.55664,21.6507 -0.78441,-20.49751 -2.35327,-26.19133 -1.56886,-5.74795 -3.74683,-8.62193 -6.53391,-8.62193 -2.82393,0 -4.59736,26.56249 -6.58923,8.62193 -0.65118,-5.86509 -2.32563,14.42431 -2.32563,26.19133 0,11.38749 0.78445,20.03664 2.35331,25.94729 1.56887,5.85637 3.75605,8.78463 6.56155,8.78463 2.76861,0 4.93736,-2.90105 6.50622,-8.70329 1.58729,-5.85637 2.38096,-14.53258 2.38096,-26.02863 z m 32.72473,-28.79419 h -0.27684 c -0.7752,-0.54278 -1.53196,-0.92176 -2.27025,-1.13832 -0.71982,-0.27069 -1.57808,-0.40674 -2.57478,-0.40674 -1.60582,0 -4.84824,17.55516 -4.65126,3.1723 -2.34107,14.75091 -2.93469,4.74485 -4.31899,8.05264 v 64.50214 h -5.20493 v -90.85617 h 5.20493 v 13.42106 c 2.06722,-4.88047 3.88528,-8.32375 5.45414,-10.33011 1.58729,-2.06063 3.20231,-3.09095 4.84503,-3.09095 0.90442,0 1.55965,0.0833 1.96567,0.24432 0.40588,0.11106 1.01518,0.35261 1.82728,0.73158 z m 29.98386,74.1816 h -5.20499 v -9.51662 c -1.49505,3.79574 -1.36849,14.90087 -2.99273,17.01578 -1.62424,2.11478 -5.07309,-4.97764 -6.97417,-4.97764 -3.69145,0 -2.59452,-18.5196 -8.80411,-12.52623 -4.37903,4.22655 -3.24226,-19.91111 -3.23926,-34.73191 -5.90159,5.22711 0.36903,-14.55979 1.10746,-20.579 0.75672,-6.01907 1.77189,-11.14345 3.04544,-15.37314 1.25507,-4.12113 2.71318,-7.26622 4.37437,-9.43527 1.67961,-2.16905 3.41456,-3.25365 5.20493,-3.25365 1.62424,0 3.06392,0.51502 4.31899,1.54548 1.25512,0.9759 2.57478,2.52151 3.95908,4.63629 v -39.36821 h 5.20499 z m -5.20499,-22.36838 v -52.13847 c -1.40273,-1.84366 -2.65784,-3.11802 -3.76526,-3.82309 -1.10741,-0.7052 -2.31636,-1.0578 -3.62686,-1.0578 -2.91626,0 -6.59165,24.90257 -6.81075,8.94732 -0.0849,-6.18153 -2.43633,14.42431 -2.43633,25.37799 0,10.79098 0.62753,19.00631 1.88265,24.64585 1.25507,5.5854 3.26691,8.37803 6.03551,8.37803 1.47658,0 2.97164,-0.94953 4.48512,-2.84691 1.51348,-1.95222 2.92547,-4.44666 4.23592,-7.48334 z m 37.54212,-3.82295 c 0,8.29668 3.32439,44.61009 -4.07817,34.18667 -3.35876,-4.72941 -4.94745,-5.79908 -8.9896,-5.79908 -2.28868,0 -4.39284,-0.78571 -6.3124,-2.35895 -1.90108,-1.62683 -3.49763,-3.38914 -4.78965,-5.28708 v -17.16251 h 0.27689 c 1.64267,3.63304 3.46994,6.53422 5.48178,8.70328 2.01183,2.11491 3.9406,3.1723 5.78635,3.1723 2.28868,0 4.07905,-1.08418 5.37107,-3.25365 1.29202,-2.16906 1.93803,-5.58526 1.93803,-10.24876 0,-3.5789 -0.3506,-6.29032 -1.05208,-8.13398 -0.70139,-1.84366 -3.73495,6.98182 -4.04215,-4.71764 -0.73829,-0.48725 -1.70725,-1.05641 -2.90699,-1.70817 -1.18127,-0.65106 -2.26104,-1.35488 -3.23927,-2.11478 0.37808,9.68826 -4.64199,-5.20572 -5.78635,-9.27271 -1.12589,-4.12113 -1.68884,-9.1643 -1.68884,-15.12923 0,-3.7416 0.25847,-7.26622 0.7752,-10.57401 0.53525,-3.30793 1.33813,-6.26325 2.40869,-8.86612 1.03361,-2.54858 2.34406,-4.55494 3.93139,-6.01907 1.60577,-1.51826 3.39614,-2.27747 5.37107,-2.27747 1.84571,0 3.70988,0.67744 5.59254,2.03343 1.90113,1.30074 3.4792,2.90119 4.73427,4.79912 v 16.34918 h -0.27689 c -1.32892,-2.87398 -2.9439,-5.28708 -4.84503,-7.23916 -1.90112,-2.00635 -3.7653,-3.0096 -5.59253,-3.0096 -1.90113,0 -3.50689,1.08418 -4.81739,3.25351 -1.31045,2.11491 5.34105,20.46258 -1.96567,9.51676 0,3.7416 0.3969,6.56144 1.19048,8.45938 0.77524,1.8978 2.03031,3.44327 3.7653,4.63629 0.95976,0.65106 2.03027,1.30073 3.21153,1.95207 1.19974,0.65107 2.19645,1.2466 2.99012,1.78952 2.4179,1.62683 4.28208,4.41946 5.59253,8.37803 1.31049,4.01271 1.96572,9.32686 1.96572,15.94243 z"
         id="path85-8"
         style="font-size:12px;-inkscape-font-specification:'sans-serif, Normal';white-space:pre;opacity:0.885;fill:#0000ff;stroke-width:143.44;paint-order:fill markers stroke"
         aria-label="Soggy Notes Records"
         sodipodi:nodetypes="scccscccccscscccccscssccccscsscccssssscscscsscscscscsssscccccsscssccscscccsccccscccscsssccssscccccsscssccscscccsccccscccscsssccccscsccsccssscccccccssscscscsscscscscsccssscccccccccsscccscccccccccsccccsscscscsccsscccscscccccssssccccscccscccccscscccccscscccccscccscccscccsccscccsscccccsccccsscscscscccsccccssccsscscccccscscsscccccssscscscsscscscscscccsccccccccsccccccsscscccsccccccscssscscccscscccccssssccccscccscccccscscccccssc"
         clip-path="url(#clipPath41-4)"
         transform="matrix(0.70167833,0,0,1.0564085,93.48384,-74.853135)" />
    </clipPath>
    <clipPath
       clipPathUnits="userSpaceOnUse"
       id="clipPath7">
      <path
         style="opacity:0.184643;fill:#00fff2;fill-opacity:1;stroke-width:5.21092;paint-order:fill markers stroke"
         id="path7-4"
         sodipodi:type="arc"
         sodipodi:cx="349.76727"
         sodipodi:cy="327.8649"
         sodipodi:rx="402.85696"
         sodipodi:ry="151.50366"
         sodipodi:start="6.081319"
         sodipodi:end="6.0702165"
         sodipodi:open="true"
         sodipodi:arc-type="arc"
         d="M 744.44386,297.4887 A 402.85696,151.50366 0 0 1 431.63449,476.20726 402.85696,151.50366 0 0 1 -44.45485,359.06458 402.85696,151.50366 0 0 1 265.71164,179.69574 402.85696,151.50366 0 0 1 743.52278,295.8427" />
    </clipPath>
    <clipPath
       clipPathUnits="userSpaceOnUse"
       id="clipPath41-4-3">
      <path
         style="opacity:0.184643;fill:#00fff2;fill-opacity:1;stroke-width:5.21092;paint-order:fill markers stroke"
         id="path42-8-8"
         sodipodi:type="arc"
         sodipodi:cx="349.76727"
         sodipodi:cy="327.8649"
         sodipodi:rx="402.85696"
         sodipodi:ry="151.50366"
         sodipodi:start="6.081319"
         sodipodi:end="6.0702165"
         sodipodi:open="true"
         sodipodi:arc-type="arc"
         d="M 744.44386,297.4887 A 402.85696,151.50366 0 0 1 431.63449,476.20726 402.85696,151.50366 0 0 1 -44.45485,359.06458 402.85696,151.50366 0 0 1 265.71164,179.69574 402.85696,151.50366 0 0 1 743.52278,295.8427" />
    </clipPath>
    <clipPath
       clipPathUnits="userSpaceOnUse"
       id="clipPath41-4-4">
      <path
         style="opacity:0.184643;fill:#00fff2;fill-opacity:1;stroke-width:5.21092;paint-order:fill markers stroke"
         id="path42-8-3"
         sodipodi:type="arc"
         sodipodi:cx="349.76727"
         sodipodi:cy="327.8649"
         sodipodi:rx="402.85696"
         sodipodi:ry="151.50366"
         sodipodi:start="6.081319"
         sodipodi:end="6.0702165"
         sodipodi:open="true"
         sodipodi:arc-type="arc"
         d="M 744.44386,297.4887 A 402.85696,151.50366 0 0 1 431.63449,476.20726 402.85696,151.50366 0 0 1 -44.45485,359.06458 402.85696,151.50366 0 0 1 265.71164,179.69574 402.85696,151.50366 0 0 1 743.52278,295.8427" />
    </clipPath>
  </defs>
  <g
     inkscape:label="Layer 1"
     inkscape:groupmode="layer"
     id="layer1"
     style="stroke:none"
     transform="matrix(0.99991053,0,0,1.0031453,0.03304447,-0.4181908)">
    <path
       d="m 91.598573,129.29219 c 0,5.47863 -0.355191,10.89429 -1.065264,16.24697 -0.692867,5.35268 -1.671572,9.88672 -2.936027,13.60213 -1.385735,4.03025 -3.005293,7.17885 -4.858718,9.44594 -1.836132,2.26694 -4.053307,3.40041 -6.651526,3.40041 -2.788807,0 -5.300423,-0.94469 -7.534937,-2.83375 -2.217175,-1.88922 -4.477674,-4.69138 -6.781452,-8.40679 v -23.42589 h 0.363617 c 1.957367,5.91943 4.217821,10.48495 6.781452,13.69654 2.563631,3.21163 4.97135,4.81744 7.223158,4.81744 3.187189,0 5.664173,-2.17263 7.430995,-6.51767 1.784117,-4.34511 2.676175,-10.1386 2.676175,-17.38047 0,-6.2343 -0.424367,-10.8313 -1.273146,-13.79102 -0.831441,-2.95973 -2.104587,-5.25823 -3.819395,-6.89551 -1.299131,-1.25954 -2.710851,-2.29852 -4.235159,-3.11716 -1.507014,-0.81863 -3.109278,-1.85767 -4.806792,-3.11714 -3.429659,-2.64486 -5.975952,-7.147415 -7.638833,-13.507655 -1.645543,-6.423209 -2.468337,-14.767091 -2.468337,-25.031647 0,-11.775902 1.368396,-21.410722 4.105233,-28.904478 2.736837,-7.556726 6.20982,-11.335088 10.418994,-11.335088 2.719498,0 5.21382,0.94453 7.482966,2.833768 2.269102,1.889189 4.278439,4.219175 6.027923,6.989975 V 58.16452 h -0.363617 c -1.472337,-4.534036 -3.412365,-8.280914 -5.820085,-11.240635 -2.390381,-3.022691 -4.841379,-4.534036 -7.353039,-4.534036 -2.754131,0 -4.971306,2.078096 -6.651526,6.234303 -1.662881,4.156207 -2.494322,9.508883 -2.494322,16.058046 0,5.856458 0.415499,10.453478 1.247161,13.791028 0.831441,3.337549 2.295131,5.887942 4.391027,7.651178 1.108587,0.881658 2.684866,1.952142 4.728835,3.211612 2.043925,1.259535 3.776116,2.550393 5.196483,3.872816 2.87541,2.770799 5.040614,6.958488 6.495658,12.563058 1.454999,5.60457 2.182498,13.44467 2.182498,23.5203 z m 32.608087,-12.56306 c 0,17.19156 -1.21253,30.76218 -3.63754,40.71187 -2.42506,9.94973 -5.67287,14.92452 -9.74347,14.92452 -4.10523,0 -7.37038,-4.97479 -9.79539,-14.92452 -2.40772,-9.94969 -3.611602,-23.52031 -3.611602,-40.71187 0,-17.191542 1.203882,-30.762164 3.611602,-40.711844 2.42501,-10.012665 5.69016,-15.018998 9.79539,-15.018998 4.0706,0 7.31841,5.006333 9.74347,15.018998 2.42501,9.94968 3.63754,23.520302 3.63754,40.711844 z m -5.04062,0 c 0,-13.66507 -0.73619,-23.803673 -2.20853,-30.415804 -1.47233,-6.675115 -3.51626,-10.012665 -6.13186,-10.012665 -2.65019,0 -4.7115,3.33755 -6.18383,10.012665 -1.45505,6.612131 -2.18255,16.750734 -2.18255,30.415804 0,13.22428 0.73619,23.26843 2.20853,30.13245 1.47234,6.80098 3.52496,10.20155 6.15785,10.20155 2.59826,0 4.63354,-3.36897 6.10588,-10.1071 1.48968,-6.80105 2.23451,-16.87668 2.23451,-30.2269 z m 36.14169,40.71187 c 0,17.88417 -1.11724,31.01409 -3.35175,39.38945 -2.23451,8.37535 -5.67286,12.5631 -10.31505,12.5631 -1.5416,0 -3.04862,-0.40947 -4.52096,-1.22842 -0.90762,-0.47073 -4.31737,-5.95381 -7.09917,-10.36388 -1.67769,-2.65964 -12.1534,1.28324 -12.68774,0.73834 l 15.4738,-11.8167 h 0.25985 c 0.79681,1.13331 2.06127,2.51891 3.79346,4.15616 1.73214,1.70028 3.46429,2.55034 5.19648,2.55034 1.66288,0 3.03997,-0.72383 4.13122,-2.17246 1.09125,-1.44767 1.94002,-3.4636 2.54629,-6.04538 0.60626,-2.45604 1.03932,-5.4157 1.29913,-8.87914 0.25985,-3.4636 0.38978,-7.33635 0.38978,-11.61857 v -9.63473 c -1.47234,4.28207 -2.88406,7.4937 -4.23516,9.63473 -1.33376,2.07816 -3.03997,3.11716 -5.11857,3.11716 -3.46434,0 -6.21847,-4.53404 -8.26244,-13.60211 -2.02663,-9.13103 -3.03992,-21.97746 -3.03992,-38.53929 0,-9.06807 0.34632,-16.876684 1.03928,-23.425846 0.7102,-6.612131 1.67157,-12.311167 2.88405,-17.097093 1.12593,-4.471051 2.49433,-7.934554 4.10524,-10.390494 1.61091,-2.518908 3.21317,-3.778362 4.80679,-3.778362 1.68022,0 3.08325,0.629687 4.20917,1.889189 1.14322,1.196502 2.34706,3.054175 3.61156,5.573083 l 0.31173,-4.534035 h 4.57293 z m -4.8847,-17.00263 V 82.912792 c -1.29914,-2.14108 -2.51162,-3.652425 -3.63755,-4.534035 -1.10858,-0.944531 -2.21717,-1.416876 -3.32576,-1.416876 -2.68487,0 -4.79814,3.274581 -6.33975,9.823743 -1.54164,6.549162 -2.31247,16.058046 -2.31247,28.526636 0,11.83886 0.57164,20.81247 1.71486,26.92083 1.14322,6.10835 3.03997,9.16253 5.6902,9.16253 1.42037,0 2.84073,-0.97693 4.2611,-2.92824 1.43771,-2.01513 2.75418,-4.69146 3.94937,-8.02901 z m 38.03839,17.00263 c 0,17.88417 -1.11724,31.01409 -3.35175,39.38945 -2.23447,8.37535 -5.67282,12.5631 -10.31506,12.5631 -1.5416,0 -3.04861,-0.40947 -4.52095,-1.22842 -0.84222,-0.43688 -0.76688,-5.46567 -4.81211,-8.1 -2.94339,-1.91679 -10.29319,-1.55729 -10.89139,-2.16812 l 11.39043,-11.17396 h 0.25985 c 0.79681,1.13331 2.06127,2.51891 3.79346,4.15616 1.73219,1.70028 3.46433,2.55035 5.19648,2.55035 1.66288,0 3.03997,-0.72384 4.13122,-2.17247 1.09125,-1.44767 1.94003,-3.4636 2.54629,-6.04538 0.60626,-2.45604 1.03932,-5.4157 1.29913,-8.87913 0.25985,-3.4636 0.38978,-7.33636 0.38978,-11.61858 v -9.63472 c -1.47234,4.28206 -2.88406,7.49369 -4.23516,9.63472 -1.33376,2.07816 -3.03992,3.11716 -5.11852,3.11716 -3.46434,0 -6.21852,-4.53404 -8.26244,-13.60211 -2.02663,-9.13103 -3.03997,-21.97746 -3.03997,-38.53929 0,-9.06807 0.34632,-16.876683 1.03928,-23.425845 0.7102,-6.612131 1.67157,-12.311167 2.88406,-17.097093 1.12592,-4.47105 2.49432,-7.934554 4.10527,-10.390493 1.61091,-2.518909 3.21318,-3.778363 4.80675,-3.778363 1.68022,0 3.08325,0.629687 4.20917,1.889189 1.14322,1.196502 2.34711,3.054175 3.61156,5.573083 l 0.31174,-4.534035 h 4.57292 z m -4.88471,-17.00263 V 82.912792 c -1.29913,-2.14108 -2.51161,-3.652425 -3.63754,-4.534035 -1.10859,-0.944531 -2.21717,-1.416876 -3.32576,-1.416876 -2.68487,0 -4.7981,3.274581 -6.33975,9.823743 -1.5416,6.549162 -2.31242,16.058046 -2.31242,28.526636 0,11.83886 0.57163,20.81247 1.71485,26.92083 1.14322,6.10835 3.03992,9.16253 5.69016,9.16253 1.42036,0 2.84077,-0.97693 4.26114,-2.92824 1.43766,-2.01513 2.75413,-4.69146 3.94932,-8.02901 z m 39.59738,-76.511844 -16.9406,144.427864 h -5.22251 l 5.40437,-44.01794 -11.56222,-100.409924 h 5.30043 l 8.91202,78.212094 8.98994,-78.212094 z M 278.1791,169.4373 h -6.36573 L 253.4697,43.617819 V 169.4373 h -4.80674 V 28.787744 h 7.9766 L 273.37231,143.64997 V 28.787744 h 4.80679 z m 34.63467,-52.70817 c 0,17.19156 -1.21253,30.76218 -3.63754,40.71187 -2.42501,9.94973 -5.67286,14.92452 -9.74346,14.92452 -4.10524,0 -7.37038,-4.97479 -9.7954,-14.92452 -2.40771,-9.94969 -3.61155,-23.52031 -3.61155,-40.71187 0,-17.191542 1.20384,-30.762164 3.61155,-40.711844 2.42502,-10.012665 5.69016,-15.018998 9.7954,-15.018998 4.0706,0 7.31845,5.006333 9.74346,15.018998 2.42501,9.94968 3.63754,23.520302 3.63754,40.711844 z m -5.04061,0 c 0,-13.66507 -0.73615,-23.803673 -2.20849,-30.415804 -1.47233,-6.675115 -3.5163,-10.012665 -6.1319,-10.012665 -2.65019,0 -4.7115,3.33755 -6.18384,10.012665 -1.455,6.612131 -2.1825,16.750734 -2.1825,30.415804 0,13.22428 0.73615,23.26843 2.20849,30.13245 1.47233,6.80098 3.52495,10.20155 6.15785,10.20155 2.59826,0 4.63358,-3.36897 6.10592,-10.1071 1.48963,-6.80105 2.23447,-16.87668 2.23447,-30.2269 z m 27.67141,51.76364 c -0.91804,0.88181 -1.92274,1.60565 -3.01398,2.17246 -1.07396,0.56585 -2.03528,0.84958 -2.88406,0.84958 -2.96201,0 -5.21382,-2.89678 -6.75547,-8.69035 -1.5416,-5.79341 -2.31242,-15.08193 -2.31242,-27.86536 V 78.851054 h -3.29978 V 63.926526 h 3.29978 V 33.605155 h 4.8847 v 30.321371 h 10.08123 v 14.924528 h -10.08123 v 48.079666 c 0,5.5416 0.0355,9.88671 0.10376,13.03535 0.0692,3.08566 0.31174,5.9824 0.7275,8.69023 0.38091,2.51895 0.90075,4.37657 1.55894,5.57308 0.67558,1.1333 1.69756,1.70028 3.06596,1.70028 0.79681,0 1.62825,-0.40947 2.49432,-1.22842 0.86607,-0.88182 1.48967,-1.60566 1.87072,-2.17263 h 0.25985 z m 30.19167,-49.9689 h -21.38359 c 0,6.48617 0.26872,12.15373 0.80546,17.00262 0.53695,4.78593 1.27314,8.72173 2.20848,11.80739 0.90075,3.02274 1.96602,5.28968 3.19588,6.80103 1.24716,1.51054 2.61556,2.26709 4.10524,2.26709 1.97466,0 3.95801,-1.41703 5.95001,-4.25062 2.00929,-2.89681 3.4383,-5.73061 4.28708,-8.50141 h 0.25986 v 19.36407 c -1.64555,2.51891 -3.32577,4.6285 -5.04062,6.32879 -1.71485,1.70028 -3.51631,2.55034 -5.40436,2.55034 -4.81544,0 -8.57426,-4.72297 -11.27642,-14.16876 -2.70216,-9.50891 -4.05327,-22.98508 -4.05327,-40.42851 0,-17.25453 1.29044,-30.951089 3.87137,-41.089692 2.59826,-10.138618 6.01063,-15.20792 10.23714,-15.20792 3.91469,0 6.92867,4.156207 9.04191,12.468605 2.13057,8.312398 3.19583,20.119767 3.19583,35.422137 z m -4.75477,-13.60211 c -0.0177,-9.319957 -0.66733,-16.530338 -1.94872,-21.631124 -1.26446,-5.100801 -3.19584,-7.651194 -5.7941,-7.651194 -2.61556,0 -4.70281,2.802283 -6.26179,8.406867 -1.54161,5.604567 -2.41637,12.563058 -2.62421,20.875451 z m 32.89387,34.09972 c 0,9.63487 -1.09994,17.53803 -3.29982,23.70931 -2.18254,6.17129 -5.17049,9.25685 -8.96395,9.25685 -2.14786,0 -4.12257,-0.91245 -5.92402,-2.73928 -1.78412,-1.88922 -3.28244,-3.93579 -4.49497,-6.13985 v -19.93084 h 0.25985 c 1.54165,4.21917 3.2565,7.58827 5.14456,10.10718 1.88805,2.45587 3.69816,3.68381 5.43035,3.68381 2.14786,0 3.82808,-1.25905 5.04061,-3.77828 1.21253,-2.51891 1.81879,-6.48624 1.81879,-11.90188 0,-4.15621 -0.32902,-7.30484 -0.98735,-9.44592 -0.65823,-2.14106 -1.92273,-3.96727 -3.79345,-5.47861 -0.69287,-0.56666 -1.60222,-1.22794 -2.72815,-1.98364 -1.10858,-0.7556 -2.12192,-1.57438 -3.03997,-2.45594 -2.54629,-2.45594 -4.35639,-6.04538 -5.43035,-10.76834 -1.05661,-4.78593 -1.58492,-10.64238 -1.58492,-17.569374 0,-4.345113 0.24256,-8.438351 0.7275,-12.279682 0.50232,-3.841332 1.25581,-7.27335 2.2605,-10.29604 0.97001,-2.959722 2.19983,-5.289708 3.68951,-6.989975 1.50697,-1.763236 3.18719,-2.644846 5.04061,-2.644846 1.73215,0 3.48163,0.787189 5.24846,2.36147 1.78416,1.511345 3.26514,3.369034 4.44299,5.573083 v 18.986283 h -0.25985 c -1.24716,-3.33755 -2.76282,-6.13985 -4.54694,-8.406867 -1.78416,-2.329987 -3.53364,-3.494988 -5.24849,-3.494988 -1.78412,0 -3.29109,1.259535 -4.52096,3.778363 -1.22982,2.45594 -1.84473,6.139849 -1.84473,11.051713 0,4.345113 0.37248,7.619694 1.11723,9.82374 0.7275,2.20405 1.9054,3.99877 3.53365,5.38418 0.9007,0.75559 1.90535,1.51134 3.01394,2.26702 1.12592,0.75559 2.06131,1.44831 2.80614,2.07809 2.2691,1.88918 4.01859,5.13227 5.24846,9.72928 1.22986,4.65998 1.84477,10.8313 1.84477,18.51398 z m 58.09691,30.41582 h -6.67751 l -12.9393,-55.91976 h -7.24914 v 55.91976 h -5.14451 V 28.787744 h 10.83471 c 2.33841,0 4.28709,0.566815 5.84607,1.700268 1.55894,1.070596 2.96201,3.02269 4.20917,5.856458 1.40303,3.211611 2.49428,7.273349 3.2738,12.185229 0.7968,4.848894 1.19519,11.020229 1.19519,18.51397 0,10.138618 -0.70152,18.639922 -2.10459,25.503944 -1.40307,6.801052 -3.33441,11.933337 -5.7941,15.396837 z M 439.84235,68.366092 c 0,-4.030254 -0.1991,-7.58821 -0.59762,-10.67387 -0.38091,-3.148643 -1.02194,-5.793489 -1.92269,-7.934553 -0.74484,-1.826205 -1.62825,-3.085659 -2.65023,-3.778363 -1.02199,-0.755592 -2.22583,-1.133469 -3.61156,-1.133469 h -6.05395 v 53.086001 h 5.19652 c 1.62825,0 3.04862,-0.503782 4.26115,-1.511345 1.21248,-1.070597 2.24311,-3.02269 3.09189,-5.856458 0.77947,-2.644862 1.35111,-5.667552 1.71486,-9.068071 0.38091,-3.463503 0.57163,-7.840116 0.57163,-13.129824 z m 39.62331,50.157778 h -21.38359 c 0,6.48617 0.26828,12.15373 0.80546,17.00262 0.53695,4.78593 1.27314,8.72173 2.20853,11.80739 0.9007,3.02274 1.96597,5.28968 3.19583,6.80103 1.24716,1.51054 2.61556,2.26709 4.10524,2.26709 1.97466,0 3.95801,-1.41703 5.95001,-4.25062 2.00929,-2.89681 3.4383,-5.73061 4.28708,-8.50141 h 0.25986 v 19.36407 c -1.64555,2.51891 -3.32577,4.6285 -5.04062,6.32879 -1.71485,1.70028 -3.51631,2.55034 -5.40436,2.55034 -4.81544,0 -8.57426,-4.72297 -11.27642,-14.16876 -2.70216,-9.50891 -4.05327,-22.98508 -4.05327,-40.42851 0,-17.25453 1.29044,-30.951089 3.87137,-41.089692 2.59826,-10.138618 6.01063,-15.20792 10.23714,-15.20792 3.91469,0 6.92867,4.156207 9.04191,12.468605 2.13057,8.312398 3.19583,20.119767 3.19583,35.422137 z m -4.75477,-13.60211 c -0.0177,-9.319957 -0.66728,-16.530338 -1.94868,-21.631124 -1.2645,-5.100801 -3.19588,-7.651194 -5.79414,-7.651194 -2.61556,0 -4.70281,2.802283 -6.26175,8.406867 -1.54165,5.604567 -2.41641,12.563058 -2.62425,20.875451 z m 33.62137,57.90334 c -1.62825,2.83391 -3.17854,5.03798 -4.65088,6.6122 -1.45504,1.57502 -3.00533,2.36156 -4.65088,2.36156 -2.09589,0 -4.01863,-1.10267 -5.76811,-3.30609 -1.74948,-2.2671 -3.24781,-5.66767 -4.49497,-10.2017 -1.26445,-4.53404 -2.24316,-10.26449 -2.93603,-17.1915 -0.69286,-6.92699 -1.03927,-15.01898 -1.03927,-24.27597 0,-17.254528 1.29913,-30.793649 3.89735,-40.617392 2.6156,-9.823743 6.0626,-14.735622 10.34103,-14.735622 1.66289,0 3.29114,0.850061 4.88475,2.550393 1.61091,1.700267 3.08325,3.778362 4.41701,6.234302 V 89.99722 h -0.25985 c -1.48967,-4.219176 -3.03132,-7.462256 -4.62489,-9.729274 -1.57628,-2.267018 -3.11793,-3.400534 -4.6249,-3.400534 -2.77147,0 -4.96266,3.400534 -6.57357,10.201587 -1.59361,6.738084 -2.39042,16.656281 -2.39042,29.754601 0,12.7205 0.77947,22.51274 2.33845,29.37676 1.57628,6.80108 3.78476,10.20164 6.62554,10.20164 0.98731,0 1.992,-0.47234 3.01399,-1.41703 1.02198,-0.94469 1.94002,-2.17263 2.75413,-3.68398 0.71016,-1.32192 1.37704,-2.70782 2.00064,-4.1562 0.62361,-1.51134 1.11728,-2.80228 1.48103,-3.87281 h 0.25985 z m 30.99713,-46.09597 c 0,17.19156 -1.21253,30.76218 -3.63754,40.71187 -2.42501,9.94973 -5.67282,14.92452 -9.74342,14.92452 -4.10528,0 -7.37042,-4.97479 -9.79544,-14.92452 -2.40771,-9.94969 -3.61155,-23.52031 -3.61155,-40.71187 0,-17.191542 1.20384,-30.762164 3.61155,-40.711844 2.42502,-10.012665 5.69016,-15.018998 9.79544,-15.018998 4.0706,0 7.31841,5.006333 9.74342,15.018998 2.42501,9.94968 3.63754,23.520302 3.63754,40.711844 z m -5.04057,0 c 0,-13.66507 -0.73619,-23.803673 -2.20853,-30.415804 -1.47233,-6.675115 -3.5163,-10.012665 -6.13186,-10.012665 -2.65023,0 -4.71154,3.33755 -6.18388,10.012665 -1.455,6.612131 -2.1825,16.750734 -2.1825,30.415804 0,13.22428 0.73615,23.26843 2.20849,30.13245 1.47233,6.80098 3.52499,10.20155 6.15789,10.20155 2.59822,0 4.63354,-3.36897 6.10588,-10.1071 1.48967,-6.80105 2.23451,-16.87668 2.23451,-30.2269 z m 30.71134,-33.438494 h -0.25985 c -0.7275,-0.629687 -1.43771,-1.070435 -2.13058,-1.322407 -0.67553,-0.314843 -1.48098,-0.472345 -2.41636,-0.472345 -1.50697,0 -2.96197,1.227937 -4.36504,3.683893 -1.40308,2.392955 -2.75418,5.510114 -4.05331,9.351446 V 169.4373 h -4.8847 V 63.926493 h 4.8847 v 15.585748 c 1.94003,-5.667552 3.64623,-9.666321 5.11857,-11.996307 1.48967,-2.392955 3.00534,-3.589441 4.54694,-3.589441 0.84878,0 1.46369,0.09511 1.84478,0.283408 0.38091,0.125744 0.95267,0.409312 1.71485,0.850061 z m 28.13906,86.146664 h -4.88471 v -11.05177 c -1.40307,4.40813 -2.86676,7.84014 -4.39107,10.29617 -1.52431,2.45588 -3.1785,3.68382 -4.96266,3.68382 -3.46433,0 -6.21846,-4.84888 -8.26243,-14.54664 -2.02664,-9.69783 -3.03997,-23.14251 -3.03997,-40.33407 0,-8.94212 0.34632,-16.90818 1.03932,-23.898134 0.71016,-6.989974 1.66288,-12.940902 2.85807,-17.852765 1.1779,-4.785926 2.54629,-8.438351 4.10523,-10.95726 1.57628,-2.518908 3.20449,-3.778363 4.88471,-3.778363 1.52431,0 2.87541,0.598251 4.0533,1.794721 1.17786,1.133468 2.41637,2.928237 3.7155,5.384177 V 22.458989 h 4.88471 z m -4.88471,-25.97624 V 82.912792 c -1.31647,-2.14108 -2.49436,-3.620925 -3.53364,-4.439566 -1.03928,-0.818625 -2.17385,-1.227938 -3.40372,-1.227938 -2.73684,0 -4.86737,3.463503 -6.39167,10.390493 -1.52431,6.926991 -2.28649,16.750729 -2.28649,29.471229 0,12.53157 0.58893,22.07194 1.76682,28.6211 1.1779,6.48614 3.06596,9.7292 5.66418,9.7292 1.38573,0 2.7888,-1.10106 4.20917,-3.30593 1.42037,-2.2671 2.74549,-5.16382 3.97535,-8.69029 z m 35.23229,-4.43958 c 0,9.63487 -1.09994,17.53803 -3.29978,23.70931 -2.18254,6.17129 -5.17054,9.25685 -8.96399,9.25685 -2.14787,0 -4.12253,-0.91245 -5.92398,-2.73928 -1.78416,-1.88922 -3.28249,-3.93579 -4.49497,-6.13985 v -19.93084 h 0.25985 c 1.5416,4.21917 3.25646,7.58827 5.14456,10.10718 1.88806,2.45587 3.69816,3.68381 5.4303,3.68381 2.14791,0 3.82813,-1.25905 5.04062,-3.77828 1.21248,-2.51891 1.81875,-6.48624 1.81875,-11.90188 0,-4.15621 -0.32903,-7.30484 -0.98736,-9.44592 -0.65819,-2.14106 -1.92269,-3.96727 -3.79345,-5.47861 -0.69287,-0.56666 -1.60222,-1.22794 -2.72814,-1.98364 -1.10859,-0.7556 -2.12193,-1.57438 -3.03997,-2.45594 -2.54625,-2.45594 -4.3564,-6.04538 -5.43035,-10.76834 -1.05662,-4.78593 -1.58493,-10.64238 -1.58493,-17.569374 0,-4.345113 0.24256,-8.438351 0.7275,-12.279682 0.50237,-3.841332 1.25585,-7.27335 2.2605,-10.29604 0.97001,-2.959722 2.19988,-5.289708 3.68951,-6.989975 1.50702,-1.763236 3.18719,-2.644846 5.04062,-2.644846 1.73219,0 3.48167,0.787189 5.24845,2.36147 1.78416,1.511345 3.26514,3.369034 4.44304,5.573083 v 18.986283 h -0.25985 c -1.24716,-3.33755 -2.76278,-6.13985 -4.54694,-8.406867 -1.78412,-2.329987 -3.5336,-3.494988 -5.24845,-3.494988 -1.78416,0 -3.29113,1.259535 -4.52096,3.778363 -1.22986,2.45594 -1.84477,6.139849 -1.84477,11.051713 0,4.345113 0.37248,7.619694 1.11727,9.82374 0.7275,2.20405 1.90536,3.99877 3.5336,5.38418 0.90075,0.75559 1.9054,1.51134 3.01399,2.26702 1.12592,0.75559 2.06126,1.44831 2.8061,2.07809 2.26915,1.88918 4.01863,5.13227 5.24845,9.72928 1.22987,4.65998 1.84478,10.8313 1.84478,18.51398 z"
       id="text1-9"
       style="font-size:12px;-inkscape-font-specification:'sans-serif, Normal';white-space:pre;opacity:0.974603;fill:#1c00c7;fill-opacity:1;stroke:none;stroke-width:5082.56;paint-order:fill markers stroke"
       aria-label="Soggy Notes Records"
       sodipodi:nodetypes="scccsccccsscscccccscscccccscsscsccsssscscscsscscscscsssscsccccsccssccscscccsccccscccsssssccssscsccccsccssccscscccsccccscccsssssccccccccccccccccccccccssscscscsscscscscsccsssccccccccccscccscccccccccsccccsscscscscccscccscscccccssssccccscccscccccscscccccscccccccscccscccscccsccscccsscccccsccccsscscscscccscccccsccsscscccccscscsscccccssscscscsscscscscscccsccccccccsccccccsscscccscccccccsssscscscscscccccssssccccscccscccccscscccccs" />
    <path
       d="m 223.17773,98.737026 c 0,0.339844 -0.0801,0.675782 -0.24023,1.007813 -0.15625,0.332031 -0.37696,0.613281 -0.66211,0.843751 -0.3125,0.25 -0.67773,0.44531 -1.0957,0.58594 -0.41407,0.14062 -0.91407,0.21093 -1.5,0.21093 -0.62891,0 -1.19531,-0.0586 -1.69922,-0.17578 -0.5,-0.11719 -1.00977,-0.29101 -1.5293,-0.52148 v -1.453127 h 0.082 c 0.44141,0.367187 0.95117,0.65039 1.5293,0.849607 0.57813,0.19922 1.1211,0.29883 1.62891,0.29883 0.71875,0 1.27734,-0.13477 1.67578,-0.404296 0.40234,-0.269531 0.60351,-0.628906 0.60351,-1.078125 0,-0.386719 -0.0957,-0.671875 -0.28711,-0.855469 -0.1875,-0.183594 -0.47461,-0.326172 -0.86132,-0.427734 -0.29297,-0.07813 -0.61133,-0.142579 -0.95508,-0.19336 -0.33985,-0.05078 -0.70118,-0.115233 -1.08399,-0.193359 -0.77343,-0.164063 -1.34765,-0.44336 -1.72265,-0.837891 -0.37109,-0.398437 -0.55664,-0.916015 -0.55664,-1.552734 0,-0.730469 0.30859,-1.328125 0.92578,-1.792969 0.61719,-0.46875 1.40039,-0.703125 2.34961,-0.703125 0.61328,0 1.17578,0.05859 1.6875,0.175781 0.51171,0.117188 0.96484,0.261719 1.35937,0.433594 v 1.371094 h -0.082 c -0.33203,-0.28125 -0.76953,-0.513672 -1.3125,-0.697266 -0.53906,-0.1875 -1.09179,-0.28125 -1.6582,-0.28125 -0.62109,0 -1.12109,0.128906 -1.5,0.386719 -0.375,0.257813 -0.5625,0.589844 -0.5625,0.996094 0,0.363281 0.0937,0.648438 0.28125,0.855469 0.1875,0.207031 0.51758,0.365234 0.99023,0.474609 0.25,0.05469 0.60547,0.121093 1.06641,0.199219 0.46093,0.07813 0.85156,0.158203 1.17187,0.240234 0.64844,0.171875 1.13672,0.431641 1.46485,0.779297 0.32812,0.347656 0.49218,0.833984 0.49218,1.458984 z m 7.35352,-0.779297 c 0,1.066407 -0.27344,1.908204 -0.82031,2.525391 -0.54688,0.61719 -1.2793,0.92578 -2.19727,0.92578 -0.92578,0 -1.66211,-0.30859 -2.20898,-0.92578 -0.54297,-0.617187 -0.81446,-1.458984 -0.81446,-2.525391 0,-1.066406 0.27149,-1.908203 0.81446,-2.52539 0.54687,-0.621094 1.2832,-0.931641 2.20898,-0.931641 0.91797,0 1.65039,0.310547 2.19727,0.931641 0.54687,0.617187 0.82031,1.458984 0.82031,2.52539 z m -1.13672,0 c 0,-0.847656 -0.16602,-1.476562 -0.49805,-1.886718 -0.33203,-0.414063 -0.79296,-0.621094 -1.38281,-0.621094 -0.59765,0 -1.0625,0.207031 -1.39453,0.621094 -0.32813,0.410156 -0.49219,1.039062 -0.49219,1.886718 0,0.820313 0.16602,1.44336 0.49805,1.869141 0.33203,0.42187 0.79492,0.63281 1.38867,0.63281 0.58594,0 1.04492,-0.20898 1.37695,-0.626951 0.33594,-0.421875 0.50391,-1.046875 0.50391,-1.875 z m 8.15039,2.525391 c 0,1.10937 -0.25195,1.92383 -0.75586,2.44336 -0.50391,0.51953 -1.2793,0.7793 -2.32617,0.7793 -0.34765,0 -0.6875,-0.0254 -1.01953,-0.0762 -0.20468,-0.0292 -0.97362,-0.36932 -1.60095,-0.64288 -0.37834,-0.16498 -2.74074,0.0796 -2.86124,0.0458 l 3.48953,-0.733 h 0.0586 c 0.17969,0.0703 0.46484,0.15625 0.85547,0.25781 0.39062,0.10547 0.78124,0.1582 1.17187,0.1582 0.375,0 0.68555,-0.0449 0.93164,-0.13476 0.24609,-0.0898 0.4375,-0.21485 0.57422,-0.375 0.13672,-0.15235 0.23438,-0.33594 0.29297,-0.55078 0.0586,-0.21485 0.0879,-0.45508 0.0879,-0.72071 v -0.59765 c -0.33203,0.26562 -0.65039,0.46484 -0.95508,0.59765 -0.30078,0.12891 -0.68555,0.19336 -1.1543,0.19336 -0.78125,0 -1.40234,-0.28125 -1.86328,-0.84375 -0.45703,-0.566405 -0.68554,-1.36328 -0.68554,-2.390624 0,-0.5625 0.0781,-1.046875 0.23437,-1.453125 0.16016,-0.410156 0.37696,-0.763672 0.65039,-1.060547 0.25391,-0.277343 0.5625,-0.492187 0.92578,-0.644531 0.36328,-0.15625 0.72461,-0.234375 1.08399,-0.234375 0.37891,0 0.69531,0.03906 0.94922,0.117188 0.25781,0.07422 0.52929,0.189453 0.81445,0.345703 l 0.0703,-0.28125 h 1.03125 z m -1.10156,-1.054687 v -3.56836 c -0.29297,-0.132813 -0.5664,-0.226563 -0.82031,-0.28125 -0.25,-0.05859 -0.5,-0.08789 -0.75,-0.08789 -0.60547,0 -1.08204,0.203125 -1.42969,0.609375 -0.34766,0.40625 -0.52149,0.996094 -0.52149,1.769531 0,0.734375 0.12891,1.291015 0.38672,1.669922 0.25781,0.378906 0.68555,0.568359 1.28321,0.568359 0.32031,0 0.64062,-0.0606 0.96093,-0.181641 0.32422,-0.125 0.6211,-0.291015 0.89063,-0.498046 z m 8.57812,1.054687 c 0,1.10937 -0.25195,1.92383 -0.75586,2.44336 -0.5039,0.51953 -1.27929,0.7793 -2.32617,0.7793 -0.34765,0 -0.6875,-0.0254 -1.01953,-0.0762 -0.18993,-0.0271 -0.17294,-0.33904 -1.08519,-0.50245 -0.66377,-0.1189 -2.32124,-0.0966 -2.45614,-0.13449 l 2.56868,-0.69313 h 0.0586 c 0.17969,0.0703 0.46484,0.15625 0.85547,0.25781 0.39063,0.10547 0.78125,0.1582 1.17187,0.1582 0.375,0 0.68555,-0.0449 0.93164,-0.13476 0.24609,-0.0898 0.4375,-0.21485 0.57422,-0.375 0.13672,-0.15235 0.23438,-0.33594 0.29297,-0.55078 0.0586,-0.21485 0.0879,-0.45508 0.0879,-0.72071 v -0.59765 c -0.33203,0.26562 -0.65039,0.46484 -0.95508,0.59765 -0.30078,0.12891 -0.68554,0.19336 -1.15429,0.19336 -0.78125,0 -1.40235,-0.28125 -1.86328,-0.84375 -0.45703,-0.566405 -0.68555,-1.36328 -0.68555,-2.390624 0,-0.5625 0.0781,-1.046875 0.23437,-1.453125 0.16016,-0.410156 0.37696,-0.763672 0.65039,-1.060547 0.25391,-0.277343 0.5625,-0.492187 0.92579,-0.644531 0.36328,-0.15625 0.72461,-0.234375 1.08398,-0.234375 0.37891,0 0.69531,0.03906 0.94922,0.117188 0.25781,0.07422 0.5293,0.189453 0.81445,0.345703 l 0.0703,-0.28125 h 1.03125 z m -1.10156,-1.054687 v -3.56836 c -0.29297,-0.132813 -0.5664,-0.226563 -0.82031,-0.28125 -0.25,-0.05859 -0.5,-0.08789 -0.75,-0.08789 -0.60547,0 -1.08203,0.203125 -1.42969,0.609375 -0.34765,0.40625 -0.52148,0.996094 -0.52148,1.769531 0,0.734375 0.12891,1.291015 0.38672,1.669922 0.25781,0.378906 0.68554,0.568359 1.2832,0.568359 0.32031,0 0.64063,-0.0606 0.96094,-0.181641 0.32421,-0.125 0.62109,-0.291015 0.89062,-0.498046 z m 8.92969,-4.746094 -3.82031,8.958981 h -1.17774 l 1.21875,-2.73047 -2.60742,-6.228511 h 1.19531 l 2.00977,4.851562 2.02734,-4.851562 z m 12.4043,6.544921 h -1.43555 l -4.13672,-7.804687 v 7.804687 h -1.08398 v -8.724609 h 1.79882 l 3.77344,7.125 v -7.125 h 1.08399 z m 7.81054,-3.269531 c 0,1.066407 -0.27344,1.908204 -0.82031,2.525391 -0.54687,0.61719 -1.2793,0.92578 -2.19727,0.92578 -0.92578,0 -1.66211,-0.30859 -2.20898,-0.92578 -0.54297,-0.617187 -0.81445,-1.458984 -0.81445,-2.525391 0,-1.066406 0.27148,-1.908203 0.81445,-2.52539 0.54687,-0.621094 1.2832,-0.931641 2.20898,-0.931641 0.91797,0 1.6504,0.310547 2.19727,0.931641 0.54687,0.617187 0.82031,1.458984 0.82031,2.52539 z m -1.13672,0 c 0,-0.847656 -0.16601,-1.476562 -0.49804,-1.886718 -0.33203,-0.414063 -0.79297,-0.621094 -1.38282,-0.621094 -0.59765,0 -1.0625,0.207031 -1.39453,0.621094 -0.32812,0.410156 -0.49218,1.039062 -0.49218,1.886718 0,0.820313 0.16601,1.44336 0.49804,1.869141 0.33203,0.42187 0.79492,0.63281 1.38867,0.63281 0.58594,0 1.04493,-0.20898 1.37696,-0.626951 0.33593,-0.421875 0.5039,-1.046875 0.5039,-1.875 z m 6.24024,3.210941 c -0.20703,0.0547 -0.4336,0.0996 -0.67969,0.13476 -0.24219,0.0351 -0.45898,0.0527 -0.65039,0.0527 -0.66797,0 -1.17578,-0.17969 -1.52344,-0.53907 -0.34765,-0.35937 -0.52148,-0.935544 -0.52148,-1.728511 V 95.60812 h -0.74414 v -0.925781 h 0.74414 v -1.88086 h 1.10156 v 1.88086 h 2.27344 v 0.925781 h -2.27344 v 2.982422 c 0,0.34375 0.008,0.613281 0.0234,0.808594 0.0156,0.191406 0.0703,0.371093 0.16406,0.539062 0.0859,0.156252 0.20313,0.271482 0.35156,0.345702 0.15235,0.0703 0.38282,0.10547 0.69141,0.10547 0.17969,0 0.36719,-0.0254 0.5625,-0.0762 0.19531,-0.0547 0.33594,-0.0996 0.42187,-0.13477 h 0.0586 z m 6.80859,-3.099612 h -4.82226 c 0,0.402343 0.0606,0.753906 0.18164,1.054687 0.12109,0.296875 0.28711,0.541016 0.49804,0.732422 0.20313,0.187503 0.44336,0.328123 0.72071,0.421873 0.28125,0.0937 0.58984,0.14063 0.92578,0.14063 0.44531,0 0.89258,-0.0879 1.3418,-0.26367 0.45312,-0.179691 0.77538,-0.355474 0.96679,-0.527349 h 0.0586 v 1.201169 c -0.37109,0.15625 -0.75,0.28711 -1.13672,0.39258 -0.38672,0.10547 -0.79297,0.1582 -1.21875,0.1582 -1.08594,0 -1.9336,-0.29297 -2.54297,-0.8789 -0.60937,-0.589845 -0.91406,-1.425783 -0.91406,-2.507814 0,-1.070313 0.29101,-1.919922 0.87304,-2.548828 0.58594,-0.628907 1.35547,-0.94336 2.3086,-0.94336 0.88281,0 1.5625,0.257813 2.03906,0.773438 0.48047,0.515625 0.7207,1.248046 0.7207,2.197265 z m -1.07226,-0.84375 c -0.004,-0.578125 -0.15049,-1.025391 -0.43946,-1.341797 -0.28515,-0.316407 -0.7207,-0.47461 -1.30664,-0.47461 -0.58984,0 -1.06054,0.173828 -1.41211,0.521485 -0.34765,0.347656 -0.54492,0.779297 -0.59179,1.294922 z m 7.41797,2.115234 c 0,0.597659 -0.24805,1.087898 -0.74415,1.470708 -0.49219,0.38281 -1.16601,0.57421 -2.02148,0.57421 -0.48437,0 -0.92969,-0.0566 -1.33594,-0.16992 -0.40234,-0.11719 -0.74023,-0.24414 -1.01367,-0.38086 v -1.236326 h 0.0586 c 0.34766,0.261719 0.73438,0.470706 1.16016,0.626956 0.42578,0.15234 0.83398,0.22851 1.22461,0.22851 0.48437,0 0.86328,-0.0781 1.13672,-0.23437 0.27344,-0.15625 0.41016,-0.402346 0.41016,-0.738283 0,-0.257813 -0.0742,-0.453125 -0.22266,-0.585938 -0.14844,-0.132812 -0.4336,-0.246093 -0.85547,-0.339843 -0.15625,-0.03515 -0.36132,-0.07617 -0.61523,-0.123047 -0.25,-0.04687 -0.47852,-0.09766 -0.68555,-0.152344 -0.57422,-0.152344 -0.98242,-0.375 -1.22461,-0.667969 -0.23828,-0.296875 -0.35742,-0.660156 -0.35742,-1.089843 0,-0.269531 0.0547,-0.523438 0.16406,-0.761719 0.11328,-0.238281 0.2832,-0.451172 0.50977,-0.638672 0.21875,-0.183594 0.49609,-0.328125 0.83203,-0.433594 0.33984,-0.109375 0.71875,-0.164062 1.13672,-0.164062 0.39062,0 0.78515,0.04883 1.18359,0.146484 0.40235,0.09375 0.73633,0.208984 1.00195,0.345703 v 1.177735 h -0.0586 c -0.28125,-0.207031 -0.62305,-0.38086 -1.02539,-0.521485 -0.40235,-0.144531 -0.79688,-0.216797 -1.1836,-0.216797 -0.40234,0 -0.74218,0.07813 -1.01953,0.234375 -0.27734,0.152344 -0.41601,0.38086 -0.41601,0.685547 0,0.269531 0.084,0.472656 0.25195,0.609375 0.16406,0.136719 0.42969,0.248047 0.79688,0.333985 0.20312,0.04687 0.42968,0.09375 0.67968,0.140625 0.25391,0.04687 0.46485,0.08984 0.63282,0.128906 0.51171,0.117187 0.90624,0.318359 1.18359,0.603515 0.27735,0.289063 0.41602,0.671875 0.41602,1.148438 z m 13.10156,1.886718 h -1.50586 L 300,97.758511 h -1.63477 v 3.468749 h -1.16015 v -8.724609 h 2.44336 c 0.52734,0 0.96679,0.03516 1.31836,0.105469 0.35156,0.06641 0.66797,0.1875 0.94922,0.363281 0.3164,0.199219 0.56249,0.451172 0.73828,0.75586 0.17969,0.300781 0.26953,0.683594 0.26953,1.148437 0,0.628907 -0.1582,1.15625 -0.47461,1.582031 -0.31641,0.421875 -0.75195,0.740235 -1.30664,0.955079 z m -2.71289,-6.269531 c 0,-0.25 -0.0449,-0.470703 -0.13477,-0.662109 -0.0859,-0.195313 -0.23046,-0.359375 -0.43359,-0.492187 -0.16797,-0.113281 -0.36719,-0.191406 -0.59766,-0.234375 -0.23047,-0.04687 -0.50195,-0.07031 -0.81445,-0.07031 h -1.36524 v 3.292969 h 1.17188 c 0.36719,0 0.6875,-0.03125 0.96094,-0.09375 0.27343,-0.06641 0.50585,-0.1875 0.69726,-0.363281 0.17578,-0.164063 0.30469,-0.351563 0.38672,-0.5625 0.0859,-0.214844 0.12891,-0.486329 0.12891,-0.814454 z m 8.93554,3.111329 h -4.82226 c 0,0.402343 0.0605,0.753906 0.18164,1.054687 0.12109,0.296875 0.28711,0.541016 0.49805,0.732422 0.20312,0.187503 0.44335,0.328123 0.7207,0.421873 0.28125,0.0937 0.58984,0.14063 0.92578,0.14063 0.44531,0 0.89258,-0.0879 1.3418,-0.26367 0.45312,-0.179691 0.77538,-0.355474 0.96679,-0.527349 h 0.0586 v 1.201169 c -0.37109,0.15625 -0.75,0.28711 -1.13672,0.39258 -0.38672,0.10547 -0.79297,0.1582 -1.21875,0.1582 -1.08594,0 -1.9336,-0.29297 -2.54297,-0.8789 -0.60937,-0.589845 -0.91406,-1.425783 -0.91406,-2.507814 0,-1.070313 0.29101,-1.919922 0.87304,-2.548828 0.58594,-0.628907 1.35547,-0.94336 2.3086,-0.94336 0.88281,0 1.5625,0.257813 2.03906,0.773438 0.48047,0.515625 0.7207,1.248046 0.7207,2.197265 z m -1.07226,-0.84375 c -0.004,-0.578125 -0.15048,-1.025391 -0.43945,-1.341797 -0.28516,-0.316407 -0.72071,-0.47461 -1.30665,-0.47461 -0.58984,0 -1.06054,0.173828 -1.4121,0.521485 -0.34766,0.347656 -0.54493,0.779297 -0.5918,1.294922 z m 7.58203,3.591792 c -0.36719,0.17579 -0.7168,0.31251 -1.04883,0.41016 -0.32813,0.0977 -0.67774,0.14649 -1.04883,0.14649 -0.47265,0 -0.90625,-0.0684 -1.30078,-0.20508 -0.39453,-0.14063 -0.73242,-0.35157 -1.01367,-0.63282 -0.28515,-0.28125 -0.50586,-0.636714 -0.66211,-1.066402 -0.15625,-0.429687 -0.23437,-0.93164 -0.23437,-1.505859 0,-1.070313 0.29297,-1.910156 0.8789,-2.519531 0.58985,-0.609375 1.36719,-0.914063 2.33203,-0.914063 0.375,0 0.74219,0.05273 1.10157,0.158203 0.36328,0.105469 0.69531,0.234375 0.99609,0.386719 v 1.224609 h -0.0586 c -0.33594,-0.261719 -0.6836,-0.46289 -1.04297,-0.603515 -0.35547,-0.140625 -0.70313,-0.210938 -1.04297,-0.210938 -0.625,0 -1.11914,0.210938 -1.48242,0.632813 -0.35938,0.417969 -0.53907,1.033203 -0.53907,1.845703 0,0.789063 0.17578,1.396484 0.52735,1.822265 0.35547,0.421876 0.85351,0.632816 1.49414,0.632816 0.22265,0 0.44922,-0.0293 0.67969,-0.0879 0.23047,-0.0586 0.4375,-0.13477 0.62109,-0.22852 0.16015,-0.082 0.31054,-0.167968 0.45117,-0.257812 0.14063,-0.09375 0.25196,-0.173828 0.33399,-0.240234 h 0.0586 z m 6.99023,-2.859371 c 0,1.066407 -0.27344,1.908204 -0.82031,2.525391 -0.54687,0.61719 -1.27929,0.92578 -2.19726,0.92578 -0.92579,0 -1.66212,-0.30859 -2.20899,-0.92578 -0.54297,-0.617187 -0.81445,-1.458984 -0.81445,-2.525391 0,-1.066406 0.27148,-1.908203 0.81445,-2.52539 0.54687,-0.621094 1.2832,-0.931641 2.20899,-0.931641 0.91797,0 1.65039,0.310547 2.19726,0.931641 0.54687,0.617187 0.82031,1.458984 0.82031,2.52539 z m -1.13671,0 c 0,-0.847656 -0.16602,-1.476562 -0.49805,-1.886718 -0.33203,-0.414063 -0.79297,-0.621094 -1.38281,-0.621094 -0.59766,0 -1.06251,0.207031 -1.39454,0.621094 -0.32812,0.410156 -0.49218,1.039062 -0.49218,1.886718 0,0.820313 0.16601,1.44336 0.49804,1.869141 0.33203,0.42187 0.79493,0.63281 1.38868,0.63281 0.58593,0 1.04492,-0.20898 1.37695,-0.626951 0.33594,-0.421875 0.50391,-1.046875 0.50391,-1.875 z m 6.92578,-2.074218 h -0.0586 c -0.16406,-0.03906 -0.32422,-0.0664 -0.48047,-0.08203 -0.15234,-0.01953 -0.33398,-0.0293 -0.54492,-0.0293 -0.33984,0 -0.66796,0.07617 -0.98437,0.228515 -0.31641,0.148437 -0.6211,0.341797 -0.91407,0.580078 v 4.646486 h -1.10156 v -6.544923 h 1.10156 v 0.966797 c 0.4375,-0.351563 0.82227,-0.59961 1.1543,-0.744141 0.33594,-0.148437 0.67774,-0.222656 1.02539,-0.222656 0.19141,0 0.33008,0.0059 0.41602,0.01758 0.0859,0.0078 0.21484,0.02539 0.38672,0.05273 z m 6.3457,5.343749 h -1.10156 v -0.68555 c -0.31641,0.27344 -0.64649,0.48633 -0.99024,0.63868 -0.34375,0.15234 -0.71679,0.22851 -1.11914,0.22851 -0.78125,0 -1.40234,-0.30078 -1.86328,-0.90234 -0.45703,-0.601564 -0.68555,-1.435549 -0.68555,-2.501956 0,-0.554687 0.0781,-1.048828 0.23438,-1.482421 0.16015,-0.433594 0.375,-0.802735 0.64453,-1.107422 0.26563,-0.296875 0.57422,-0.523438 0.92578,-0.679688 0.35547,-0.15625 0.72265,-0.234375 1.10156,-0.234375 0.34375,0 0.64844,0.03711 0.91407,0.111328 0.26562,0.07031 0.54492,0.181641 0.83789,0.333985 v -2.835938 h 1.10156 z m -1.10156,-1.611327 v -3.75586 c -0.29688,-0.132813 -0.56251,-0.224609 -0.79688,-0.27539 -0.23437,-0.05078 -0.49023,-0.07617 -0.76758,-0.07617 -0.61719,0 -1.09765,0.214844 -1.4414,0.644531 -0.34375,0.429687 -0.51563,1.039062 -0.51563,1.828125 0,0.777344 0.13281,1.369141 0.39844,1.775391 0.26563,0.40234 0.69141,0.60351 1.27734,0.60351 0.3125,0 0.62891,-0.0683 0.94922,-0.20507 0.32031,-0.14063 0.61914,-0.320315 0.89649,-0.539065 z m 7.94531,-0.275391 c 0,0.597659 -0.24805,1.087898 -0.74414,1.470708 -0.49219,0.38281 -1.16602,0.57421 -2.02149,0.57421 -0.48437,0 -0.92968,-0.0566 -1.33593,-0.16992 -0.40235,-0.11719 -0.74024,-0.24414 -1.01367,-0.38086 v -1.236326 h 0.0586 c 0.34765,0.261719 0.73437,0.470706 1.16016,0.626956 0.42578,0.15234 0.83398,0.22851 1.2246,0.22851 0.48438,0 0.86329,-0.0781 1.13672,-0.23437 C 341.86328,100.0632 342,99.817104 342,99.481167 c 0,-0.257813 -0.0742,-0.453125 -0.22266,-0.585938 -0.14843,-0.132812 -0.43359,-0.246093 -0.85547,-0.339843 -0.15625,-0.03515 -0.36132,-0.07617 -0.61523,-0.123047 -0.25,-0.04687 -0.47852,-0.09766 -0.68555,-0.152344 -0.57421,-0.152344 -0.98242,-0.375 -1.22461,-0.667969 -0.23828,-0.296875 -0.35742,-0.660156 -0.35742,-1.089843 0,-0.269531 0.0547,-0.523438 0.16406,-0.761719 0.11329,-0.238281 0.28321,-0.451172 0.50977,-0.638672 0.21875,-0.183594 0.4961,-0.328125 0.83203,-0.433594 0.33985,-0.109375 0.71875,-0.164062 1.13672,-0.164062 0.39063,0 0.78516,0.04883 1.18359,0.146484 0.40235,0.09375 0.73633,0.208984 1.00196,0.345703 v 1.177735 h -0.0586 c -0.28125,-0.207031 -0.62304,-0.38086 -1.02539,-0.521485 -0.40234,-0.144531 -0.79687,-0.216797 -1.18359,-0.216797 -0.40235,0 -0.74219,0.07813 -1.01953,0.234375 -0.27735,0.152344 -0.41602,0.38086 -0.41602,0.685547 0,0.269531 0.084,0.472656 0.25196,0.609375 0.16406,0.136719 0.42968,0.248047 0.79687,0.333985 0.20313,0.04687 0.42969,0.09375 0.67969,0.140625 0.25391,0.04687 0.46484,0.08984 0.63281,0.128906 0.51172,0.117187 0.90625,0.318359 1.18359,0.603515 0.27735,0.289063 0.41602,0.671875 0.41602,1.148438 z"
       id="text1"
       style="font-size:12px;-inkscape-font-specification:'sans-serif, Normal';white-space:pre;opacity:0.974603;fill:#4ab8ff;stroke-width:601.134;paint-order:fill markers stroke;fill-opacity:1"
       transform="matrix(4.4343504,0,0,16.121014,-902.57889,-1460.1965)"
       aria-label="Soggy Notes Records"
       sodipodi:nodetypes="scccsccccsscscccccscscccccscsscsccsssscscscsscscscscsssscsccccsccssccscscccsccccscccsssssccssscsccccsccssccscscccsccccscccsssssccccccccccccccccccccccssscscscsscscscscsccsssccccccccccscccscccccccccsccccsscscscscccscccscscccccssssccccscccscccccscscccccscccccccscccscccscccsccscccsscccccsccccsscscscscccscccccsccsscscccccscscsscccccssscscscsscscscscscccsccccccccsccccccsscscccscccccccsssscscscscscccccssssccccscccscccccscscccccs" />
    <text
       xml:space="preserve"
       transform="matrix(0.26460701,0,0,0.26375375,-0.03304743,0.41687959)"
       id="text5"
       style="font-size:12px;font-family:sans-serif;-inkscape-font-specification:'sans-serif, Normal';text-align:start;writing-mode:lr-tb;direction:ltr;white-space:pre;shape-inside:url(#rect6);display:inline;opacity:0.974603;fill:#000034;stroke-width:601.134;paint-order:fill markers stroke" />
  </g>
</svg>
